<svg width="269" height="218" viewBox="0 0 269 218" fill="none" xmlns="http://www.w3.org/2000/svg">
<path d="M18.0977 62.1305L85.157 90.5518C87.4527 88.5542 90.815 85.7488 95.0029 82.6506C104.342 75.8241 113.322 69.2049 125.292 65.9372C130.807 64.4457 140.211 62.7194 152.595 64.8743L231.867 103.511C234.275 104.795 248.478 112.715 252.634 129.908C254.611 138.268 253.841 147.05 250.543 154.956L179.966 124.603C175.754 128.045 171.399 131.225 166.875 134.188C154.648 142.189 144.52 148.735 131.337 149.688C126.355 150.06 117.35 149.875 106.091 144.564L32.378 112.026C30.0588 110.794 19.3999 104.76 15.0387 91.4977C10.1175 76.5388 16.9576 64.0865 18.0977 62.1305Z" fill="#070A15" stroke="white" stroke-width="1.5" stroke-linecap="round" stroke-linejoin="round"/>
<path d="M179.939 124.649C182.758 122.778 186.898 120.068 191.941 116.932C207.654 107.149 211.818 105.824 213.746 105.28C217.807 104.132 224.269 102.955 232.859 104.269" fill="#232323"/>
<path d="M179.939 124.649C182.758 122.778 186.898 120.068 191.941 116.932C207.654 107.149 211.818 105.824 213.746 105.28C217.807 104.132 224.269 102.955 232.859 104.269" stroke="white" stroke-width="1.5" stroke-miterlimit="10"/>
<path d="M85.2024 90.5771L94.6128 94.8705C90.3188 102.136 88.4851 110.597 89.4217 119.005C90.3583 127.413 94.006 135.256 99.8648 141.351" stroke="white" stroke-width="1.5" stroke-miterlimit="10"/>
<path d="M194.009 116.349L229.026 131.992C228.985 130.837 229.199 129.651 229.662 128.551C230.126 127.452 230.81 126.48 231.667 125.729C234.72 123.041 238.536 123.954 238.874 124.092C236.57 116.496 232.309 109.605 226.519 104.205" fill="#070A15"/>
<path d="M194.009 116.349L229.026 131.992C228.985 130.837 229.199 129.651 229.662 128.551C230.126 127.452 230.81 126.48 231.667 125.729C234.72 123.041 238.536 123.954 238.874 124.092C236.57 116.496 232.309 109.605 226.519 104.205" stroke="white" stroke-width="1.5" stroke-miterlimit="10"/>
<path d="M81.7222 133.338L74.9949 113.098C72.7015 111.821 70.7375 110.081 69.2109 108C67.1353 105.122 66.0153 101.73 65.8732 98.1929L37.4689 86.2248C36.8031 87.9807 35.6664 89.5222 34.1892 90.6264C32.7114 91.7308 30.893 92.3983 29.0409 92.51L38.5318 113.527" stroke="white" stroke-width="1.5" stroke-miterlimit="10"/>
<path d="M161.079 69.9377C152.96 69.9705 144.956 71.4406 137.367 74.3438C129.823 77.273 125.787 80.5196 110.711 90.8524C102.295 96.6083 95.3806 101.215 90.9701 104.184" stroke="white" stroke-width="1.5" stroke-miterlimit="10"/>
<path d="M213.382 95.4773C206.743 95.4202 200.204 96.7313 194.113 99.3161C186.282 102.733 180.698 106.388 176.67 110.235C173.478 113.258 154.461 131.479 134.384 139.254C128.095 141.664 118.517 144.302 105.505 144.044" stroke="white" stroke-width="1.5" stroke-miterlimit="10"/>
<path d="M26.2604 86.9594C28.9277 88.5139 32.3313 87.5791 33.8601 84.9559C35.3887 82.3331 34.4799 78.8849 31.8571 77.3563C29.2338 75.8275 25.7857 76.7363 24.2571 79.3592C22.7283 81.9824 23.5926 85.4046 26.2604 86.9594Z" fill="#070A15" stroke="white" stroke-width="1.5" stroke-miterlimit="10"/>
<path d="M73.4475 108.088C76.1152 109.643 79.5189 108.708 81.0475 106.086C82.6022 103.418 81.6674 100.014 79.0442 98.4854C76.4214 96.9568 72.9733 97.8656 71.4444 100.489C69.8454 103.13 70.7802 106.534 73.4475 108.088Z" fill="#070A15" stroke="white" stroke-width="1.5" stroke-miterlimit="10"/>
<path d="M234.764 137.481C237.433 139.036 240.834 138.1 242.362 135.477C243.917 132.809 242.985 129.408 240.361 127.878C237.736 126.348 234.291 127.259 232.762 129.882C231.208 132.55 232.095 135.926 234.764 137.481Z" fill="#070A15" stroke="white" stroke-width="1.5" stroke-miterlimit="10"/>
</svg>
