<svg width="226" height="186" viewBox="0 0 226 186" fill="none" xmlns="http://www.w3.org/2000/svg">
<path d="M85.578 100.187L16.7385 43.47C16.7385 43.47 8.52615 74.0385 26.8882 88.8456" stroke="white" stroke-width="1.5" stroke-linecap="round" stroke-linejoin="round"/>
<path d="M216.541 97.3953L146.05 38.5475C130.466 48.8688 118.031 57.3896 109.862 63.1355C82.2172 82.4745 73.5066 89.8597 58.2506 92.156C45.2863 94.1183 34.1223 91.3775 26.8641 88.8888L93.3497 144.441C101.487 148.757 110.426 151.281 119.617 151.834C138.304 152.814 152.152 144.711 170.668 133.525C187.418 123.429 202.812 111.305 216.541 97.3953Z" fill="#070A15" stroke="white" stroke-width="1.5" stroke-linecap="round" stroke-linejoin="round"/>
<path d="M195.987 105.008C198.128 101.077 196.668 96.1208 192.736 93.9794C188.805 91.8377 183.849 93.2985 181.707 97.2298C179.566 101.161 181.026 106.118 184.958 108.259C188.889 110.401 193.821 108.985 195.987 105.008Z" fill="#070A15" stroke="white" stroke-width="1.5" stroke-miterlimit="10"/>
<path d="M148.705 63.2559C150.847 59.3241 149.386 54.3681 145.454 52.2265C141.523 50.0851 136.566 51.5456 134.425 55.4773C132.283 59.4086 133.744 64.3653 137.676 66.5067C141.583 68.6935 146.539 67.2323 148.705 63.2559Z" fill="#070A15" stroke="white" stroke-width="1.5" stroke-miterlimit="10"/>
<path d="M40.4973 100.008C48.0423 100.895 59.0212 103.008 69.0027 99.4212C100.492 87.9775 118.937 75.5232 126.694 67.091C130.606 69.8078 135.202 71.374 139.962 71.5641C144.722 71.7546 149.436 70.6304 153.57 68.3122L179.9 90.33C179.215 90.836 173.73 94.8801 173.381 102.19C173.284 104.306 173.671 106.392 174.407 108.375C175.143 110.358 176.278 112.148 177.79 113.675C166.709 126.273 152.315 135.485 136.24 140.147C115.162 146.246 97.2381 143.221 89.5491 141.201" stroke="white" stroke-width="1.5" stroke-miterlimit="10"/>
<path d="M19.2243 57.3035L60.2307 91.5354" stroke="white" stroke-width="1.5" stroke-miterlimit="10"/>
</svg>
