<svg width="274" height="483" viewBox="0 0 274 483" fill="none" xmlns="http://www.w3.org/2000/svg">
<path d="M214.798 390.566C208.919 388.397 202.699 387.084 196.42 386.742L190.028 361.173C189.971 360.659 189.856 360.145 189.8 359.631C198.133 359.974 206.294 362.028 213.771 365.796C216.054 366.994 218.28 368.307 220.449 369.791L231.065 349.073C227.012 345.705 222.561 342.851 217.823 340.511C211.431 337.372 204.582 335.318 197.505 334.404C192.996 333.891 188.487 333.834 183.978 334.233C182.722 329.211 181.524 324.188 180.268 319.166L159.949 323.789L163.602 339.427C157.667 341.31 145.795 345.99 137.063 357.405C134.723 360.487 130.955 365.51 129.357 373.215C128.102 379.208 128.444 385.429 130.328 391.251C131.641 395.417 133.752 399.298 136.492 402.666C143.398 410.884 152.758 413.168 159.607 414.823C166.171 416.421 173.02 416.877 179.754 416.25L185.519 442.388C177.928 443.016 170.337 441.874 163.26 439.081C158.465 437.136 154.014 434.4 150.133 431.031L139.06 450.438C147.051 457.912 156.924 463.164 167.598 465.561C175.359 467.274 183.35 467.443 191.227 466.132C192.425 471.44 193.681 476.692 194.879 482L217.709 476.347L213.828 459.913C214.855 459.568 216.339 458.997 218.109 458.257C222.96 456.142 232.663 452.038 238.713 443.875C240.197 441.874 248.187 430.63 245.276 417.505C241.452 400.497 222.389 393.419 214.798 390.566ZM168.967 384.345C168.625 384.288 168.339 384.231 168.054 384.174C167.54 384.059 166.97 383.945 166.456 383.774C165.543 383.488 164.687 383.032 164.002 382.404C163.317 381.777 162.746 380.977 162.403 380.121C162.176 379.608 162.061 379.094 161.947 378.58C161.433 376.583 161.776 374.471 162.746 372.702C163.945 370.704 166.057 368.934 169.024 367.45C169.139 367.907 169.196 368.307 169.31 368.764C169.88 371.674 170.451 374.414 171.022 377.096C171.536 379.608 172.049 382.119 172.563 384.745L171.65 384.687C170.794 384.63 169.88 384.516 168.967 384.345ZM210.061 432.8C209.262 433.541 208.406 434.287 207.436 435.084C207.378 434.683 207.264 434.344 207.207 433.942L203.783 416.649C208.235 418.532 211.26 420.245 212.972 421.958C213.2 422.184 213.428 422.416 213.6 422.698C213.714 422.868 213.828 423.043 213.942 423.213C215.598 426.011 214.228 428.922 210.061 432.8Z" stroke="white" stroke-width="1.5" stroke-linecap="round" stroke-linejoin="round"/>
<path d="M220.959 388.57C215.081 386.344 208.859 385.088 202.581 384.746L196.189 359.176C196.132 358.663 196.018 358.149 195.961 357.635C204.293 357.977 212.455 360.032 219.932 363.799C222.215 364.998 224.441 366.311 226.61 367.795L237.226 347.076C233.173 343.709 228.721 340.855 223.985 338.515C217.592 335.376 210.743 333.321 203.666 332.408C199.157 331.894 194.648 331.837 190.139 332.237L186.429 317.169L166.111 321.792L169.763 337.374C163.827 339.257 151.956 343.937 143.223 355.352C140.883 358.434 137.117 363.457 135.519 371.162C134.263 377.155 134.605 383.376 136.489 389.198C137.801 393.364 139.913 397.245 142.653 400.612C149.616 408.831 158.919 411.114 165.768 412.77C172.332 414.367 179.181 414.824 185.915 414.196C187.856 422.93 189.796 431.602 191.68 440.336C184.089 440.964 176.498 439.822 169.421 436.967C164.627 435.028 160.175 432.292 156.236 428.922L145.164 448.324C153.211 455.803 163.029 461.055 173.758 463.452C181.521 465.165 189.511 465.391 197.387 464.023C198.586 469.331 199.841 474.583 201.04 479.891L223.87 474.238L219.932 457.799C220.959 457.46 222.443 456.889 224.212 456.148C229.064 454.034 238.766 449.924 244.816 441.761C246.3 439.765 254.291 428.521 251.38 415.395C247.613 398.5 228.607 391.423 220.959 388.57ZM175.185 382.349C174.843 382.292 174.558 382.235 174.272 382.178C173.758 382.063 173.188 381.949 172.674 381.778C171.761 381.492 170.905 381.036 170.22 380.408C169.535 379.78 168.964 378.981 168.622 378.125C168.393 377.611 168.279 377.098 168.165 376.584C167.652 374.586 167.994 372.474 169.022 370.706C170.163 368.708 172.331 366.938 175.299 365.454C175.414 365.911 175.471 366.311 175.585 366.767C176.156 369.678 176.726 372.417 177.24 375.1C177.754 377.611 178.267 380.123 178.781 382.748L177.868 382.691C176.898 382.577 176.042 382.52 175.185 382.349ZM216.222 430.805C215.423 431.546 214.567 432.292 213.597 433.089C213.54 432.687 213.426 432.348 213.368 431.947L209.944 414.653C214.396 416.536 217.421 418.249 219.133 419.962C219.361 420.188 219.59 420.42 219.761 420.703C219.875 420.872 219.989 421.048 220.103 421.217C221.758 424.015 220.389 426.921 216.222 430.805Z" fill="#070A15" stroke="white" stroke-width="1.5" stroke-linecap="round" stroke-linejoin="round"/>
<path d="M195.789 464.594L203.323 462.763" stroke="white" stroke-width="1.5" stroke-linecap="round" stroke-linejoin="round"/>
<path d="M186.201 333.034L190.082 332.064" stroke="white" stroke-width="1.5" stroke-linecap="round" stroke-linejoin="round"/>
<path d="M123.705 5.65379L104.756 9.19268L82.8401 15.1285L55.3296 24.9452C35.1822 32.1366 18.3454 46.6907 8.87126 65.868C8.64287 66.3248 8.41448 66.8381 8.18609 67.2948C0.537916 83.6755 -1.85902 102.11 1.45147 119.918C10.1268 151.651 23.1399 173.454 32.8424 186.923C45.7412 204.845 63.1491 220.312 97.5079 250.448C114.744 265.572 129.185 277.672 139.002 285.72L188.029 279.214L199.272 263.061C209.317 248.564 219.591 232.412 229.636 214.719C241.622 193.544 252.466 171.742 261.998 149.368C268.904 134.928 272.727 119.176 273.241 103.138C273.755 87.0996 270.958 71.1757 265.08 56.2796C257.66 41.2688 241.964 16.0986 214.055 6.33896C203.04 2.45806 192.823 1.94418 180.323 1.31611C161.317 0.288929 142.312 1.77289 123.705 5.65379Z" fill="url(#paint0_linear_13229_217488)"/>
<path d="M133.636 4.22632C133.636 4.22632 147.904 15.185 156.865 73.9717C167.823 145.943 167.823 267.57 167.823 267.57" stroke="#232323" stroke-width="1.5" stroke-linecap="round" stroke-linejoin="round"/>
<path d="M171.136 1.54565C171.136 1.54565 208.749 21.122 215.94 62.4444C223.074 103.766 212.402 178.991 210.804 184.014C209.206 189.036 186.546 268.656 186.546 268.656" stroke="#232323" stroke-width="1.5" stroke-linecap="round" stroke-linejoin="round"/>
<path d="M81.5264 15.5281C81.5264 15.5281 48.5944 33.2785 60.8652 82.3627C73.1365 131.447 105.897 222.196 141.227 273.05" stroke="#232323" stroke-width="1.5" stroke-linecap="round" stroke-linejoin="round"/>
<path d="M43.5704 30.1958C43.5704 30.1958 19.428 54.0527 30.5574 101.881" stroke="#232323" stroke-width="1.5" stroke-linecap="round" stroke-linejoin="round"/>
<path d="M139.002 285.664L164.971 307.866" stroke="white" stroke-width="1.5" stroke-linecap="round" stroke-linejoin="round"/>
<path d="M188.028 279.156L175.186 306.038" stroke="white" stroke-width="1.5" stroke-linecap="round" stroke-linejoin="round"/>
<path d="M168.508 282.296L170.335 305.411" stroke="white" stroke-width="1.5" stroke-linecap="round" stroke-linejoin="round"/>
<path d="M163.715 322.304C160.005 310.147 167.139 305.924 171.249 305.695C175.187 305.467 181.865 309.576 182.378 317.681" stroke="white" stroke-width="1.5" stroke-linecap="round" stroke-linejoin="round"/>
<path d="M196.533 267.514L128.557 276.931C131.695 279.158 135.406 282.468 139.058 285.778L188.257 280.242C190.825 275.676 193.394 271.053 196.533 267.514Z" fill="#070A15" stroke="white" stroke-width="1.5" stroke-linecap="round" stroke-linejoin="round"/>
<path d="M1.45317 119.917C30.333 101.767 84.0404 73.5721 156.697 66.3237C194.023 62.614 231.693 64.8397 268.335 72.9441" stroke="#232323" stroke-width="1.5" stroke-linecap="round" stroke-linejoin="round"/>
<path d="M41.745 197.882C81.0125 200.222 120.451 197.254 158.919 189.035C193.335 181.673 226.724 170.201 258.401 154.791" stroke="#232323" stroke-width="1.5" stroke-linecap="round" stroke-linejoin="round"/>
<path d="M53.9039 165.863L70.5123 197.882" stroke="#232323" stroke-width="1.5" stroke-linecap="round" stroke-linejoin="round"/>
<defs>
<linearGradient id="paint0_linear_13229_217488" x1="134.031" y1="40.5455" x2="136.898" y2="350.398" gradientUnits="userSpaceOnUse">
<stop stop-color="#EFDA91"/>
<stop offset="1" stop-color="#CDF7F4"/>
</linearGradient>
</defs>
</svg>
