<svg width="329" height="439" viewBox="0 0 329 439" fill="none" xmlns="http://www.w3.org/2000/svg">
<path fill-rule="evenodd" clip-rule="evenodd" d="M204.357 5.47571L197.585 13.5552L187.066 12.4834L192.668 21.4333L188.439 31.1105L198.704 28.6204L206.602 35.6085L207.368 25.0877L216.498 19.7315L206.697 15.7441L204.357 5.47571ZM272.169 42.9056L265.58 50.7729L255.332 49.7626L260.749 58.466L256.643 67.9005L266.607 65.4096L274.29 72.212L274.999 61.9674L283.879 56.7898L274.385 52.9575L272.169 42.9056ZM306.441 115.25L312.971 107.505L315.097 117.435L324.442 121.268L315.739 126.383L315.035 136.478L307.474 129.737L297.632 132.137L301.678 122.825L296.349 114.242L306.441 115.25ZM315.514 185.093L309.414 192.293L300.02 191.411L305.018 199.443L301.22 208.119L310.391 205.836L317.438 212.087L318.108 202.661L326.261 197.877L317.523 194.353L315.514 185.093ZM272.644 261.657L279.419 253.578L281.725 263.906L291.525 267.893L282.395 273.249L281.628 283.769L273.733 276.783L263.434 279.332L267.665 269.656L262.095 260.646L272.644 261.657ZM214.079 295.838L208.132 302.887L198.981 301.977L203.859 309.796L200.154 318.289L209.142 316.065L216.039 322.164L216.676 312.951L224.615 308.286L216.089 304.794L214.079 295.838ZM129.479 17.0995L127.236 6.80452L120.523 14.9145L110.065 13.8733L115.601 22.789L111.402 32.4055L121.614 29.8879L129.446 36.8431L130.181 26.3823L139.22 21.0569L129.479 17.0995ZM60.9458 45.2244L63.132 55.1851L72.5721 58.99L63.7767 64.1344L63.0387 74.2878L55.4161 67.516L45.5493 69.9797L49.5935 60.6666L44.2305 51.9906L54.3273 53.0005L60.9458 45.2244ZM24.8025 121.924L22.7025 112.389L16.5399 119.862L6.87114 118.917L11.991 127.164L8.07146 136.083L17.4841 133.77L24.7416 140.204L25.4752 130.506L33.8394 125.6L24.8025 121.924ZM21.9401 193.179L23.7402 201.342L31.4484 204.495L24.2746 208.709L23.6399 217.008L17.4414 211.493L9.3365 213.479L12.6689 205.864L8.24339 198.809L16.5123 199.653L21.9401 193.179ZM62.7404 267.085L60.7911 258.16L54.8149 265.119L45.7251 264.239L50.5418 272.026L46.8997 280.4L55.7977 278.206L62.6304 284.272L63.2975 275.151L71.206 270.547L62.7404 267.085Z" fill="url(#paint0_linear_13229_217777)"/>
<path d="M167.212 284.612L197.053 261.322L232.253 232.131C237.824 226.723 266.544 197.826 269.328 162.466C269.824 156.233 270.751 144.497 265.423 130.803C262.192 122.601 257.313 115.085 251.056 108.779C247.498 98.9597 241.046 90.4937 232.595 84.4451C228.207 81.376 223.473 78.9712 218.315 77.4188C211.207 75.1807 204.355 72.1573 197.896 68.494C184.624 60.9873 168.91 59.0306 154.131 63.0421C133.663 62.4848 113.752 69.3822 98.0345 82.4539C88.6504 89.0546 72.87 102.399 64.5422 124.337C53.0005 154.713 62.0825 185.192 65.088 195.34C65.2694 195.89 65.4156 196.346 65.4493 196.592C68.3346 206.069 75.3757 218.344 89.3004 242.891C92.4914 248.479 97.7005 256.848 103.713 267.533" stroke="white" stroke-width="1.5" stroke-linecap="round" stroke-linejoin="round"/>
<path d="M167.212 284.612L154.198 270.142L130.977 261.93L116.337 262.96L103.653 267.503L104.221 278.701L160.201 291.808L167.212 284.612Z" stroke="white" stroke-width="1.5" stroke-linecap="round" stroke-linejoin="round"/>
<path d="M103.951 278.487C104.795 274.567 118.395 274.229 134.281 277.647C150.234 281.098 162.393 287.047 161.544 290.964C160.7 294.885 147.1 295.223 131.214 291.805C115.321 288.384 103.102 282.405 103.951 278.487Z" fill="#070A15" stroke="white" stroke-width="1.5" stroke-linecap="round" stroke-linejoin="round"/>
<path d="M154.283 270.109C154.283 270.109 196.173 218.301 209.479 187.753" stroke="white" stroke-width="1.5" stroke-linecap="round" stroke-linejoin="round"/>
<path d="M131.067 261.9C131.067 261.9 136.064 242.16 136.397 233.25C136.723 224.338 144.892 160.814 149.094 141.433" stroke="white" stroke-width="1.5" stroke-linecap="round" stroke-linejoin="round"/>
<path d="M116.427 262.931C116.427 262.931 108.8 228.384 106.547 219.61C104.294 210.836 95.3757 187.384 96.0657 165.456" stroke="white" stroke-width="1.5" stroke-linecap="round" stroke-linejoin="round"/>
<path d="M174.756 265.406L161.081 277.76" stroke="white" stroke-width="1.5" stroke-linecap="round" stroke-linejoin="round"/>
<path d="M109.781 265.808L99.2049 236.173" stroke="white" stroke-width="1.5" stroke-linecap="round" stroke-linejoin="round"/>
<path d="M104.088 279.854L125.003 306.274" stroke="white" stroke-width="1.5" stroke-linecap="round" stroke-linejoin="round"/>
<path d="M161.173 291.843L125.246 306.243" stroke="white" stroke-width="1.5" stroke-linecap="round" stroke-linejoin="round"/>
<path d="M130.968 276.954C127.077 291.381 124.521 296.262 125.156 306.122" stroke="white" stroke-width="1.5" stroke-linecap="round" stroke-linejoin="round"/>
<path d="M131.606 320.006C133.26 314.208 130.01 307.827 125.126 306.642C119.838 305.329 113.607 309.488 112.985 315.962" stroke="white" stroke-width="1.5" stroke-linecap="round" stroke-linejoin="round"/>
<path d="M164.584 386.432C162.086 399.377 155.176 411.055 145.032 419.477C134.888 427.898 122.138 432.542 108.955 432.616C95.771 432.691 82.9692 428.192 72.7306 419.886C62.4921 411.581 55.4502 399.981 52.8049 387.066C50.1596 374.15 52.0745 360.716 58.2234 349.054C64.3722 337.392 74.3746 328.223 86.5262 323.108C98.6777 317.994 112.227 317.251 124.864 321.007C137.502 324.762 148.447 332.784 155.833 343.704" stroke="white" stroke-width="1.5"/>
<circle cx="115.084" cy="376.477" r="57.7357" transform="rotate(10.9252 115.084 376.477)" fill="#070A15"/>
<path fill-rule="evenodd" clip-rule="evenodd" d="M131.103 322.571C118.631 318.865 105.261 319.598 93.2689 324.645C81.2772 329.692 71.4065 338.74 65.3386 350.249C59.2707 361.758 57.381 375.014 59.9914 387.76C62.6019 400.506 69.5511 411.952 79.6549 420.149C89.7587 428.346 102.392 432.785 115.402 432.712C128.412 432.638 140.995 428.055 151.005 419.745C160.931 411.503 167.72 400.102 170.237 387.455L139.805 381.581L99.3331 394.915C98.4159 395.217 97.5118 394.422 97.6949 393.474L105.431 353.397C105.614 352.449 106.749 352.047 107.488 352.669L140.089 380.108L171.999 386.268L171.715 387.74L171.71 387.739C169.127 400.727 162.157 412.436 151.963 420.899C141.686 429.431 128.768 434.136 115.411 434.211C102.053 434.287 89.0832 429.729 78.7099 421.314C68.3366 412.899 61.2021 401.147 58.522 388.061C55.8418 374.975 57.7819 361.365 64.0117 349.549C70.2415 337.734 80.3755 328.444 92.687 323.262C104.999 318.081 118.726 317.328 131.53 321.133C141.559 324.113 150.535 329.745 157.551 337.363C159.863 336.552 162.414 336.324 164.993 336.822C172.758 338.32 177.838 345.83 176.339 353.595C174.84 361.36 167.33 366.439 159.566 364.94C151.801 363.442 146.721 355.932 148.22 348.167C149.112 343.545 152.135 339.874 156.073 337.976C149.296 330.76 140.693 325.421 131.103 322.571ZM161.664 344.969C160.593 343.386 159.446 341.864 158.229 340.408C154.747 341.759 152.016 344.816 151.256 348.753C150.08 354.841 154.063 360.73 160.152 361.905C166.24 363.08 172.128 359.097 173.303 353.009C174.479 346.92 170.496 341.032 164.407 339.857C162.826 339.552 161.257 339.595 159.781 339.932C160.882 341.279 161.925 342.679 162.906 344.129L161.664 344.969ZM106.828 354.074L138.244 380.516L99.2435 393.365L106.828 354.074Z" fill="white"/>
<circle cx="162.204" cy="350.77" r="13.4741" transform="rotate(10.9252 162.204 350.77)" fill="#070A15" stroke="white" stroke-width="1.5"/>
<defs>
<linearGradient id="paint0_linear_13229_217777" x1="318.421" y1="87.9322" x2="239.079" y2="239.595" gradientUnits="userSpaceOnUse">
<stop stop-color="#EFDA91"/>
<stop offset="1" stop-color="#CDF7F4"/>
</linearGradient>
</defs>
</svg>
