<svg width="35" height="38" viewBox="0 0 35 38" fill="none" xmlns="http://www.w3.org/2000/svg">
<path fill-rule="evenodd" clip-rule="evenodd" d="M16.0357 3.49786C15.9691 3.42902 8.87664 0.0507676 8.73558 0.0207071C8.60587 -0.00693617 8.38542 -0.00689517 8.25492 0.0207871C8.13908 0.0453786 0.989013 3.44553 0.93681 3.50085C0.880816 3.5602 0.886043 3.67676 0.947221 3.73222C0.974125 3.75664 2.64066 4.57727 4.65062 5.55587L8.30508 7.33515L8.4532 7.34436C8.5432 7.34997 8.63307 7.34371 8.68225 7.32841C8.82841 7.28297 15.9877 3.77857 16.0357 3.72899C16.065 3.69866 16.0825 3.65554 16.0825 3.61345C16.0825 3.57138 16.065 3.52822 16.0357 3.49786ZM16.8947 4.77745C16.872 4.74192 16.8228 4.69515 16.7855 4.67349C16.6564 4.59855 16.6014 4.61413 16.0562 4.88041L12.4905 6.62154C9.49251 8.08549 9.27994 8.18437 9.22201 8.33657C9.21533 8.3541 9.21071 8.37234 9.20412 8.39345C9.17743 8.47898 9.17259 9.47829 9.16658 16.1403C9.16004 23.3796 9.1616 23.7917 9.1959 23.8415C9.24748 23.9164 9.34791 23.9607 9.43965 23.949C9.53104 23.9373 16.6863 20.2945 16.7773 20.2133C16.8104 20.1838 16.8596 20.115 16.8867 20.0606L16.9359 19.9615L16.936 12.4017C16.9361 4.89313 16.9358 4.84159 16.8947 4.77745ZM7.96373 8.39155C7.93387 8.3646 6.3071 7.55342 4.34868 6.58895C2.39027 5.62445 0.755127 4.83024 0.715042 4.82403C0.639766 4.81238 0.512058 4.84639 0.451254 4.89424C0.432368 4.90912 0.399862 4.95696 0.379018 5.00055C0.342599 5.07674 0.341121 5.36875 0.340809 12.5305C0.340559 17.6066 0.347326 20.0048 0.362007 20.0551C0.373876 20.0958 0.408963 20.1524 0.43999 20.1809C0.513808 20.2489 7.59697 23.8912 7.68649 23.9072C7.76451 23.9211 7.91677 23.8736 7.96856 23.8191C7.98672 23.8001 8.01597 23.7516 8.03359 23.7115C8.06222 23.6463 8.06562 22.8407 8.06562 16.1152C8.06562 10.5279 8.0595 8.57235 8.04182 8.51619C8.02872 8.4746 7.99357 8.41852 7.96373 8.39155ZM30.8149 10.6539C29.2459 9.8595 27.6697 9.06202 27.3122 8.88171C26.6416 8.54348 26.5654 8.51561 26.4404 8.56295C26.4052 8.57629 24.7748 9.36599 22.8172 10.3178C20.229 11.5764 19.2399 12.0665 19.1916 12.1145C19.0749 12.2306 19.0789 12.416 19.2003 12.5242C19.2321 12.5525 20.8964 13.3579 22.8988 14.3141C26.3111 15.9435 26.5449 16.052 26.6261 16.0432C26.6889 16.0363 27.6469 15.5688 30.1069 14.3445C31.9737 13.4154 33.5415 12.6332 33.5909 12.6062C33.7099 12.5412 33.7612 12.4581 33.7613 12.3304C33.7613 12.303 33.7651 12.2815 33.763 12.2606C33.7503 12.1313 33.5162 12.0216 30.8149 10.6539ZM34.7831 13.5304C34.7714 13.4918 34.734 13.4348 34.6999 13.4038C34.6536 13.3616 34.6126 13.3453 34.538 13.3395C34.4407 13.3319 34.3481 13.3758 30.909 15.0613C28.1807 16.3985 27.3616 16.8083 27.2993 16.8673C27.255 16.9092 27.1986 16.985 27.174 17.0357L27.1292 17.1278L27.1231 24.6776C27.1189 29.9561 27.1237 32.2494 27.1391 32.3003C27.1831 32.4454 27.3769 32.5392 27.5294 32.4892C27.6847 32.4383 34.563 28.9836 34.6301 28.9229C34.6669 28.8895 34.7184 28.8213 34.7446 28.7713L34.7921 28.6804L34.7982 21.1405C34.8024 16.0527 34.7974 13.5778 34.7831 13.5304ZM25.9051 16.9893C25.8773 16.9592 24.4121 16.2426 22.2169 15.1855C20.2138 14.2209 18.5412 13.4268 18.5 13.4209C18.3953 13.4058 18.2496 13.479 18.2013 13.5709C18.1671 13.6361 18.1649 13.8357 18.165 16.89C18.165 20.0812 18.1657 20.141 18.2058 20.2034C18.2282 20.2384 18.282 20.2886 18.3254 20.315C18.3688 20.3414 20.0207 21.1822 21.9963 22.1834C25.2845 23.8498 25.5965 24.0038 25.6857 24.0038C25.791 24.0039 25.865 23.9644 25.941 23.8675C25.9839 23.8128 25.9839 23.8109 25.9894 20.503C25.9931 18.2462 25.9879 17.1687 25.9731 17.1162C25.9611 17.0739 25.9305 17.0168 25.9051 16.9893ZM25.3761 25.0832C25.3669 25.0749 23.6081 24.2023 21.4678 23.144C19.3276 22.0857 17.5659 21.2207 17.5531 21.2219C17.5306 21.2239 9.84781 25.026 9.82796 25.0449C9.82263 25.05 11.5607 25.9221 13.6903 26.983L17.5623 28.9119L21.4777 27.005C23.6311 25.9562 25.3854 25.0914 25.3761 25.0832ZM16.7259 29.7968C16.687 29.7672 13.0009 27.8966 8.53449 25.6399C3.75803 23.2266 0.392222 21.5371 0.361403 21.5376C0.266262 21.539 0.173661 21.5914 0.143071 21.6611C0.118855 21.7162 0.111755 22.2861 0.100094 25.1146L0.0861206 28.5021L0.145488 28.6101C0.178159 28.6695 0.237671 28.7417 0.277756 28.7707C0.317841 28.7996 4.00958 30.6769 8.4816 32.9424C15.1136 36.3022 16.6269 37.0616 16.6902 37.0616C16.7765 37.0616 16.8694 37.0068 16.9101 36.9318C16.9304 36.8943 16.9349 36.1588 16.9309 33.4758L16.9259 30.0675L16.8612 29.959C16.8256 29.8994 16.7647 29.8263 16.7259 29.7968ZM25.9006 26.305C25.8809 26.2947 25.8572 26.2915 25.8286 26.2778C25.7359 26.2333 25.7087 26.2291 25.6299 26.2475C25.5437 26.2675 18.3805 29.8324 18.3126 29.889C18.2736 29.9216 18.2245 29.984 18.2037 30.0277C18.1675 30.1036 18.1658 30.2613 18.1656 33.5155C18.1655 36.2028 18.171 36.9341 18.1915 36.9727C18.2362 37.0568 18.3506 37.1169 18.446 37.1064C18.5044 37.0999 19.6017 36.562 22.1212 35.3045C25.6406 33.548 25.8517 33.4476 25.9229 33.29C25.9303 33.2736 25.9362 33.2567 25.9441 33.2372C25.9827 33.142 25.9841 33.0356 25.9893 29.8C25.9944 26.6188 26.0062 26.3601 25.9006 26.305Z" fill="white"/>
</svg>
