<svg width="65" height="67" viewBox="0 0 65 67" fill="none" xmlns="http://www.w3.org/2000/svg">
<circle cx="32.5" cy="33.2" r="32.5" fill="#C4C4C4"/>
<circle cx="32.5" cy="33.2" r="32.5" fill="url(#paint0_linear_13220_228540)"/>
<path fill-rule="evenodd" clip-rule="evenodd" d="M29.5941 16.7145C33.3662 16.2179 37.1968 16.9798 40.4917 18.8821C41.4882 19.4574 42.7623 19.116 43.3376 18.1196C43.9129 17.1231 43.5715 15.849 42.5751 15.2737C38.4858 12.9127 33.7318 11.9671 29.0503 12.5834C24.3688 13.1998 20.0215 15.3436 16.6827 18.6825C13.3438 22.0213 11.2 26.3686 10.5836 31.0501C9.9673 35.7316 10.9129 40.4856 13.2739 44.5749C15.6348 48.6641 19.2791 51.8601 23.6415 53.6671C28.004 55.4741 32.8408 55.7911 37.4017 54.569C41.9627 53.3469 45.993 50.6539 48.8675 46.9078C51.742 43.1617 53.3 38.5718 53.3 33.8499C53.3 32.7652 52.4711 31.8742 51.4122 31.7756C51.1612 31.6684 50.8849 31.6091 50.5947 31.6091L41.6985 31.6091L28.7208 24.3678C27.0086 23.4124 24.9005 24.6502 24.9005 26.6108V40.774C24.9005 42.7347 27.0086 43.9724 28.7208 43.0171L41.6985 35.7758L49.0258 35.7758C48.6765 38.8907 47.4847 41.8653 45.5618 44.3713C43.2457 47.3897 39.9983 49.5596 36.3233 50.5443C32.6483 51.529 28.7511 51.2735 25.236 49.8176C21.721 48.3616 18.7846 45.7865 16.8823 42.4915C14.98 39.1966 14.218 35.3661 14.7146 31.594C15.2112 27.8219 16.9387 24.319 19.6289 21.6288C22.3192 18.9385 25.8221 17.2111 29.5941 16.7145ZM29.0672 29.3325L36.881 33.6924L29.0672 38.0524L29.0672 29.3325Z" fill="white"/>
<defs>
<linearGradient id="paint0_linear_13220_228540" x1="32.5" y1="0.699951" x2="32.5" y2="65.7" gradientUnits="userSpaceOnUse">
<stop stop-color="#009CE1"/>
<stop offset="1" stop-color="#1C77FF"/>
</linearGradient>
</defs>
</svg>
