<svg width="65" height="65" viewBox="0 0 65 65" fill="none" xmlns="http://www.w3.org/2000/svg">
<circle cx="32.5" cy="32.5" r="32.5" fill="#C4C4C4"/>
<circle cx="32.5" cy="32.5" r="32.5" fill="url(#paint0_linear_13841_827)"/>
<circle cx="32.5" cy="32.5" r="32.5" fill="url(#paint1_linear_13841_827)"/>
<path d="M41.1588 30.7342L29.9047 24.4546C28.5568 23.7026 26.8973 24.677 26.8973 26.2204L26.8973 38.7796C26.8973 40.323 28.5569 41.2974 29.9047 40.5454L41.1588 34.2658C42.5412 33.4944 42.5412 31.5056 41.1588 30.7342Z" stroke="white" stroke-width="4.16667"/>
<path d="M51.0038 37.4567C50.0787 40.9091 48.2059 44.0338 45.5971 46.4771C42.9884 48.9205 39.748 50.5849 36.2424 51.2822C32.7368 51.9796 29.106 51.6818 25.7609 50.4228C22.4157 49.1638 19.4897 46.9937 17.3138 44.158C15.1379 41.3224 13.7991 37.9344 13.4487 34.3773C13.0984 30.8203 13.7506 27.2362 15.3314 24.0305C16.9123 20.8249 19.3587 18.1256 22.394 16.2382C25.4292 14.3507 28.9322 13.3504 32.5064 13.3504" stroke="white" stroke-width="4.16667" stroke-linecap="round" stroke-linejoin="round"/>
<defs>
<linearGradient id="paint0_linear_13841_827" x1="32.5" y1="0" x2="32.5" y2="65" gradientUnits="userSpaceOnUse">
<stop stop-color="#009CE1"/>
<stop offset="1" stop-color="#1C77FF"/>
</linearGradient>
<linearGradient id="paint1_linear_13841_827" x1="32.5" y1="0" x2="32.5" y2="65" gradientUnits="userSpaceOnUse">
<stop stop-color="#29D98F"/>
<stop offset="1" stop-color="#0BB870"/>
</linearGradient>
</defs>
</svg>
