<svg width="80" height="80" viewBox="0 0 80 80" fill="none" xmlns="http://www.w3.org/2000/svg">
<rect width="80" height="80" rx="40" fill="black"/>
<rect width="80" height="80" rx="40" fill="url(#paint0_radial_13272_216914)"/>
<path fill-rule="evenodd" clip-rule="evenodd" d="M41.7474 22.259C37.6429 21.8547 33.5252 22.8861 30.0959 25.1775C26.6666 27.4689 24.138 30.8784 22.9407 34.8252C21.7435 38.772 21.9518 43.0117 23.5301 46.8222C25.1084 50.6326 27.9591 53.7778 31.5965 55.7221C35.2338 57.6663 39.4328 58.2891 43.4779 57.4845C47.523 56.6799 51.164 54.4976 53.7805 51.3094C56.0246 48.5749 57.396 45.2455 57.7408 41.751H49.8878L36.9657 48.9613C35.2681 49.9085 33.178 48.6813 33.178 46.7374L33.178 32.9445C33.178 31.0006 35.2681 29.7734 36.9657 30.7206L49.8878 37.9309H61.649V41.751H61.5762C61.2208 46.1309 59.5387 50.3146 56.7334 53.7328C53.5563 57.6042 49.1351 60.2541 44.2232 61.2312C39.3113 62.2082 34.2125 61.4519 29.7957 59.091C25.3789 56.7302 21.9174 52.911 20.0008 48.284C18.0843 43.6571 17.8314 38.5088 19.2851 33.7163C20.7389 28.9238 23.8095 24.7836 27.9736 22.0012C32.1377 19.2189 37.1378 17.9664 42.1218 18.4573C46.0741 18.8466 49.8223 20.3129 52.9707 22.6692C53.8316 22.1521 54.8395 21.8548 55.9169 21.8548C59.0815 21.8548 61.647 24.4202 61.647 27.5849C61.647 30.7495 59.0815 33.315 55.9169 33.315C52.7523 33.315 50.1868 30.7495 50.1868 27.5849C50.1868 26.8938 50.3092 26.2313 50.5334 25.6178C47.9716 23.7416 44.9403 22.5734 41.7474 22.259ZM55.9169 29.4949C56.9718 29.4949 57.8269 28.6398 57.8269 27.5849C57.8269 26.53 56.9718 25.6748 55.9169 25.6748C54.862 25.6748 54.0069 26.53 54.0069 27.5849C54.0069 28.6398 54.862 29.4949 55.9169 29.4949ZM36.9981 35.1132L45.471 39.8409L36.9981 44.5687V35.1132Z" fill="white"/>
<defs>
<radialGradient id="paint0_radial_13272_216914" cx="0" cy="0" r="1" gradientUnits="userSpaceOnUse" gradientTransform="translate(40) rotate(90) scale(80)">
<stop stop-color="#1CFFF1"/>
<stop offset="1" stop-color="#1549FF"/>
</radialGradient>
</defs>
</svg>
