<svg width="93" height="92" viewBox="0 0 93 92" fill="none" xmlns="http://www.w3.org/2000/svg">
<path fill-rule="evenodd" clip-rule="evenodd" d="M49.713 8.30012C40.991 7.44107 32.2409 9.63285 24.9537 14.502C17.6664 19.3712 12.293 26.6165 9.74884 35.0033C7.20471 43.3902 7.64732 52.3998 11.0013 60.4969C14.3552 68.594 20.4129 75.2777 28.1423 79.4092C35.8717 83.5406 44.7945 84.8642 53.3904 83.1544C61.9863 81.4445 69.7233 76.8071 75.2833 70.0322C80.0522 64.2214 82.9664 57.1464 83.6991 49.7205H67.0115L39.5519 65.0424C35.9447 67.0552 31.5032 64.4474 31.5032 60.3166V31.0068C31.5032 26.876 35.9446 24.2682 39.5519 26.281L67.0115 41.6029H92.004V49.7205H91.8492C91.0941 59.0279 87.5195 67.9183 81.5583 75.182C74.8069 83.4086 65.4119 89.0398 54.9741 91.116C44.5362 93.1922 33.7014 91.585 24.3157 86.5683C14.93 81.5515 7.57419 73.4356 3.50155 63.6034C-0.571093 53.7712 -1.10855 42.831 1.98075 32.6469C5.07005 22.4629 11.595 13.665 20.4437 7.75246C29.2925 1.8399 39.9176 -0.821555 50.5087 0.221574C58.9072 1.04875 66.8722 4.16484 73.5625 9.17196C75.392 8.07307 77.5339 7.44119 79.8234 7.44119C86.5482 7.44119 91.9998 12.8928 91.9998 19.6176C91.9998 26.3425 86.5482 31.7941 79.8234 31.7941C73.0985 31.7941 67.6469 26.3425 67.6469 19.6176C67.6469 18.1491 67.9069 16.7413 68.3833 15.4377C62.9395 11.4507 56.498 8.96838 49.713 8.30012ZM79.8234 23.6765C82.065 23.6765 83.8822 21.8593 83.8822 19.6176C83.8822 17.376 82.065 15.5588 79.8234 15.5588C77.5818 15.5588 75.7646 17.376 75.7646 19.6176C75.7646 21.8593 77.5818 23.6765 79.8234 23.6765ZM39.6208 35.6152L57.6258 45.6617L39.6208 55.7082V35.6152Z" fill="#000000"/>
<path fill-rule="evenodd" clip-rule="evenodd" d="M49.713 8.30012C40.991 7.44107 32.2409 9.63285 24.9537 14.502C17.6664 19.3712 12.293 26.6165 9.74884 35.0033C7.20471 43.3902 7.64732 52.3998 11.0013 60.4969C14.3552 68.594 20.4129 75.2777 28.1423 79.4092C35.8717 83.5406 44.7945 84.8642 53.3904 83.1544C61.9863 81.4445 69.7233 76.8071 75.2833 70.0322C80.0522 64.2214 82.9664 57.1464 83.6991 49.7205H67.0115L39.5519 65.0424C35.9447 67.0552 31.5032 64.4474 31.5032 60.3166V31.0068C31.5032 26.876 35.9446 24.2682 39.5519 26.281L67.0115 41.6029H92.004V49.7205H91.8492C91.0941 59.0279 87.5195 67.9183 81.5583 75.182C74.8069 83.4086 65.4119 89.0398 54.9741 91.116C44.5362 93.1922 33.7014 91.585 24.3157 86.5683C14.93 81.5515 7.57419 73.4356 3.50155 63.6034C-0.571093 53.7712 -1.10855 42.831 1.98075 32.6469C5.07005 22.4629 11.595 13.665 20.4437 7.75246C29.2925 1.8399 39.9176 -0.821555 50.5087 0.221574C58.9072 1.04875 66.8722 4.16484 73.5625 9.17196C75.392 8.07307 77.5339 7.44119 79.8234 7.44119C86.5482 7.44119 91.9998 12.8928 91.9998 19.6176C91.9998 26.3425 86.5482 31.7941 79.8234 31.7941C73.0985 31.7941 67.6469 26.3425 67.6469 19.6176C67.6469 18.1491 67.9069 16.7413 68.3833 15.4377C62.9395 11.4507 56.498 8.96838 49.713 8.30012ZM79.8234 23.6765C82.065 23.6765 83.8822 21.8593 83.8822 19.6176C83.8822 17.376 82.065 15.5588 79.8234 15.5588C77.5818 15.5588 75.7646 17.376 75.7646 19.6176C75.7646 21.8593 77.5818 23.6765 79.8234 23.6765ZM39.6208 35.6152L57.6258 45.6617L39.6208 55.7082V35.6152Z" fill="#000000"/>
</svg>
