<svg width="387" height="387" viewBox="0 0 387 387" fill="none" xmlns="http://www.w3.org/2000/svg">
<path d="M193.659 75.9599C129.354 75.9599 77.2485 128.066 77.2485 192.446C77.2485 256.826 129.354 308.932 193.599 308.932C257.843 308.932 310.008 256.766 310.008 192.446C310.008 128.126 257.904 75.9599 193.659 75.9599ZM193.659 265.49C179.235 265.49 165.112 261.218 153.092 253.156C141.073 245.153 131.757 233.721 126.229 220.364C120.699 207.006 119.257 192.325 122.082 178.126C124.906 163.926 131.878 150.93 142.034 140.701C152.251 130.473 165.232 123.493 179.415 120.725C193.599 117.897 208.262 119.341 221.604 124.877C234.946 130.413 246.364 139.798 254.358 151.772C262.351 163.806 266.678 177.945 266.678 192.386C266.678 211.76 258.985 230.352 245.283 244.07C231.58 257.788 213.01 265.49 193.659 265.49ZM198.767 76.8025C196.664 91.0018 194.56 105.202 192.456 119.402L198.767 76.8025ZM171.362 122.29C177.552 106.826 183.802 91.3028 189.992 75.7793L171.362 122.29Z" fill="#070A15"/>
<path d="M198.526 77.4039L181.639 119.822M77.2485 192.446C77.2485 128.066 129.354 75.9599 193.659 75.9599C257.904 75.9599 310.008 128.126 310.008 192.446C310.008 256.766 257.843 308.932 193.599 308.932C129.354 308.932 77.2485 256.826 77.2485 192.446ZM77.2485 192.446H120.639M147.022 85.6472L165.653 124.576M161.566 80.5326L153.814 99.3655M158.08 108.993L171.602 78.066M180.978 76.622L163.609 119.402M193.659 265.49C179.235 265.49 165.112 261.218 153.092 253.156C141.073 245.153 131.757 233.721 126.229 220.364C120.699 207.006 119.257 192.325 122.082 178.126C124.906 163.926 131.878 150.93 142.034 140.701C152.251 130.473 165.232 123.493 179.415 120.725C193.599 117.897 208.262 119.341 221.604 124.877C234.946 130.413 246.364 139.798 254.358 151.772C262.351 163.806 266.678 177.945 266.678 192.386C266.678 211.76 258.985 230.352 245.283 244.07C231.58 257.788 213.01 265.49 193.659 265.49ZM198.767 76.8025C196.664 91.0018 194.56 105.202 192.456 119.402L198.767 76.8025ZM171.362 122.29C177.552 106.826 183.802 91.3028 189.992 75.7793L171.362 122.29Z" stroke="white" stroke-width="1.5" stroke-linecap="round" stroke-linejoin="round"/>
<path d="M93.1365 287.715C78.8579 272.43 68.2386 254.094 62.0818 234.094C55.9251 214.095 54.3922 192.955 57.5992 172.275C60.8062 151.594 68.6691 131.915 80.593 114.726C92.5168 97.5366 108.189 83.2875 126.425 73.0566L152.59 119.802C141.435 126.06 131.848 134.777 124.554 145.292C117.26 155.807 112.45 167.845 110.488 180.496C108.526 193.146 109.464 206.078 113.23 218.312C116.996 230.546 123.492 241.762 132.227 251.112L93.1365 287.715Z" fill="#C4C4C4"/>
<path d="M93.1365 287.715C78.8579 272.43 68.2386 254.094 62.0818 234.094C55.9251 214.095 54.3922 192.955 57.5992 172.275C60.8062 151.594 68.6691 131.915 80.593 114.726C92.5168 97.5366 108.189 83.2875 126.425 73.0566L152.59 119.802C141.435 126.06 131.848 134.777 124.554 145.292C117.26 155.807 112.45 167.845 110.488 180.496C108.526 193.146 109.464 206.078 113.23 218.312C116.996 230.546 123.492 241.762 132.227 251.112L93.1365 287.715Z" fill="url(#paint0_linear_13669_200390)"/>
<defs>
<linearGradient id="paint0_linear_13669_200390" x1="111.732" y1="304.775" x2="276.251" y2="83.5883" gradientUnits="userSpaceOnUse">
<stop stop-color="#EED991"/>
<stop offset="1" stop-color="#CCF7F4"/>
</linearGradient>
</defs>
</svg>
