<svg width="433" height="360" viewBox="0 0 433 360" fill="none" xmlns="http://www.w3.org/2000/svg">
<path d="M42 80H381V304H42V80Z" fill="url(#paint0_linear_13668_200389)" stroke="white" stroke-width="1.5"/>
<path d="M70.5634 101.659H35.3459V289.505H70.5634V101.659Z" fill="#070A15" stroke="white" stroke-width="1.5" stroke-linecap="round" stroke-linejoin="round"/>
<path d="M47.0048 116.402V227.534" stroke="white" stroke-width="1.5" stroke-linecap="round" stroke-linejoin="round"/>
<path d="M59.8047 148.412C58.7231 149.495 59.8047 289.148 59.8047 289.148V148.412Z" fill="#232323"/>
<path d="M59.8047 148.412C58.7231 149.495 59.8047 289.148 59.8047 289.148" stroke="white" stroke-width="1.5" stroke-linecap="round" stroke-linejoin="round"/>
<path d="M30.8356 289.505H75.0678C75.7887 289.505 76.45 289.625 77.1108 289.929C77.7721 290.226 78.3733 290.59 78.8537 291.067C79.3346 291.55 79.7555 292.151 79.996 292.813C80.296 293.474 80.4162 294.136 80.4162 294.857V303.403H25.4265V294.857C25.4265 293.415 26.0277 292.092 26.9891 291.067C28.0713 290.107 29.3933 289.505 30.8356 289.505Z" fill="#070A15" stroke="white" stroke-width="1.5" stroke-linecap="round" stroke-linejoin="round"/>
<path d="M81.9222 80.4821C81.2615 80.3015 80.6002 80.1209 79.8787 80.0005C78.4364 79.82 76.994 79.82 75.5517 80.0005H23.327C21.7043 80.8426 16.8362 83.7313 15.0933 89.4471C14.2516 92.2147 14.3117 95.1027 15.2136 97.8102C16.1148 100.518 17.8577 102.864 20.2018 104.549C22.5454 106.234 25.3098 107.136 28.1944 107.136C31.0791 107.136 33.8441 106.234 36.1876 104.549H69.7223C71.345 105.692 73.148 106.475 75.0713 106.896C76.994 107.257 78.9775 107.257 80.9008 106.776C82.8241 106.294 84.6265 105.452 86.129 104.188C87.6314 102.925 88.9535 101.42 89.8553 99.6755C90.7565 97.9305 91.2375 96.0056 91.2976 94.0199C91.3577 92.0341 90.997 90.1086 90.2761 88.2438C89.4946 86.4387 88.3529 84.8141 86.9105 83.4303C85.4682 82.1067 83.7854 81.1436 81.9222 80.4821Z" fill="#070A15" stroke="white" stroke-width="1.5" stroke-linecap="round" stroke-linejoin="round"/>
<path d="M27.9546 100.156C31.6202 100.156 34.565 97.2078 34.565 93.5373C34.565 89.8674 31.6202 86.9192 27.9546 86.9192C24.2884 86.9192 21.3436 89.8674 21.3436 93.5373C21.3436 97.2078 24.3485 100.156 27.9546 100.156Z" fill="#070A15" stroke="white" stroke-width="1.5" stroke-linecap="round" stroke-linejoin="round"/>
<path d="M78.1334 100.156C81.799 100.156 84.7438 97.2078 84.7438 93.5373C84.7438 89.8674 81.799 86.9192 78.1334 86.9192C74.4672 86.9192 71.5224 89.8674 71.5224 93.5373C71.5224 97.2078 74.4672 100.156 78.1334 100.156Z" fill="#070A15" stroke="white" stroke-width="1.5" stroke-linecap="round" stroke-linejoin="round"/>
<path d="M152.175 101.659H116.958V289.505H152.175V101.659Z" fill="#070A15" stroke="white" stroke-width="1.5" stroke-linecap="round" stroke-linejoin="round"/>
<path d="M128.616 116.402V227.534" stroke="white" stroke-width="1.5" stroke-linecap="round" stroke-linejoin="round"/>
<path d="M141.477 148.412C140.395 149.495 141.477 289.148 141.477 289.148V148.412Z" fill="#232323"/>
<path d="M141.477 148.412C140.395 149.495 141.477 289.148 141.477 289.148" stroke="white" stroke-width="1.5" stroke-linecap="round" stroke-linejoin="round"/>
<path d="M112.451 289.505H156.684C157.405 289.505 158.066 289.625 158.727 289.929C159.388 290.226 159.989 290.59 160.47 291.067C160.95 291.55 161.371 292.151 161.612 292.813C161.852 293.474 162.033 294.136 162.033 294.857V303.403H107.043V294.857C107.043 293.415 107.644 292.092 108.605 291.067C109.687 290.107 111.009 289.505 112.451 289.505Z" fill="#070A15" stroke="white" stroke-width="1.5" stroke-linecap="round" stroke-linejoin="round"/>
<path d="M163.534 80.4821C162.873 80.3015 162.212 80.1209 161.49 80.0005C160.048 79.82 158.606 79.82 157.163 80.0005H104.938C103.315 80.8426 98.4474 83.7914 96.7044 89.4471C95.8633 92.2147 95.9234 95.1027 96.8247 97.8102C97.7265 100.518 99.4694 102.864 101.813 104.549C104.157 106.234 106.922 107.136 109.806 107.136C112.691 107.136 115.455 106.234 117.799 104.549H151.394C153.017 105.692 154.819 106.475 156.743 106.896C158.666 107.257 160.649 107.257 162.572 106.776C164.495 106.294 166.298 105.452 167.801 104.188C169.363 102.985 170.625 101.42 171.527 99.6755C172.428 97.9305 172.909 96.0056 172.969 94.0199C173.029 92.0341 172.669 90.1086 171.947 88.2438C171.166 86.4387 170.024 84.8141 168.582 83.4303C167.139 82.1067 165.397 81.1436 163.534 80.4821Z" fill="#070A15" stroke="white" stroke-width="1.5" stroke-linecap="round" stroke-linejoin="round"/>
<path d="M109.626 100.156C113.292 100.156 116.237 97.2078 116.237 93.5373C116.237 89.8674 113.292 86.9192 109.626 86.9192C105.96 86.9192 103.015 89.8674 103.015 93.5373C103.015 97.2078 105.96 100.156 109.626 100.156Z" fill="#070A15" stroke="white" stroke-width="1.5" stroke-linecap="round" stroke-linejoin="round"/>
<path d="M159.749 100.156C163.415 100.156 166.36 97.2078 166.36 93.5373C166.36 89.8674 163.415 86.9192 159.749 86.9192C156.083 86.9192 153.138 89.8674 153.138 93.5373C153.138 97.2078 156.143 100.156 159.749 100.156Z" fill="#070A15" stroke="white" stroke-width="1.5" stroke-linecap="round" stroke-linejoin="round"/>
<path d="M233.847 101.659H198.629V289.505H233.847V101.659Z" fill="#070A15" stroke="white" stroke-width="1.5" stroke-linecap="round" stroke-linejoin="round"/>
<path d="M210.288 116.402V227.534" stroke="white" stroke-width="1.5" stroke-linecap="round" stroke-linejoin="round"/>
<path d="M223.093 148.412C222.011 149.495 223.093 289.148 223.093 289.148V148.412Z" fill="#232323"/>
<path d="M223.093 148.412C222.011 149.495 223.093 289.148 223.093 289.148" stroke="white" stroke-width="1.5" stroke-linecap="round" stroke-linejoin="round"/>
<path d="M194.063 289.505H238.295C239.017 289.505 239.678 289.625 240.339 289.929C241 290.226 241.601 290.59 242.082 291.067C242.563 291.55 242.983 292.151 243.223 292.813C243.464 293.474 243.644 294.136 243.644 294.857V303.403H188.715V294.857C188.715 294.136 188.835 293.474 189.136 292.813C189.436 292.151 189.796 291.55 190.277 291.067C190.758 290.59 191.359 290.167 192.02 289.929C192.681 289.625 193.402 289.505 194.063 289.505Z" fill="#070A15" stroke="white" stroke-width="1.5" stroke-linecap="round" stroke-linejoin="round"/>
<path d="M245.146 80.4821C244.484 80.3015 243.824 80.1209 243.162 80.0005C241.72 79.82 240.278 79.82 238.835 80.0005H186.61C184.987 80.8426 180.119 83.7313 178.377 89.4471C177.535 92.2147 177.595 95.1027 178.497 97.8102C179.398 100.518 181.141 102.864 183.485 104.549C185.829 106.234 188.593 107.136 191.478 107.136C194.363 107.136 197.127 106.234 199.471 104.549H233.066C234.689 105.692 236.492 106.475 238.414 106.896C240.338 107.257 242.321 107.257 244.244 106.776C246.167 106.294 247.97 105.452 249.475 104.188C251.035 102.985 252.297 101.42 253.201 99.6755C254.1 97.9305 254.582 96.0056 254.642 94.0199C254.701 92.0341 254.338 90.1086 253.618 88.2438C252.838 86.4387 251.695 84.8141 250.255 83.4303C248.749 82.1067 247.009 81.1436 245.146 80.4821Z" fill="#070A15" stroke="white" stroke-width="1.5" stroke-linecap="round" stroke-linejoin="round"/>
<path d="M193.762 99.6154C197.128 98.2316 198.751 94.3805 197.308 91.0116C195.926 87.642 192.08 86.0174 188.714 87.4614C185.349 88.8453 183.726 92.6958 185.169 96.0653C186.551 99.4349 190.397 101.059 193.762 99.6154Z" fill="#070A15" stroke="white" stroke-width="1.5" stroke-linecap="round" stroke-linejoin="round"/>
<path d="M241.421 100.156C245.087 100.156 248.032 97.2078 248.032 93.5373C248.032 89.8674 245.087 86.9192 241.421 86.9192C237.755 86.9192 234.81 89.8674 234.81 93.5373C234.81 97.2078 237.755 100.156 241.421 100.156Z" fill="#070A15" stroke="white" stroke-width="1.5" stroke-linecap="round" stroke-linejoin="round"/>
<path d="M315.466 101.659H280.244V289.505H315.466V101.659Z" fill="#070A15" stroke="white" stroke-width="1.5" stroke-linecap="round" stroke-linejoin="round"/>
<path d="M291.905 116.402V227.534" stroke="white" stroke-width="1.5" stroke-linecap="round" stroke-linejoin="round"/>
<path d="M304.703 148.412C303.62 149.495 304.703 289.148 304.703 289.148V148.412Z" fill="#232323"/>
<path d="M304.703 148.412C303.62 149.495 304.703 289.148 304.703 289.148" stroke="white" stroke-width="1.5" stroke-linecap="round" stroke-linejoin="round"/>
<path d="M275.732 289.505H319.966C320.686 289.505 321.347 289.625 322.008 289.929C322.674 290.226 323.27 290.59 323.752 291.067C324.234 291.55 324.657 292.151 324.895 292.813C325.198 293.474 325.317 294.136 325.317 294.857V303.403H270.327V294.857C270.327 293.415 270.928 292.092 271.887 291.067C272.91 290.107 274.291 289.505 275.732 289.505Z" fill="#070A15" stroke="white" stroke-width="1.5" stroke-linecap="round" stroke-linejoin="round"/>
<path d="M326.823 80.4821C326.163 80.3015 325.502 80.1209 324.841 80.0005C323.395 79.82 321.954 79.82 320.514 80.0005H268.285C266.666 80.8426 261.797 83.7313 260.053 89.4471C259.213 92.2147 259.273 95.1027 260.172 97.8102C261.077 100.518 262.815 102.864 265.16 104.549C267.505 106.234 270.268 107.136 273.155 107.136C276.042 107.136 278.804 106.234 281.149 104.549H314.74C316.365 105.692 318.168 106.475 320.091 106.896C322.014 107.257 323.996 107.257 325.919 106.776C327.841 106.294 329.645 105.452 331.151 104.188C332.651 102.925 333.972 101.42 334.877 99.6755C335.776 97.9305 336.258 96.0056 336.318 94.0199C336.377 92.0341 336.014 90.1086 335.294 88.2438C334.514 86.4387 333.371 84.8141 331.931 83.4303C330.365 82.1067 328.687 81.1436 326.823 80.4821Z" fill="#070A15" stroke="white" stroke-width="1.5" stroke-linecap="round" stroke-linejoin="round"/>
<path d="M272.851 100.156C276.518 100.156 279.464 97.2078 279.464 93.5373C279.464 89.8674 276.518 86.9192 272.851 86.9192C269.19 86.9192 266.244 89.8674 266.244 93.5373C266.244 97.2078 269.25 100.156 272.851 100.156Z" fill="#070A15" stroke="white" stroke-width="1.5" stroke-linecap="round" stroke-linejoin="round"/>
<path d="M323.031 100.156C326.698 100.156 329.645 97.2078 329.645 93.5373C329.645 89.8674 326.698 86.9192 323.031 86.9192C319.365 86.9192 316.424 89.8674 316.424 93.5373C316.424 97.2078 319.365 100.156 323.031 100.156Z" fill="#070A15" stroke="white" stroke-width="1.5" stroke-linecap="round" stroke-linejoin="round"/>
<path d="M397.076 101.659H361.854V289.505H397.076V101.659Z" fill="#070A15" stroke="white" stroke-width="1.5" stroke-linecap="round" stroke-linejoin="round"/>
<path d="M373.516 116.402V227.534" stroke="white" stroke-width="1.5" stroke-linecap="round" stroke-linejoin="round"/>
<path d="M386.314 148.412C385.237 149.495 386.314 289.148 386.314 289.148V148.412Z" fill="#232323"/>
<path d="M386.314 148.412C385.237 149.495 386.314 289.148 386.314 289.148" stroke="white" stroke-width="1.5" stroke-linecap="round" stroke-linejoin="round"/>
<path d="M357.349 289.505H401.583C402.303 289.505 402.964 289.625 403.624 289.929C404.285 290.226 404.886 290.59 405.368 291.067C405.851 291.55 406.273 292.151 406.511 292.813C406.809 293.474 406.934 294.136 406.934 294.857V303.403H351.944V294.857C351.944 293.415 352.545 292.092 353.503 291.067C354.468 290.048 355.908 289.505 357.349 289.505Z" fill="#070A15" stroke="white" stroke-width="1.5" stroke-linecap="round" stroke-linejoin="round"/>
<path d="M408.434 80.4821C407.773 80.2413 407.112 80.1209 406.451 80.0005C405.005 79.82 403.565 79.82 402.124 80.0005H349.896C348.276 80.8426 343.407 83.7313 341.663 89.4471C340.824 92.2147 340.883 95.1027 341.782 97.8101C342.687 100.518 344.431 102.864 346.77 104.549C349.116 106.234 351.884 107.136 354.765 107.136C357.652 107.136 360.414 106.234 362.759 104.549H396.356C397.975 105.692 399.779 106.475 401.701 106.896C403.624 107.317 405.606 107.257 407.529 106.775C409.458 106.294 411.255 105.452 412.761 104.188C414.321 102.985 415.583 101.42 416.488 99.6153C417.386 97.8703 417.869 95.8852 417.928 93.9597C417.988 91.9739 417.631 89.9882 416.904 88.1836C416.125 86.3785 414.982 84.7539 413.541 83.3701C412.041 82.1067 410.297 81.1436 408.434 80.4821Z" fill="#070A15" stroke="white" stroke-width="1.5" stroke-linecap="round" stroke-linejoin="round"/>
<path d="M354.467 100.156C358.128 100.156 361.075 97.2078 361.075 93.5373C361.075 89.8674 358.128 86.9192 354.467 86.9192C350.8 86.9192 347.854 89.8674 347.854 93.5373C347.854 97.2078 350.86 100.156 354.467 100.156Z" fill="#070A15" stroke="white" stroke-width="1.5" stroke-linecap="round" stroke-linejoin="round"/>
<path d="M404.648 100.156C408.315 100.156 411.261 97.2078 411.261 93.5373C411.261 89.8674 408.315 86.9192 404.648 86.9192C400.981 86.9192 398.041 89.8674 398.041 93.5373C398.041 97.2078 401.041 100.156 404.648 100.156Z" fill="#070A15" stroke="white" stroke-width="1.5" stroke-linecap="round" stroke-linejoin="round"/>
<path d="M409.934 54.3696H218.764H23.3246V80.0012H409.994V54.3696H409.934Z" stroke="white" stroke-width="1.5" stroke-linecap="round" stroke-linejoin="round"/>
<path d="M28.8558 303.403H404.41C405.791 303.403 407.112 303.946 408.077 304.911C409.035 305.871 409.577 307.194 409.577 308.582V326.932H23.6871V308.582C23.6871 307.921 23.8074 307.259 24.108 306.592C24.3485 305.99 24.7693 305.394 25.2497 304.911C25.7307 304.428 26.3319 304.065 26.9325 303.767C27.5337 303.528 28.195 303.403 28.8558 303.403Z" stroke="white" stroke-width="1.5" stroke-linecap="round" stroke-linejoin="round"/>
<path d="M23.0246 326.932H410.237C413.059 326.932 415.827 327.474 418.47 328.559C421.053 329.637 423.458 331.205 425.44 333.249C427.423 335.233 429.048 337.641 430.131 340.228C431.209 342.814 431.75 345.645 431.75 348.47V359H1.5094V348.47C1.5094 345.645 2.04991 342.814 3.13209 340.228C4.21368 337.641 5.77625 335.233 7.81978 333.249C9.8026 331.264 12.2069 329.637 14.7909 328.559C17.3749 327.474 20.1994 326.932 23.0246 326.932Z" stroke="white" stroke-width="1.5" stroke-linecap="round" stroke-linejoin="round"/>
<path d="M216.602 33.0083H149.232L182.947 17.0032L216.662 0.998779L250.38 17.0032L284.089 33.0083H216.602Z" stroke="white" stroke-width="1.5" stroke-linecap="round" stroke-linejoin="round"/>
<path d="M26.3319 314.113H406.934C408.434 314.113 409.88 314.715 410.958 315.799C412.041 316.884 412.642 318.326 412.642 319.828V326.872H20.6227V319.828C20.6227 318.326 21.224 316.884 22.3056 315.799C23.327 314.715 24.7693 314.113 26.3319 314.113Z" stroke="white" stroke-width="1.5" stroke-linecap="round" stroke-linejoin="round"/>
<path d="M169.425 33.0078L216.662 4.90894C233.729 14.536 250.737 23.5612 267.803 33.1884C234.992 32.9476 202.238 33.2486 169.425 33.0078Z" stroke="white" stroke-width="1.5" stroke-linecap="round" stroke-linejoin="round"/>
<defs>
<linearGradient id="paint0_linear_13668_200389" x1="41.5529" y1="192.654" x2="380.262" y2="191.256" gradientUnits="userSpaceOnUse">
<stop stop-color="#EED991"/>
<stop offset="1" stop-color="#CCF7F4"/>
</linearGradient>
</defs>
</svg>
