<svg width="318" height="194" viewBox="0 0 318 194" fill="none" xmlns="http://www.w3.org/2000/svg">
<path d="M52.2645 59.1994C70.9101 45.8219 95.7249 45.9031 114.774 59.4428C115.585 51.9028 118.018 39.9033 125.88 28.4708C145.989 -0.879678 183.364 0.742537 189.451 0.985867C197.803 1.3095 211.583 1.63393 224.963 11.6875C245.963 27.4172 250.741 53.9297 251.633 59.4428C266.064 53.6864 282.366 58.7939 291.449 71.8478C300.852 85.3072 300.363 104.198 290.228 117.252C305.711 123.981 316.095 138.981 316.255 155.115C316.416 166.79 311.308 181.385 299.551 188.519C295.094 191.195 290.067 192.574 284.96 192.735H28.5081C23.6439 192.654 18.7789 191.195 14.7251 188.438C10.6712 185.682 7.50869 181.79 5.56286 177.331L5.40062 176.844C3.94145 173.358 -2.46382 157.872 3.69812 143.764C10.59 127.873 28.5892 125.035 29.7247 124.792C23.3195 99.9013 32.4809 73.388 52.2645 59.1994Z" stroke="black" stroke-width="1.5" stroke-linecap="round" stroke-linejoin="round"/>
</svg>
