<svg width="124" height="124" viewBox="0 0 124 124" fill="none" xmlns="http://www.w3.org/2000/svg">
<path d="M52.7143 106.422L61.8159 90.9439L52.7143 106.422ZM54.5072 107.278C79.3525 111.168 102.65 94.0521 106.561 69.0105C110.473 43.9689 93.5065 20.5498 68.6844 16.6636C43.8624 12.7775 20.5384 29.9128 16.6307 54.9309C12.7229 79.9491 29.6851 103.392 54.5072 107.278ZM66.0219 33.5573C71.5948 34.4298 76.792 36.9457 80.9461 40.8088C85.1039 44.6486 88.0084 49.6586 89.3331 55.1885C90.6579 60.7187 90.3232 66.5163 88.369 71.8686C86.415 77.2208 82.932 81.8544 78.3865 85.2185C73.8176 88.579 68.3781 90.5087 62.73 90.7272C57.0783 90.9692 51.5004 89.5205 46.682 86.5605C41.8633 83.6002 38.0219 79.2587 35.6611 74.1178C33.3039 68.9536 32.4911 63.1923 33.3684 57.5754C34.5455 50.0396 38.6472 43.2733 44.7747 38.7662C50.9023 34.2591 58.5452 32.3867 66.0219 33.5573ZM89.7965 66.3858L106.561 69.0105L89.7965 66.3858ZM52.5848 106.641C54.26 101.245 55.9355 95.8492 57.611 90.4532L52.5848 106.641ZM73.1144 106.331L68.2813 90.062L73.1144 106.331ZM67.1844 107.44L71.3239 100.584L67.1844 107.44ZM70.2603 96.5813L63.1569 107.793L70.2603 96.5813ZM59.4468 107.787L68.7565 92.1982L59.4468 107.787ZM65.9366 90.6059C62.6055 96.2461 59.2475 101.906 55.9127 107.57L65.9366 90.6059Z" fill="#070A15" stroke="white" stroke-width="1.5" stroke-linecap="round" stroke-linejoin="round"/>
<path d="M111.075 49.5118C108.771 40.5873 104.04 32.4748 97.4007 26.0642C90.7618 19.6536 82.4718 15.1925 73.4399 13.1702C64.4079 11.1479 54.9831 11.6426 46.1991 14.6C37.4151 17.5574 29.6113 22.8633 23.6437 29.9356C17.6761 37.0079 13.7753 45.5735 12.369 54.6927C10.9628 63.8119 12.1056 73.1326 15.672 81.6322C19.2383 90.1318 25.0905 97.4821 32.5866 102.877C40.0827 108.271 48.9331 111.502 58.167 112.214L60.2219 86.8514C55.6666 86.5 51.3004 84.9062 47.6023 82.2449C43.9043 79.5835 41.0172 75.9574 39.2579 71.7643C37.4985 67.5712 36.9347 62.973 37.6284 58.4743C38.3222 53.9755 40.2466 49.7498 43.1905 46.2609C46.1345 42.7719 49.9844 40.1543 54.3178 38.6954C58.6512 37.2364 63.3007 36.9923 67.7564 37.99C72.2122 38.9876 76.3019 41.1884 79.577 44.351C82.8522 47.5135 85.1862 51.5157 86.3231 55.9184L111.075 49.5118Z" fill="#C4C4C4"/>
<path d="M111.075 49.5118C108.771 40.5873 104.04 32.4748 97.4007 26.0642C90.7618 19.6536 82.4718 15.1925 73.4399 13.1702C64.4079 11.1479 54.9831 11.6426 46.1991 14.6C37.4151 17.5574 29.6113 22.8633 23.6437 29.9356C17.6761 37.0079 13.7753 45.5735 12.369 54.6927C10.9628 63.8119 12.1056 73.1326 15.672 81.6322C19.2383 90.1318 25.0905 97.4821 32.5866 102.877C40.0827 108.271 48.9331 111.502 58.167 112.214L60.2219 86.8514C55.6666 86.5 51.3004 84.9062 47.6023 82.2449C43.9043 79.5835 41.0172 75.9574 39.2579 71.7643C37.4985 67.5712 36.9347 62.973 37.6284 58.4743C38.3222 53.9755 40.2466 49.7498 43.1905 46.2609C46.1345 42.7719 49.9844 40.1543 54.3178 38.6954C58.6512 37.2364 63.3007 36.9923 67.7564 37.99C72.2122 38.9876 76.3019 41.1884 79.577 44.351C82.8522 47.5135 85.1862 51.5157 86.3231 55.9184L111.075 49.5118Z" fill="url(#paint0_linear_13233_217467)"/>
<defs>
<linearGradient id="paint0_linear_13233_217467" x1="49.3573" y1="13.5119" x2="74.7485" y2="110.527" gradientUnits="userSpaceOnUse">
<stop stop-color="#EED991"/>
<stop offset="1" stop-color="#CCF7F4"/>
</linearGradient>
</defs>
</svg>
