<svg width="11" height="73" viewBox="0 0 11 73" fill="none" xmlns="http://www.w3.org/2000/svg">
<path d="M5.69713 9.25403C7.91747 9.25403 9.78064 7.44888 9.78064 5.16278C9.78064 2.93629 7.977 1.07092 5.69713 1.07092C3.47084 1.07092 1.60767 2.8761 1.60767 5.16278C1.60767 7.44888 3.41132 9.25403 5.69713 9.25403Z" stroke="white" stroke-width="1.5" stroke-linecap="round" stroke-linejoin="round"/>
<path d="M5.69713 32.4197C7.91747 32.4197 9.78064 30.6145 9.78064 28.3284C9.78064 26.1019 7.977 24.2366 5.69713 24.2366C3.47084 24.2366 1.60767 26.0417 1.60767 28.3284C1.60767 30.5543 3.41132 32.4197 5.69713 32.4197Z" stroke="white" stroke-width="1.5" stroke-linecap="round" stroke-linejoin="round"/>
<path d="M5.69714 9.25415V24.2359" stroke="white" stroke-width="1.5" stroke-linecap="round" stroke-linejoin="round"/>
<path d="M5.69714 32.4194V72.1305" stroke="white" stroke-width="1.5" stroke-miterlimit="10"/>
</svg>
