<svg width="769" height="750" viewBox="0 0 769 750" fill="none" xmlns="http://www.w3.org/2000/svg">
<path d="M609 520.485L771.228 611.597L932.074 520.485L772.598 428L609 520.485Z" stroke="#232323" stroke-width="1.5" stroke-linecap="round" stroke-linejoin="round"/>
<path d="M637.127 536.491L771.114 611.713L903.947 536.491L772.258 460.125L637.127 536.491Z" fill="url(#paint0_linear_13231_218292)"/>
<path d="M637.127 536.491L771.114 611.713L903.947 536.491L772.258 460.125L637.127 536.491Z" fill="url(#paint1_linear_13231_218292)"/>
<path d="M637.127 536.491L771.114 611.713L903.947 536.491L772.258 460.125L637.127 536.491Z" stroke="black" stroke-width="1.5"/>
<path d="M637.127 690.362L769.97 765.582L771.114 611.712L637.127 536.49V690.362Z" fill="url(#paint2_linear_13231_218292)"/>
<path d="M637.127 690.362L769.97 765.582L771.114 611.712L637.127 536.49V690.362Z" fill="url(#paint3_linear_13231_218292)"/>
<path d="M637.127 690.362L769.97 765.582L771.114 611.712L637.127 536.49V690.362Z" stroke="black" stroke-width="1.5"/>
<path d="M609 706.713L769.858 797.831L771.228 611.6L609.113 520.487V706.713H609Z" stroke="#232323" stroke-width="1.5" stroke-linecap="round" stroke-linejoin="round"/>
<path d="M487.089 55.1144L633.416 137.997L634.673 -31.5399L487.089 -114.536V55.1144Z" fill="url(#paint4_linear_13231_218292)"/>
<path d="M487.089 55.1144L633.416 137.997L634.673 -31.5399L487.089 -114.536V55.1144Z" fill="url(#paint5_linear_13231_218292)"/>
<path d="M487.089 55.1144L633.416 137.997L634.673 -31.5399L487.089 -114.536V55.1144Z" stroke="black" stroke-width="1.5"/>
<path d="M634.673 -31.5399L781.003 -114.536V53.7432L633.303 137.883" fill="url(#paint6_linear_13231_218292)"/>
<path d="M634.673 -31.5399L781.003 -114.536V53.7432L633.303 137.883" fill="url(#paint7_linear_13231_218292)"/>
<path d="M634.673 -31.5399L781.003 -114.536V53.7432L633.303 137.883" stroke="black" stroke-width="1.5"/>
<path d="M456.22 73.064L633.417 173.437L634.9 -31.7674L456.22 -132.14V73.064Z" stroke="#232323" stroke-width="1.5" stroke-linecap="round" stroke-linejoin="round"/>
<path d="M811.983 -132.14V71.5784L633.303 173.437L634.786 -31.7674L811.983 -132.14Z" stroke="#232323" stroke-width="1.5" stroke-linecap="round" stroke-linejoin="round"/>
<path d="M143.557 387.673L180.368 408.594L180.711 365.953L143.557 345.032V387.673Z" stroke="#232323" stroke-width="1.5" stroke-linecap="round" stroke-linejoin="round"/>
<path d="M217.52 345.032V387.331L180.367 408.479L180.71 365.838L217.52 345.032Z" stroke="#232323" stroke-width="1.5" stroke-linecap="round" stroke-linejoin="round"/>
<path d="M1 553.205L179.681 653.578L356.877 553.205L181.168 451.346L1 553.205Z" stroke="#232323" stroke-width="1.5" stroke-linecap="round" stroke-linejoin="round"/>
<path d="M31.8646 570.929L179.451 653.81L325.78 570.929L180.594 486.79L31.8646 570.929Z" fill="url(#paint8_linear_13231_218292)"/>
<path d="M31.8646 570.929L179.451 653.81L325.78 570.929L180.594 486.79L31.8646 570.929Z" fill="url(#paint9_linear_13231_218292)"/>
<path d="M31.8646 570.929L179.451 653.81L325.78 570.929L180.594 486.79L31.8646 570.929Z" stroke="black" stroke-width="1.5"/>
<path d="M31.8646 740.467L178.193 823.341L179.451 653.808L31.8646 570.925V740.467Z" fill="url(#paint10_linear_13231_218292)"/>
<path d="M31.8646 740.467L178.193 823.341L179.451 653.808L31.8646 570.925V740.467Z" fill="url(#paint11_linear_13231_218292)"/>
<path d="M31.8646 740.467L178.193 823.341L179.451 653.808L31.8646 570.925V740.467Z" stroke="black" stroke-width="1.5"/>
<path d="M179.453 653.808L325.782 570.925V739.21L178.195 823.341" fill="url(#paint12_linear_13231_218292)"/>
<path d="M179.453 653.808L325.782 570.925V739.21L178.195 823.341" fill="url(#paint13_linear_13231_218292)"/>
<path d="M179.453 653.808L325.782 570.925V739.21L178.195 823.341" stroke="black" stroke-width="1.5"/>
<path d="M1 758.414L178.196 858.783L179.681 653.579L1 553.207V758.414Z" stroke="#232323" stroke-width="1.5" stroke-linecap="round" stroke-linejoin="round"/>
<path d="M356.762 553.207V756.919L178.195 858.783L179.681 653.579L356.762 553.207Z" stroke="#232323" stroke-width="1.5" stroke-linecap="round" stroke-linejoin="round"/>
<path d="M180.71 451.349V318.738C180.596 312.793 181.854 306.849 184.254 301.361C186.655 295.874 190.199 291.073 194.657 287.071L454.507 74.2075" stroke="#232323" stroke-width="1.5" stroke-linecap="round" stroke-linejoin="round"/>
<path d="M712.872 14.3013L836.453 152.172C848.343 164.175 854.967 180.408 854.967 197.327V551.376" stroke="#232323" stroke-width="1.5" stroke-linecap="round" stroke-linejoin="round"/>
<path d="M356.766 683.873H470.514C473.486 683.873 476.344 682.729 478.402 680.555C480.46 678.506 481.717 675.641 481.717 672.675C481.717 669.697 482.861 666.843 485.033 664.782C487.09 662.725 489.948 661.467 492.92 661.467H678" stroke="#232323" stroke-width="1.5" stroke-linecap="round" stroke-linejoin="round"/>
<path d="M677.831 675.58C681.036 675.58 683.663 669.182 683.663 661.29C683.663 653.401 681.036 647 677.831 647C674.627 647 672 653.401 672 661.29C672 669.182 674.627 675.58 677.831 675.58Z" stroke="#232323" stroke-width="1.5" stroke-linecap="round" stroke-linejoin="round"/>
<path d="M712.852 28.5798C716.056 28.5798 718.683 22.1776 718.683 14.2899C718.683 6.40214 716.056 0 712.852 0C709.647 0 707.02 6.40214 707.02 14.2899C707.02 22.1776 709.647 28.5798 712.852 28.5798Z" stroke="#232323" stroke-width="1.5" stroke-linecap="round" stroke-linejoin="round"/>
<path d="M41.8122 29.8491L111.319 188.067L215.235 94.6677" stroke="#232323" stroke-width="1.5" stroke-linecap="round" stroke-linejoin="round"/>
<path d="M42.3841 40.3693C48.7862 40.3693 54.0447 35.1108 54.0447 28.7086C54.0447 22.3065 48.7862 17.048 42.3841 17.048C35.982 17.048 30.7234 22.3065 30.7234 28.7086C30.7234 35.1108 35.982 40.3693 42.3841 40.3693Z" fill="#E9E9E9" stroke="#232323" stroke-width="1.5" stroke-miterlimit="10"/>
<path d="M111.889 198.584C118.29 198.584 123.549 193.326 123.549 186.923C123.549 180.522 118.29 175.263 111.889 175.263C105.487 175.263 100.229 180.522 100.229 186.923C100.229 193.326 105.373 198.584 111.889 198.584Z" fill="#E9E9E9" stroke="#232323" stroke-width="1.5" stroke-miterlimit="10"/>
<path d="M219.809 102.784C226.211 102.784 231.47 97.5256 231.47 91.1234C231.47 84.7213 226.211 79.4628 219.809 79.4628C213.407 79.4628 208.148 84.7213 208.148 91.1234C208.148 97.5256 213.407 102.784 219.809 102.784Z" fill="#E9E9E9" stroke="#232323" stroke-width="1.5" stroke-miterlimit="10"/>
<path d="M143.557 345.029L180.711 365.949L217.523 345.029L180.94 323.766L143.557 345.029Z" fill="#232323" stroke="#232323" stroke-width="1.5" stroke-linecap="round" stroke-linejoin="round"/>
<defs>
<linearGradient id="paint0_linear_13231_218292" x1="770.231" y1="481.245" x2="771.069" y2="646.264" gradientUnits="userSpaceOnUse">
<stop stop-color="#3B3BA9"/>
<stop offset="1" stop-color="#6EE4F4"/>
</linearGradient>
<linearGradient id="paint1_linear_13231_218292" x1="767.979" y1="481.179" x2="768.812" y2="646.158" gradientUnits="userSpaceOnUse">
<stop stop-color="#EFDA91"/>
<stop offset="1" stop-color="#CDF7F4"/>
</linearGradient>
<linearGradient id="paint2_linear_13231_218292" x1="702.835" y1="568.425" x2="706.628" y2="817.714" gradientUnits="userSpaceOnUse">
<stop stop-color="#3B3BA9"/>
<stop offset="1" stop-color="#6EE4F4"/>
</linearGradient>
<linearGradient id="paint3_linear_13231_218292" x1="702.836" y1="568.309" x2="706.621" y2="817.588" gradientUnits="userSpaceOnUse">
<stop stop-color="#EFDA91"/>
<stop offset="1" stop-color="#CDF7F4"/>
</linearGradient>
<linearGradient id="paint4_linear_13231_218292" x1="559.531" y1="-79.2582" x2="563.71" y2="195.427" gradientUnits="userSpaceOnUse">
<stop stop-color="#3B3BA9"/>
<stop offset="1" stop-color="#6EE4F4"/>
</linearGradient>
<linearGradient id="paint5_linear_13231_218292" x1="559.467" y1="-79.4607" x2="563.642" y2="195.323" gradientUnits="userSpaceOnUse">
<stop stop-color="#EFDA91"/>
<stop offset="1" stop-color="#CDF7F4"/>
</linearGradient>
<linearGradient id="paint6_linear_13231_218292" x1="705.828" y1="-79.2582" x2="710.006" y2="195.427" gradientUnits="userSpaceOnUse">
<stop stop-color="#3B3BA9"/>
<stop offset="1" stop-color="#6EE4F4"/>
</linearGradient>
<linearGradient id="paint7_linear_13231_218292" x1="705.737" y1="-79.4766" x2="709.906" y2="195.183" gradientUnits="userSpaceOnUse">
<stop stop-color="#EFDA91"/>
<stop offset="1" stop-color="#CDF7F4"/>
</linearGradient>
<linearGradient id="paint8_linear_13231_218292" x1="178.577" y1="509.969" x2="179.497" y2="691.811" gradientUnits="userSpaceOnUse">
<stop stop-color="#3B3BA9"/>
<stop offset="1" stop-color="#6EE4F4"/>
</linearGradient>
<linearGradient id="paint9_linear_13231_218292" x1="176.006" y1="509.987" x2="176.923" y2="691.762" gradientUnits="userSpaceOnUse">
<stop stop-color="#EFDA91"/>
<stop offset="1" stop-color="#CDF7F4"/>
</linearGradient>
<linearGradient id="paint10_linear_13231_218292" x1="104.317" y1="606.032" x2="108.497" y2="880.716" gradientUnits="userSpaceOnUse">
<stop stop-color="#3B3BA9"/>
<stop offset="1" stop-color="#6EE4F4"/>
</linearGradient>
<linearGradient id="paint11_linear_13231_218292" x1="104.244" y1="605.984" x2="108.415" y2="880.641" gradientUnits="userSpaceOnUse">
<stop stop-color="#EFDA91"/>
<stop offset="1" stop-color="#CDF7F4"/>
</linearGradient>
<linearGradient id="paint12_linear_13231_218292" x1="250.621" y1="606.032" x2="254.797" y2="880.716" gradientUnits="userSpaceOnUse">
<stop stop-color="#3B3BA9"/>
<stop offset="1" stop-color="#6EE4F4"/>
</linearGradient>
<linearGradient id="paint13_linear_13231_218292" x1="250.574" y1="605.984" x2="254.745" y2="880.641" gradientUnits="userSpaceOnUse">
<stop stop-color="#EFDA91"/>
<stop offset="1" stop-color="#CDF7F4"/>
</linearGradient>
</defs>
</svg>
