<svg width="525" height="338" viewBox="0 0 525 338" fill="none" xmlns="http://www.w3.org/2000/svg">
<path d="M146.562 283.192C137.643 286.598 70.3487 310.84 25.2685 275.246C17.5663 269.165 0.216031 253.761 1.51299 230.086C2.56661 209.492 16.5127 189.303 42.133 180.547C41.1604 178.033 30.6202 148.846 49.106 122.009C67.1051 95.9011 97.0234 94.7663 99.9418 94.6852C114.698 34.6061 170.237 -4.39247 226.181 1.60725C272.801 6.63445 313.016 42.3083 325.829 90.9558C330.205 89.7391 355.582 83.0913 380.148 98.1713C398.474 109.442 405.766 126.225 407.878 131.981C413.066 130.117 448.096 118.116 482.307 138.062C487.494 141.062 517.979 158.818 522.685 194.249C526.491 223.356 511.418 253.031 484.419 270.139C459.034 287.651 429.441 298.273 398.715 300.867C367.99 303.461 337.015 298.029 309.043 285.056C256.423 304.516 198.614 303.867 146.562 283.192Z" fill="url(#paint0_linear_13233_217554)"/>
<path d="M146.562 283.192C137.643 286.598 70.3487 310.84 25.2685 275.246C17.5663 269.165 0.216031 253.761 1.51299 230.086C2.56661 209.492 16.5127 189.303 42.133 180.547C41.1604 178.033 30.6202 148.846 49.106 122.009C67.1051 95.9011 97.0234 94.7663 99.9418 94.6852C114.698 34.6061 170.237 -4.39247 226.181 1.60725C272.801 6.63445 313.016 42.3083 325.829 90.9558C330.205 89.7391 355.582 83.0913 380.148 98.1713C398.474 109.442 405.766 126.225 407.878 131.981C413.066 130.117 448.096 118.116 482.307 138.062C487.494 141.062 517.979 158.818 522.685 194.249C526.491 223.356 511.418 253.031 484.419 270.139C459.034 287.651 429.441 298.273 398.715 300.867C367.99 303.461 337.015 298.029 309.043 285.056C256.423 304.516 198.614 303.867 146.562 283.192Z" fill="url(#paint1_linear_13233_217554)"/>
<path d="M146.562 283.192C137.643 286.598 70.3487 310.84 25.2685 275.246C17.5663 269.165 0.216031 253.761 1.51299 230.086C2.56661 209.492 16.5127 189.303 42.133 180.547C41.1604 178.033 30.6202 148.846 49.106 122.009C67.1051 95.9011 97.0234 94.7663 99.9418 94.6852C114.698 34.6061 170.237 -4.39247 226.181 1.60725C272.801 6.63445 313.016 42.3083 325.829 90.9558C330.205 89.7391 355.582 83.0913 380.148 98.1713C398.474 109.442 405.766 126.225 407.878 131.981C413.066 130.117 448.096 118.116 482.307 138.062C487.494 141.062 517.979 158.818 522.685 194.249C526.491 223.356 511.418 253.031 484.419 270.139C459.034 287.651 429.441 298.273 398.715 300.867C367.99 303.461 337.015 298.029 309.043 285.056C256.423 304.516 198.614 303.867 146.562 283.192Z" stroke="black" stroke-width="1.5"/>
<path d="M290.4 258.678C288.535 256.895 286.021 255.922 283.428 256.003C280.833 256.084 278.4 257.137 276.617 259.003L235.267 302.703V156.114C235.267 153.601 234.375 151.169 232.672 149.304C230.97 147.439 228.618 146.304 226.105 146.06C223.511 145.898 220.997 146.79 219.051 148.493C217.105 150.195 215.889 152.628 215.727 155.222C215.727 155.466 215.727 155.628 215.727 155.871V301.812L175.269 259.003C173.485 257.137 171.053 256.003 168.458 255.922C165.864 255.84 163.35 256.814 161.486 258.597C159.621 260.381 158.485 262.813 158.404 265.407C158.323 268.002 159.297 270.516 161.08 272.38L212.97 327.189C214.673 329.054 216.213 331 217.592 333.027C217.916 333.513 218.321 333.919 218.727 334.324C220.51 336.027 222.943 337 225.375 337H226.348C228.861 337 231.294 336.027 233.078 334.324C233.483 333.919 233.889 333.513 234.212 333.027C235.672 331 237.213 329.054 238.834 327.189L290.724 272.38C292.508 270.516 293.4 268.002 293.319 265.407C293.319 262.895 292.265 260.462 290.4 258.678Z" fill="url(#paint2_linear_13233_217554)"/>
<path d="M290.4 258.678C288.535 256.895 286.021 255.922 283.428 256.003C280.833 256.084 278.4 257.137 276.617 259.003L235.267 302.703V156.114C235.267 153.601 234.375 151.169 232.672 149.304C230.97 147.439 228.618 146.304 226.105 146.06C223.511 145.898 220.997 146.79 219.051 148.493C217.105 150.195 215.889 152.628 215.727 155.222C215.727 155.466 215.727 155.628 215.727 155.871V301.812L175.269 259.003C173.485 257.137 171.053 256.003 168.458 255.922C165.864 255.84 163.35 256.814 161.486 258.597C159.621 260.381 158.485 262.813 158.404 265.407C158.323 268.002 159.297 270.516 161.08 272.38L212.97 327.189C214.673 329.054 216.213 331 217.592 333.027C217.916 333.513 218.321 333.919 218.727 334.324C220.51 336.027 222.943 337 225.375 337H226.348C228.861 337 231.294 336.027 233.078 334.324C233.483 333.919 233.889 333.513 234.212 333.027C235.672 331 237.213 329.054 238.834 327.189L290.724 272.38C292.508 270.516 293.4 268.002 293.319 265.407C293.319 262.895 292.265 260.462 290.4 258.678Z" fill="url(#paint3_linear_13233_217554)"/>
<path d="M290.4 258.678C288.535 256.895 286.021 255.922 283.428 256.003C280.833 256.084 278.4 257.137 276.617 259.003L235.267 302.703V156.114C235.267 153.601 234.375 151.169 232.672 149.304C230.97 147.439 228.618 146.304 226.105 146.06C223.511 145.898 220.997 146.79 219.051 148.493C217.105 150.195 215.889 152.628 215.727 155.222C215.727 155.466 215.727 155.628 215.727 155.871V301.812L175.269 259.003C173.485 257.137 171.053 256.003 168.458 255.922C165.864 255.84 163.35 256.814 161.486 258.597C159.621 260.381 158.485 262.813 158.404 265.407C158.323 268.002 159.297 270.516 161.08 272.38L212.97 327.189C214.673 329.054 216.213 331 217.592 333.027C217.916 333.513 218.321 333.919 218.727 334.324C220.51 336.027 222.943 337 225.375 337H226.348C228.861 337 231.294 336.027 233.078 334.324C233.483 333.919 233.889 333.513 234.212 333.027C235.672 331 237.213 329.054 238.834 327.189L290.724 272.38C292.508 270.516 293.4 268.002 293.319 265.407C293.319 262.895 292.265 260.462 290.4 258.678Z" stroke="#232323" stroke-width="1.5" stroke-miterlimit="10"/>
<path d="M262.748 222.032C263.639 222.924 264.775 223.572 265.991 224.059C267.206 224.545 268.423 224.707 269.72 224.707C271.018 224.707 272.234 224.383 273.45 223.896C274.585 223.41 275.639 222.599 276.531 221.707L317.878 178.087V324.514C317.878 329.785 321.854 334.325 327.041 334.649C329.635 334.811 332.149 333.92 334.092 332.217C336.044 330.514 337.256 328.082 337.417 325.488C337.417 325.325 337.417 325.082 337.417 324.92V179.141L377.715 221.707C379.498 223.491 381.931 224.545 384.525 224.626C387.119 224.707 389.552 223.734 391.415 221.951C393.287 220.167 394.339 217.816 394.499 215.221C394.579 212.707 393.688 210.194 391.986 208.249L340.099 153.439C338.397 151.574 336.855 149.629 335.474 147.602C335.152 147.115 334.743 146.71 334.341 146.305C332.558 144.602 330.125 143.629 327.612 143.629H326.72C324.207 143.629 321.854 144.602 319.99 146.305C319.581 146.71 319.179 147.115 318.85 147.602C317.397 149.629 315.854 151.574 314.233 153.439L262.342 208.249C260.559 210.113 259.585 212.627 259.666 215.221C259.748 217.816 260.882 220.248 262.748 222.032Z" fill="white" stroke="#232323" stroke-width="1.5" stroke-linecap="round" stroke-linejoin="round"/>
<path d="M407.308 130.981L395.23 139.656" stroke="black" stroke-width="2" stroke-linecap="round" stroke-linejoin="round"/>
<path d="M39.3014 181.006C45.4633 179.79 51.8686 180.601 57.5439 183.276C63.2192 185.952 67.9219 190.33 70.9214 195.843" stroke="black" stroke-width="1.5" stroke-linecap="round" stroke-linejoin="round"/>
<path d="M99.5378 94.0901C103.754 94.0901 107.888 95.3871 111.375 97.6573C114.861 100.009 117.699 103.251 119.402 107.062" stroke="black" stroke-width="2" stroke-linecap="round" stroke-linejoin="round"/>
<path d="M326.471 89.3878C326.471 89.3878 317.07 93.7661 307.745 104.874" stroke="black" stroke-width="2" stroke-linecap="round" stroke-linejoin="round"/>
<defs>
<linearGradient id="paint0_linear_13233_217554" x1="0.990189" y1="152.662" x2="520.428" y2="150.198" gradientUnits="userSpaceOnUse">
<stop offset="0.1382" stop-color="#FEC45D"/>
<stop offset="0.7159" stop-color="#FABCC3"/>
<stop offset="1" stop-color="#F8B8F0"/>
</linearGradient>
<linearGradient id="paint1_linear_13233_217554" x1="0.755868" y1="152.126" x2="522.128" y2="149.657" gradientUnits="userSpaceOnUse">
<stop stop-color="#EED991"/>
<stop offset="1" stop-color="#CCF7F4"/>
</linearGradient>
<linearGradient id="paint2_linear_13233_217554" x1="158.343" y1="241.662" x2="292.753" y2="241.403" gradientUnits="userSpaceOnUse">
<stop offset="0.1382" stop-color="#FEC45D"/>
<stop offset="0.7159" stop-color="#FABCC3"/>
<stop offset="1" stop-color="#F8B8F0"/>
</linearGradient>
<linearGradient id="paint3_linear_13233_217554" x1="158.222" y1="242.078" x2="293.032" y2="241.818" gradientUnits="userSpaceOnUse">
<stop stop-color="#EED991"/>
<stop offset="1" stop-color="#CCF7F4"/>
</linearGradient>
</defs>
</svg>
