<svg width="222" height="147" viewBox="0 0 222 147" fill="none" xmlns="http://www.w3.org/2000/svg">
<path d="M62.0458 112.091C62.7983 114.812 64.1594 117.297 65.9897 119.408C72.3677 126.536 82.4482 125.645 90.3778 126.958C98.3492 128.271 109.043 132.587 120.907 146C125.599 138.871 132.209 133.243 139.948 129.679C147.687 126.114 156.267 124.801 164.713 125.88L174.793 112.279" stroke="#232323" stroke-width="1.5" stroke-linecap="round" stroke-linejoin="round"/>
<path d="M121.376 117.814C145.151 117.814 164.476 98.5384 164.476 74.7133C164.476 50.8883 145.202 31.6124 121.376 31.6124C97.5966 31.6124 78.272 50.8883 78.272 74.7133C78.272 98.5384 97.5501 117.814 121.376 117.814Z" stroke="#232323" stroke-width="1.5" stroke-linecap="round" stroke-linejoin="round"/>
<path d="M121.376 110.966C141.402 110.966 157.629 94.7385 157.629 74.7124C157.629 54.6859 141.402 38.4587 121.376 38.4587C101.35 38.4587 85.1239 54.6859 85.1239 74.7124C85.1239 94.7385 101.35 110.966 121.376 110.966Z" stroke="#232323" stroke-width="1.5" stroke-linecap="round" stroke-linejoin="round"/>
<path d="M219.729 117.048C208.115 119.333 198.499 116.362 191.698 112.732C188.163 110.845 185.393 108.781 183.51 107.191C182.568 106.396 181.849 105.721 181.368 105.247C181.127 105.01 180.946 104.823 180.826 104.697C180.766 104.634 180.721 104.586 180.692 104.554L180.661 104.519L180.653 104.512L180.652 104.51L180.652 104.51L180.652 104.51L179.617 103.353L179.354 104.883L174.76 131.613L172.277 130.116L172.272 130.113C151.425 117.754 134.351 99.9852 122.788 78.6708C122.788 78.6707 122.788 78.6705 122.788 78.6704L118.473 70.6977L117.912 69.6622L117.211 70.6079L104.826 87.3042L104.826 87.3046C92.2839 104.235 75.9125 117.993 57.0238 127.414L50.4613 130.673L47.6957 97.3036L47.6103 96.2736L46.6576 96.6741C35.3784 101.415 23.8407 100.23 15.0624 97.8608L15.0566 97.8593C10.3535 96.6304 5.8433 94.8591 1.56133 92.5799C13.2569 86.0784 23.9245 77.8652 33.138 68.1954L33.139 68.1943C42.7239 58.096 47.9904 49.2147 52.7853 41.1288C54.1702 38.7933 55.5158 36.5242 56.9147 34.3112L56.9149 34.3109C66.078 19.7992 81.9873 0.615776 111.159 -17.5731L136.753 -16.0077C168.155 9.63272 179.232 32.5616 183.45 49.1964L183.45 49.197C183.807 50.603 184.154 52.1177 184.527 53.7456C186.04 60.3591 187.981 68.8396 192.827 79.4796L193.487 79.1786L192.827 79.4797C200.708 96.7801 211.497 109.122 219.729 117.048Z" fill="url(#paint0_radial_13318_223774)" stroke="#232323" stroke-width="1.5"/>
<path d="M136.385 -2.01578C145.109 5.86367 152.941 15.853 157.206 28.5163C162.743 44.9311 158.567 54.7332 163.305 73.0708C165.976 83.4824 170.378 92.3024 179.803 104.168" stroke="#232323" stroke-width="1.5" stroke-linecap="round" stroke-linejoin="round"/>
<path d="M80.0091 16.3226C71.4756 24.4362 64.2985 33.9099 58.8124 44.3685C47.2269 66.3178 47.1027 85.9319 47.2885 96.8127" stroke="#232323" stroke-width="1.5" stroke-linecap="round" stroke-linejoin="round"/>
<path d="M119.267 -30.0621L110.682 -29.5929C84.8868 -20.6822 70.5838 -9.51991 62.1432 -0.515358C55.6675 6.37928 43.5687 18.2449 44.2251 19.1828C44.3129 19.324 54.3368 14.9387 55.2448 14.4929C79.8698 2.34572 102.804 0.0945797 115.184 -21.1509C116.828 -23.9651 118.185 -26.9665 119.267 -30.0621Z" fill="#E8E0A6" stroke="#232323" stroke-width="1.5" stroke-linecap="round" stroke-linejoin="round"/>
<path d="M121.283 -30.0612C124.052 -29.8735 126.816 -31.1398 129.584 -30.9522C154.535 -21.9472 168.373 -10.2692 176.484 -1.21773C182.723 5.72335 194.401 17.589 193.792 18.5273C193.556 18.9022 191.54 17.4487 189.853 16.1824C190.318 16.5572 190.977 17.1203 190.884 17.261C190.694 17.6828 183.145 13.8374 183.145 13.8374C159.366 1.64334 137.138 -0.748547 125.222 -22.041C124.238 -23.7765 122.691 -25.84 121.283 -30.0612Z" fill="#E4E2AF" stroke="#232323" stroke-width="1.5" stroke-linecap="round" stroke-linejoin="round"/>
<path d="M112.229 -29.5929C110.028 -25.7944 106.743 -18.8998 107.073 -10.8331C107.589 1.22016 114.905 9.89629 118.422 13.5545C122.314 9.42758 129.677 0.32872 130.43 -12.2402C130.755 -18.7595 129.399 -25.2314 126.444 -31C121.567 -30.3905 117.158 -30.2028 112.229 -29.5929Z" fill="#E6E1AB" stroke="#232323" stroke-width="1.5" stroke-linecap="round" stroke-linejoin="round"/>
<path d="M117.869 70.6089C117.869 70.6089 126.676 53.139 128.13 39.4914" stroke="#232323" stroke-width="1.5" stroke-linecap="round" stroke-linejoin="round"/>
<defs>
<radialGradient id="paint0_radial_13318_223774" cx="0" cy="0" r="1" gradientUnits="userSpaceOnUse" gradientTransform="translate(108.517 -6.26705) rotate(90) scale(120.341 300.597)">
<stop stop-color="#CDF7F4"/>
<stop offset="1" stop-color="#FFE68E"/>
</radialGradient>
</defs>
</svg>
