<svg width="208" height="224" viewBox="0 0 208 224" fill="none" xmlns="http://www.w3.org/2000/svg">
<path d="M7.79694 236.927C5.2175 213.295 12.1811 189.57 27.0533 171.088C41.917 152.53 63.5826 140.752 87.2998 138.173C110.932 135.595 134.658 142.557 153.139 157.424C171.698 172.297 183.48 193.954 186.051 217.671C186.825 224.549 186.74 231.513 185.625 238.392" stroke="#232323" stroke-width="1.5" stroke-linecap="round" stroke-linejoin="round"/>
<path d="M22.584 228.678C22.6691 218.71 24.7292 208.911 28.6026 199.794C32.5527 190.685 38.2223 182.436 45.4414 175.472C52.6604 168.602 61.0883 163.188 70.3674 159.663C79.6551 156.139 89.5387 154.504 99.5074 154.845C109.476 155.194 119.189 157.51 128.213 161.724C137.237 165.937 145.316 171.862 152.016 179.26C158.724 186.65 163.798 195.239 167.058 204.697C170.327 214.061 171.698 224.039 171.102 234.007" stroke="#232323" stroke-width="1.5" stroke-linecap="round" stroke-linejoin="round"/>
<path d="M98.3071 182.265C147.81 182.265 187.949 142.128 187.949 92.6219C187.949 43.1155 147.81 2.97839 98.3071 2.97839C48.7955 2.97839 8.66528 43.1155 8.66528 92.6219C8.66528 142.128 48.7955 182.265 98.3071 182.265Z" fill="white" stroke="#232323" stroke-width="1.5" stroke-linecap="round" stroke-linejoin="round"/>
<path fill-rule="evenodd" clip-rule="evenodd" d="M92.9724 58.2836C100.488 57.2943 108.119 58.8123 114.684 62.6023C115.042 62.8094 115.501 62.6865 115.708 62.3277C115.915 61.969 115.792 61.5103 115.434 61.3032C108.583 57.3481 100.619 55.764 92.7766 56.7965C84.9341 57.829 77.6514 61.4204 72.0581 67.0137C66.4648 72.6071 62.8733 79.8897 61.8409 87.7322C60.8084 95.5747 62.3925 103.539 66.3476 110.389C70.3027 117.24 76.4077 122.594 83.7157 125.621C91.0238 128.648 99.1265 129.179 106.767 127.132C114.408 125.084 121.159 120.573 125.975 114.297C130.716 108.119 133.319 100.571 133.398 92.7902C133.606 92.6569 133.744 92.4239 133.744 92.1588C133.744 91.7446 133.408 91.4088 132.994 91.4088H113.253L91.5865 79.3193C90.2326 78.5638 88.5656 79.5426 88.5656 81.093V103.225C88.5656 104.775 90.2326 105.754 91.5865 104.998L113.253 92.9088H131.897C131.792 100.317 129.3 107.499 124.785 113.384C120.17 119.398 113.701 123.721 106.379 125.683C99.0572 127.644 91.2927 127.136 84.2898 124.235C77.2868 121.334 71.4366 116.204 67.6466 109.639C63.8567 103.075 62.3386 95.4431 63.328 87.928C64.3174 80.4129 67.7589 73.4342 73.1188 68.0744C78.4786 62.7145 85.4573 59.273 92.9724 58.2836ZM90.8556 80.6291L111.519 92.1588L90.8556 103.689C90.5015 103.886 90.0656 103.63 90.0656 103.225V81.093C90.0656 80.6875 90.5015 80.4316 90.8556 80.6291Z" fill="black"/>
<path d="M98.3071 167.998C139.902 167.998 173.681 134.219 173.681 92.6201C173.681 51.0214 139.902 17.2444 98.3071 17.2444C56.7041 17.2444 22.9246 51.0214 22.9246 92.6201C22.9246 134.219 56.7041 167.998 98.3071 167.998Z" stroke="#232323" stroke-width="1.5" stroke-linecap="round" stroke-linejoin="round"/>
<path d="M11.6165 26.008L11.2696 25.4766C9.76976 23.1792 7.85343 21.1825 5.61945 19.5897L0.999998 16.296" stroke="#232323" stroke-width="1.5" stroke-linecap="round" stroke-linejoin="round"/>
<path d="M14.7026 12.9524L14.6208 12.8004C12.5891 9.02418 9.44996 5.96042 5.62546 4.02099L4.08615 3.2404" stroke="#232323" stroke-width="1.5" stroke-linecap="round" stroke-linejoin="round"/>
<path d="M195.387 137C197.889 138.111 199.984 139.892 201.55 142.07C203.092 144.314 204.065 146.866 204.298 149.585" stroke="#232323" stroke-width="1.5" stroke-linecap="round" stroke-linejoin="round"/>
<path d="M192.169 143.144C192.499 144.405 192.765 145.64 192.875 146.89C193.104 148.79 193.152 150.769 192.977 152.735" stroke="#232323" stroke-width="1.5" stroke-linecap="round" stroke-linejoin="round"/>
</svg>
