<svg width="151" height="145" viewBox="0 0 151 145" fill="none" xmlns="http://www.w3.org/2000/svg">
<path d="M108.154 133.726C131.323 133.726 150.057 114.982 150.057 91.9295C150.057 68.8184 131.265 50.1321 108.154 50.1321C84.9831 50.1321 66.249 68.8767 66.249 91.9295C66.249 114.982 85.0415 133.726 108.154 133.726Z" fill="white" stroke="#232323" stroke-width="1.5" stroke-linecap="round" stroke-linejoin="round"/>
<path fill-rule="evenodd" clip-rule="evenodd" d="M138.337 43.5712C138.246 43.9747 138.5 44.3761 138.904 44.4678C139.308 44.5595 139.71 44.3067 139.802 43.9032C141.03 38.4875 138.5 32.7242 133.306 30.0918C132.471 29.6688 131.612 29.354 130.744 29.136L131.089 27.5285C131.22 26.9193 130.547 26.456 130.023 26.7944L127.192 28.6225C126.868 28.8323 126.775 29.2652 126.985 29.5895L128.818 32.4127C129.158 32.9356 129.961 32.7887 130.091 32.1798L130.43 30.602C131.176 30.7932 131.912 31.0655 132.627 31.4276C137.189 33.7399 139.418 38.8051 138.337 43.5712Z" fill="#232323"/>
<path d="M108.154 128.08C128.172 128.08 144.393 111.897 144.393 91.9296C144.393 71.9621 128.172 55.7788 108.154 55.7788C88.1341 55.7788 71.9099 71.9621 71.9099 91.9296C71.9099 111.897 88.1341 128.08 108.154 128.08Z" stroke="#232323" stroke-width="1.5" stroke-miterlimit="10"/>
<path d="M62.2792 123.365C96.1288 123.365 123.617 95.9462 123.617 62.1826C123.617 28.4189 96.1288 1 62.2792 1C28.4301 1 0.942566 28.4189 0.942566 62.1826C0.942566 95.9462 28.3717 123.365 62.2792 123.365Z" fill="white" stroke="#232323" stroke-width="1.5" stroke-linecap="round" stroke-linejoin="round"/>
<path d="M62.2791 115.098C91.576 115.098 115.328 91.405 115.328 62.182C115.328 32.959 91.576 9.26611 62.2791 9.26611C32.9822 9.26611 9.22949 32.959 9.22949 62.182C9.22949 91.405 32.9822 115.098 62.2791 115.098Z" stroke="#232323" stroke-width="1.5" stroke-miterlimit="10"/>
<path fill-rule="evenodd" clip-rule="evenodd" d="M61.8674 38.0272C67.3351 37.9345 72.6729 39.6897 77.0129 43.0067L77.9238 41.8149C73.315 38.2925 67.6472 36.429 61.842 36.5274C56.0368 36.6257 50.4357 38.6801 45.9496 42.3565C41.4634 46.0329 38.3561 51.115 37.1329 56.7764C35.9097 62.4378 36.6425 68.3455 39.2123 73.5387C41.7821 78.7319 46.0376 82.9053 51.2869 85.38C56.5361 87.8548 62.4703 88.4854 68.1244 87.1693C73.7785 85.8532 78.82 82.6678 82.429 78.1312C85.9214 73.7411 87.8735 68.3356 87.996 62.7429H88.004V61.2448H73.633L57.5746 52.3071C56.7302 51.8371 55.6905 52.446 55.6905 53.4106V70.5771C55.6905 71.5416 56.7302 72.1506 57.5746 71.6806L73.633 62.7429H86.4956C86.3734 67.996 84.5365 73.0725 81.2551 77.1974C77.857 81.4689 73.1096 84.4688 67.7844 85.7083C62.4591 86.9479 56.8701 86.3539 51.9265 84.0232C46.983 81.6926 42.9761 77.7627 40.5567 72.8735C38.1374 67.9843 37.4475 62.4228 38.599 57.0932C39.7506 51.7636 42.6759 46.9786 46.9003 43.5167C51.1248 40.0548 56.3998 38.1198 61.8674 38.0272ZM57.1924 53.8099L71.8965 61.9938L57.1924 70.1778V53.8099Z" fill="black"/>
<path d="M87.2526 47.4663C87.2526 50.8014 84.5416 53.5082 81.1935 53.5082C77.8453 53.5082 75.1343 50.8014 75.1343 47.4663C75.1343 44.1312 77.8453 41.4243 81.1935 41.4243C84.5416 41.4243 87.2526 44.1312 87.2526 47.4663Z" stroke="black" stroke-width="1.5"/>
<path d="M59.8933 136.008C62.1711 140.707 67.4149 143.462 72.7744 142.363C74.2069 142.07 75.5146 141.516 76.6799 140.779" stroke="#232323" stroke-width="1.5" stroke-linecap="round" stroke-linejoin="round"/>
<path d="M77.5537 143.636L78.6251 140.447C78.7482 140.08 78.5508 139.684 78.1841 139.561L74.9869 138.493C74.3952 138.295 73.8588 138.911 74.1373 139.469L76.2631 143.727C76.5413 144.284 77.3552 144.227 77.5537 143.636Z" fill="#232323"/>
</svg>
