<svg width="505" height="265" viewBox="0 0 505 265" fill="none" xmlns="http://www.w3.org/2000/svg">
<path d="M-14.1339 19.8889L188.771 35.1494" stroke="black" stroke-width="1.5" stroke-linecap="round" stroke-linejoin="round"/>
<path d="M392.142 19.7311L217.191 28.8413C206.447 29.3858 195.935 32.1112 186.28 36.7831C176.626 41.4543 167.905 47.9949 160.82 56.0925L140.498 77.3483C132.011 87.003 138.863 103.821 151.788 103.821C158.328 103.821 165.258 101.641 172.733 98.8378C184.568 94.4782 208.159 77.4262 213.064 75.0903L257.837 72.7551" stroke="black" stroke-width="1.5" stroke-linecap="round" stroke-linejoin="round"/>
<path d="M252.616 74.7042L299.104 204.887C302.759 215.09 298.942 226.612 289.68 232.218C289.371 232.45 289.055 232.604 288.67 232.758C276.053 239.614 263.521 231.671 262.503 231.123C261.57 233.074 255.886 245.922 242.573 250.203C231.05 253.943 221.395 245.143 218.904 244.048C216.801 246.231 207.614 260.089 192.743 260.945C183.867 261.416 175.147 258.925 167.827 253.866" stroke="black" stroke-width="1.5" stroke-linecap="round" stroke-linejoin="round"/>
<path d="M233.542 144.778L262.588 232.758" stroke="black" stroke-width="1.5" stroke-linecap="round" stroke-linejoin="round"/>
<path d="M218.986 244.904L195.783 166.344" stroke="black" stroke-width="1.5" stroke-linecap="round" stroke-linejoin="round"/>
<path d="M167.988 254.405L154.829 213.917C150.235 199.28 146.965 187.288 132.95 181.059C127.811 178.334 121.972 178.801 118.234 182.071C115.197 184.874 116.366 188.691 116.21 189.856L127.422 251.991C128.201 255.886 130.536 259.31 133.884 261.493C137.232 263.667 141.281 264.446 145.174 263.59C145.953 263.436 146.731 263.205 147.51 262.889L167.988 254.405Z" stroke="black" stroke-width="1.5" stroke-linecap="round" stroke-linejoin="round"/>
<path d="M131.465 259.31L110.754 260.328C106.939 260.482 103.201 259.31 100.243 256.896C97.2839 254.56 95.2595 251.135 94.5593 247.403L83.9699 180.75C81.7118 169.383 93.3909 157.236 105.849 165.022H105.927C107.717 166.191 109.197 167.904 110.053 169.85L116.672 183.162" stroke="black" stroke-width="1.5" stroke-linecap="round" stroke-linejoin="round"/>
<path d="M87.4749 165.879C85.1389 163.076 80.4678 154.356 76.7305 151.475L76.3411 151.163C64.9736 142.676 49.012 152.564 51.503 166.579L63.6494 235.565C64.5841 241.094 67.5424 245.999 71.9807 249.423C76.3411 252.847 81.869 254.56 87.4749 254.174L97.0516 253.472" stroke="black" stroke-width="1.5" stroke-linecap="round" stroke-linejoin="round"/>
<path d="M-25.8106 178.879L11.4075 180.826C13.354 180.904 15.3005 181.526 17.0134 182.617C18.7262 183.709 20.0496 185.182 20.9843 186.902C26.2007 196.473 38.1913 215.861 56.333 228.863" stroke="black" stroke-width="1.5" stroke-linecap="round" stroke-linejoin="round"/>
<path d="M275.043 133.177L302.451 138.159" stroke="black" stroke-width="1.5" stroke-linecap="round" stroke-linejoin="round"/>
<path d="M402.892 178.334L351.114 181.059C348.307 181.215 345.661 182.539 343.718 184.643C333.823 195.694 320.744 203.406 306.261 206.676" stroke="black" stroke-width="1.5" stroke-linecap="round" stroke-linejoin="round"/>
<path d="M413.635 18.1744L391.286 19.342C414.962 81.0859 416.751 148.981 396.353 211.889C400.401 213.37 404.604 214.072 408.885 213.84C413.165 213.609 417.376 212.514 421.185 210.57C435.823 146.956 433.254 80.4628 413.635 18.1744Z" stroke="black" stroke-width="1.5" stroke-linecap="round" stroke-linejoin="round"/>
<path d="M397.131 209.56C396.661 210.879 396.113 211.581 395.573 211.658C393.391 211.82 390.591 201.54 387.322 180.984L404.604 177.792C402.036 188.383 399.545 198.972 397.131 209.56Z" fill="black" stroke="black" stroke-width="1.5" stroke-linecap="round" stroke-linejoin="round"/>
<path d="M400.555 213.377C399.699 221.39 401.334 229.411 405.229 236.421C405.537 236.968 405.923 237.431 406.47 237.747C406.941 238.056 407.558 238.287 408.182 238.364C408.807 238.441 409.432 238.364 409.972 238.21C410.519 237.979 411.067 237.663 411.53 237.2C413.943 234.786 414.337 231.362 416.357 226.611C419.242 219.755 421.578 213.609 421.262 210.57" stroke="black" stroke-width="1.5" stroke-linecap="round" stroke-linejoin="round"/>
<path d="M413.635 18.1759C422.974 6.41896 437.072 0.890255 449.527 4.23881C458.249 6.57478 463.547 12.4922 465.876 15.4505C465.876 14.7495 466.346 6.96344 472.732 2.99253C473.434 2.52595 474.213 2.21441 474.992 1.90285C482.927 -1.21203 491.649 4.08299 493.207 12.4143C499.439 45.5828 505.662 74.2353 503.333 96.6595C497.881 150.617 506.21 160.506 499.901 190.797C498.344 198.501 496.477 205.511 494.688 211.658C492.899 217.966 489.629 223.804 485.187 228.709C480.752 233.614 475.3 237.431 469.231 239.845L468.992 239.922C456.221 244.827 442.285 246.154 428.82 243.74L411.452 237.277" stroke="black" stroke-width="1.5" stroke-linecap="round" stroke-linejoin="round"/>
<path d="M465.799 15.4512C465.799 15.4512 479.897 62.9464 469.146 95.8813" stroke="black" stroke-width="1.5" stroke-linecap="round" stroke-linejoin="round"/>
<path d="M161.676 71.1976C163.467 68.7837 164.479 65.9811 164.712 63.022C164.946 60.0637 164.323 57.1046 162.844 54.535" stroke="black" stroke-width="1.5" stroke-linecap="round" stroke-linejoin="round"/>
<path d="M55.1655 186.663C57.3457 184.72 58.9806 182.151 59.7595 179.27C60.5384 176.389 60.5385 173.43 59.6817 170.55" stroke="black" stroke-width="1.5" stroke-linecap="round" stroke-linejoin="round"/>
<path d="M86.5441 196.241C88.7243 194.298 90.3592 191.73 91.1373 188.846C91.9162 185.969 91.9163 183.008 91.0602 180.126" stroke="black" stroke-width="1.5" stroke-linecap="round" stroke-linejoin="round"/>
<path d="M121.188 210.416C123.368 208.465 125.003 205.897 125.781 203.02C126.56 200.136 126.56 197.175 125.703 194.298" stroke="black" stroke-width="1.5" stroke-linecap="round" stroke-linejoin="round"/>
</svg>
