<svg width="375" height="163" viewBox="0 0 375 163" fill="none" xmlns="http://www.w3.org/2000/svg">
<path d="M63.8278 12.5455L187.852 21.8734" stroke="black" stroke-width="1.5" stroke-linecap="round" stroke-linejoin="round"/>
<path d="M312.16 12.4493L205.223 18.0178C198.655 18.3506 192.23 20.0165 186.329 22.8722C180.428 25.7274 175.097 29.7253 170.767 34.6748L158.345 47.6673C153.157 53.5686 157.346 63.8486 165.246 63.8486C169.244 63.8486 173.479 62.516 178.048 60.8025C185.282 58.1377 199.702 47.7149 202.7 46.287L230.067 44.8597" stroke="black" stroke-width="1.5" stroke-linecap="round" stroke-linejoin="round"/>
<path d="M226.876 46.0508L255.291 125.624C257.525 131.86 255.192 138.903 249.531 142.33C249.342 142.471 249.149 142.565 248.913 142.66C241.201 146.85 233.541 141.995 232.919 141.66C232.349 142.853 228.874 150.706 220.737 153.322C213.694 155.609 207.793 150.23 206.269 149.561C204.984 150.895 199.369 159.366 190.279 159.889C184.853 160.176 179.523 158.654 175.049 155.561" stroke="black" stroke-width="1.5" stroke-linecap="round" stroke-linejoin="round"/>
<path d="M215.217 88.8826L232.971 142.66" stroke="black" stroke-width="1.5" stroke-linecap="round" stroke-linejoin="round"/>
<path d="M206.32 150.084L192.137 102.065" stroke="black" stroke-width="1.5" stroke-linecap="round" stroke-linejoin="round"/>
<path d="M175.147 155.891L167.104 131.144C164.296 122.197 162.297 114.866 153.731 111.059C150.59 109.394 147.021 109.679 144.736 111.678C142.88 113.391 143.594 115.724 143.499 116.436L150.352 154.416C150.828 156.796 152.255 158.889 154.302 160.223C156.348 161.553 158.823 162.029 161.203 161.506C161.679 161.411 162.154 161.27 162.631 161.077L175.147 155.891Z" stroke="black" stroke-width="1.5" stroke-linecap="round" stroke-linejoin="round"/>
<path d="M152.823 158.889L140.164 159.512C137.832 159.606 135.548 158.889 133.739 157.414C131.931 155.986 130.693 153.893 130.265 151.611L123.792 110.87C122.412 103.922 129.551 96.4978 137.166 101.257H137.213C138.308 101.971 139.212 103.018 139.736 104.208L143.781 112.345" stroke="black" stroke-width="1.5" stroke-linecap="round" stroke-linejoin="round"/>
<path d="M125.935 101.781C124.507 100.067 121.652 94.7373 119.368 92.9762L119.13 92.7857C112.181 87.5981 102.425 93.6422 103.948 102.209L111.372 144.375C111.943 147.755 113.752 150.753 116.464 152.846C119.13 154.939 122.509 155.986 125.935 155.75L131.789 155.321" stroke="black" stroke-width="1.5" stroke-linecap="round" stroke-linejoin="round"/>
<path d="M56.6904 109.727L79.4396 110.917C80.6294 110.965 81.8192 111.345 82.8662 112.011C83.9131 112.679 84.722 113.58 85.2933 114.631C88.4818 120.481 95.8109 132.332 106.9 140.279" stroke="black" stroke-width="1.5" stroke-linecap="round" stroke-linejoin="round"/>
<path d="M240.584 81.7916L257.337 84.8372" stroke="black" stroke-width="1.5" stroke-linecap="round" stroke-linejoin="round"/>
<path d="M318.73 109.394L287.081 111.059C285.366 111.154 283.749 111.964 282.561 113.25C276.513 120.005 268.518 124.719 259.666 126.717" stroke="black" stroke-width="1.5" stroke-linecap="round" stroke-linejoin="round"/>
<path d="M50.7906 9.5957L64.4496 10.3094C57.9293 28.2514 54.0743 47.0504 52.8845 66.0869C51.4571 90.4539 55.2165 105.731 56.0734 109.157C57.7389 115.725 59.9761 122.15 62.7361 128.339C59.2619 129.956 55.3117 130.385 51.5524 129.574C49.6008 129.098 47.745 128.287 46.0791 127.193C37.1793 88.2648 38.7975 47.6688 50.7906 9.5957Z" stroke="black" stroke-width="1.5" stroke-linecap="round" stroke-linejoin="round"/>
<path d="M61.3083 128.004C61.832 128.146 62.3557 128.146 62.8789 128.004C67.8285 126.623 67.1624 111.441 67.1148 110.489L56.3115 109.775C56.9776 113.25 57.8341 116.96 58.9763 120.816C59.7381 123.337 60.4994 125.718 61.3083 128.004Z" fill="black" stroke="black" stroke-width="1.5" stroke-linecap="round" stroke-linejoin="round"/>
<path d="M58.7348 129.81C59.0205 132.049 58.8776 134.288 58.3544 136.475C57.8783 138.761 57.0218 140.948 55.8796 142.947C55.7368 143.235 55.4987 143.47 55.2607 143.659C55.0226 143.852 54.7374 143.994 54.4042 144.088C54.1185 144.182 53.7852 144.182 53.4524 144.182C53.1192 144.182 52.8335 144.041 52.5478 143.899C52.3579 143.805 52.1674 143.659 52.0246 143.518C50.5491 142.042 50.3111 139.949 49.0737 137.045C47.3131 132.859 45.8852 129.098 46.0757 127.241" stroke="black" stroke-width="1.5" stroke-linecap="round" stroke-linejoin="round"/>
<path d="M50.7886 9.5946L23.8045 1.07568L18.8549 7.92871L2.91159 2.02741C2.91159 2.02741 -6.74952 30.9631 -4.08429 57.5193C-1.41953 84.0754 -4.08429 105.777 -2.03799 115.531C0.00830336 125.289 1.95986 136.616 4.43465 137.71C6.90944 138.855 28.944 145.087 28.944 145.087L52.0736 143.47" stroke="black" stroke-width="1.5" stroke-linecap="round" stroke-linejoin="round"/>
<path d="M18.8543 7.88123C18.8543 7.88123 10.2401 36.9122 16.7599 57.0433C23.2801 77.1749 22.2332 88.3115 22.2332 88.3115" stroke="black" stroke-width="1.5" stroke-linecap="round" stroke-linejoin="round"/>
<path d="M325.297 11.4978L311.636 12.2115C326.108 49.9518 327.201 91.4518 314.733 129.904C317.208 130.809 319.777 131.238 322.393 131.097C325.009 130.955 327.583 130.286 329.912 129.098C338.859 90.2145 337.289 49.5709 325.297 11.4978Z" stroke="black" stroke-width="1.5" stroke-linecap="round" stroke-linejoin="round"/>
<path d="M315.209 128.48C314.922 129.286 314.587 129.715 314.257 129.762C312.923 129.861 311.212 123.578 309.213 111.013L319.777 109.062C318.207 115.536 316.685 122.008 315.209 128.48Z" fill="black" stroke="black" stroke-width="1.5" stroke-linecap="round" stroke-linejoin="round"/>
<path d="M317.302 130.814C316.779 135.711 317.778 140.614 320.159 144.899C320.347 145.234 320.583 145.516 320.918 145.71C321.205 145.898 321.582 146.04 321.964 146.087C322.346 146.134 322.728 146.087 323.058 145.992C323.393 145.851 323.727 145.658 324.01 145.375C325.486 143.9 325.726 141.807 326.961 138.903C328.724 134.712 330.152 130.955 329.959 129.098" stroke="black" stroke-width="1.5" stroke-linecap="round" stroke-linejoin="round"/>
<path d="M325.297 11.4986C331.006 4.31228 339.623 0.93292 347.235 2.97969C352.567 4.40752 355.805 8.02447 357.229 9.83272C357.229 9.40422 357.516 4.64509 361.42 2.21791C361.848 1.93272 362.325 1.7423 362.801 1.55186C367.651 -0.352082 372.983 2.88444 373.935 7.97685C377.744 28.2508 381.548 45.7643 380.124 59.4709C376.791 92.452 381.882 98.4962 378.027 117.011C377.074 121.721 375.934 126.005 374.84 129.762C373.746 133.618 371.748 137.187 369.032 140.185C366.322 143.183 362.989 145.516 359.279 146.992L359.133 147.039C351.327 150.037 342.809 150.848 334.579 149.372L323.963 145.422" stroke="black" stroke-width="1.5" stroke-linecap="round" stroke-linejoin="round"/>
<path d="M357.182 9.83337C357.182 9.83337 365.799 38.8643 359.228 58.9954" stroke="black" stroke-width="1.5" stroke-linecap="round" stroke-linejoin="round"/>
<path d="M171.29 43.9075C172.384 42.4321 173.003 40.7191 173.146 38.9104C173.289 37.1021 172.908 35.2934 172.004 33.7227" stroke="black" stroke-width="1.5" stroke-linecap="round" stroke-linejoin="round"/>
<path d="M106.186 114.485C107.519 113.297 108.518 111.727 108.994 109.966C109.471 108.205 109.471 106.396 108.947 104.636" stroke="black" stroke-width="1.5" stroke-linecap="round" stroke-linejoin="round"/>
<path d="M125.366 120.339C126.699 119.151 127.698 117.582 128.174 115.819C128.65 114.06 128.65 112.25 128.126 110.489" stroke="black" stroke-width="1.5" stroke-linecap="round" stroke-linejoin="round"/>
<path d="M146.542 129.004C147.874 127.811 148.874 126.241 149.349 124.483C149.826 122.72 149.826 120.91 149.302 119.152" stroke="black" stroke-width="1.5" stroke-linecap="round" stroke-linejoin="round"/>
</svg>
