<svg width="473" height="439" viewBox="0 0 473 439" fill="none" xmlns="http://www.w3.org/2000/svg">
<path d="M304.471 227.937C310.561 227.937 315.46 223.036 315.46 216.947C315.46 210.907 310.561 205.957 304.471 205.957C298.381 205.957 293.48 210.858 293.48 216.947C293.48 222.987 298.43 227.937 304.471 227.937Z" stroke="white" stroke-width="1.5" stroke-linecap="round" stroke-linejoin="round"/>
<path d="M383.87 337.686L395.652 323.429C394.515 329.369 393.328 335.31 392.191 341.201L402.634 351.151L388.028 349.765L376.147 363.081L378.226 345.161L371.494 335.805L383.87 337.686Z" stroke="white" stroke-width="1.5" stroke-linecap="round" stroke-linejoin="round"/>
<path d="M208.927 74.8223H196.848V86.9009H208.927V74.8223Z" stroke="white" stroke-width="1.5" stroke-linecap="round" stroke-linejoin="round"/>
<path d="M101.751 194.027C100.81 186.304 99.8699 178.631 98.9294 170.909L112.196 189.423L130.315 188.482L116.454 200.66L118.335 223.036L103.781 205.61L89.4245 203.68L101.751 194.027Z" fill="white"/>
<path d="M291.646 94.0801C280.31 94.0801 271.103 104.03 271.103 116.307V150.514C271.103 160.613 263.677 168.781 254.519 168.781H225.262V77.6944C225.262 73.0908 223.431 68.6847 220.163 65.4672C216.896 62.2492 212.54 60.3683 207.936 60.3683H151.997C151.155 60.2693 150.364 60.2197 149.522 60.2197H84.2761V64.1801H138.73V64.3287H151.7C160.512 65.5167 167.294 73.7836 167.294 83.7833V149.177C167.294 162.197 177.046 172.741 189.075 172.741H221.252V292.342H225.213V172.741H254.469C265.806 172.741 275.014 162.791 275.014 150.514V116.307C275.014 106.208 282.439 98.0405 291.597 98.0405H334.023V94.0801H291.646ZM189.125 168.781C179.323 168.781 171.303 159.969 171.303 149.177V83.7833C171.303 75.714 167.541 68.5857 161.799 64.3287H207.936C211.5 64.3287 214.866 65.7143 217.391 68.239C219.916 70.7637 221.302 74.1303 221.302 77.6944V168.781H189.125Z" fill="#070A15" stroke="white" stroke-width="1.5" stroke-linecap="round" stroke-linejoin="round"/>
<path d="M88.2499 60.5468C88.2499 70.6686 84.7403 80.4772 78.3191 88.3015C71.8979 96.1257 62.9624 101.481 53.0351 103.456C43.1078 105.431 32.803 103.902 23.8764 99.1308C14.9497 94.3594 7.9537 86.6405 4.08027 77.2892C0.206829 67.9379 -0.30434 57.5328 2.63386 47.8469C5.57205 38.1609 11.7778 29.7934 20.1938 24.1701C28.6097 18.5467 38.7151 16.0154 48.7882 17.0075C58.8612 17.9996 68.2786 22.4538 75.4358 29.6109" stroke="white" stroke-width="1.5"/>
<circle cx="53.5" cy="60.5469" r="44.5" fill="#070A15"/>
<path fill-rule="evenodd" clip-rule="evenodd" d="M57.7147 17.754C47.8143 16.7789 37.8821 19.2668 29.6105 24.7937C21.3388 30.3207 15.2394 38.5448 12.3516 48.0647C9.46375 57.5845 9.96615 67.8112 13.7732 77.0022C17.5802 86.1932 24.4563 93.7799 33.2299 98.4694C42.0035 103.159 52.1317 104.661 61.8888 102.721C71.6459 100.78 80.4282 95.5159 86.7393 87.8257C92.9609 80.2448 96.4014 70.7684 96.4978 60.9703H72.9993L44.5334 76.8537C43.69 77.3243 42.6516 76.7146 42.6516 75.7488V44.6917C42.6516 43.726 43.69 43.1163 44.5334 43.5868L72.9993 59.4703H98.0031V60.9703H97.9979C97.9014 71.1154 94.3405 80.9281 87.8988 88.7773C81.3676 96.7357 72.2789 102.183 62.1814 104.192C52.084 106.2 41.6025 104.645 32.5228 99.7923C23.4432 94.9391 16.3272 87.0879 12.3874 77.5763C8.44753 68.0647 7.9276 57.4812 10.9162 47.6292C13.9047 37.7773 20.2169 29.2663 28.7771 23.5465C37.3373 17.8268 47.616 15.2521 57.8617 16.2612C65.9865 17.0614 73.692 20.076 80.1642 24.9201C81.9341 23.8569 84.0062 23.2456 86.2212 23.2456C92.7268 23.2456 98.0006 28.5194 98.0006 35.025C98.0006 41.5306 92.7268 46.8044 86.2212 46.8044C79.7156 46.8044 74.4418 41.5306 74.4418 35.025C74.4418 31.3025 76.1685 27.9833 78.8647 25.8247C72.6944 21.3173 65.3986 18.5108 57.7147 17.754ZM83.9055 30.1413C83.0925 29.3283 82.2498 28.5508 81.3799 27.81C79.0599 29.3698 77.5333 32.0191 77.5333 35.025C77.5333 39.8231 81.423 43.7128 86.2212 43.7128C91.0194 43.7128 94.909 39.8231 94.909 35.025C94.909 30.2268 91.0194 26.3371 86.2212 26.3371C85.0012 26.3371 83.84 26.5886 82.7865 27.0425C83.5337 27.6956 84.2607 28.3752 84.9661 29.0807L83.9055 30.1413ZM44.1516 45.0915L71.265 60.2203L44.1516 75.349V45.0915Z" fill="white"/>
<circle cx="86.2212" cy="35.025" r="11.0294" fill="#070A15" stroke="white" stroke-width="1.5"/>
<path d="M149.227 62.3481C149.227 58.6849 148.237 55.0217 146.356 51.8532C146.306 51.7542 146.306 51.6551 146.306 51.5561C146.306 51.457 146.356 51.358 146.455 51.2594C146.554 51.1604 146.653 51.1108 146.752 51.1108C146.851 51.1108 146.95 51.1108 147.049 51.1604L162.939 60.3182C163.286 60.5163 163.583 60.8134 163.781 61.1601C163.979 61.5062 164.078 61.9024 164.078 62.2986C164.078 62.6943 163.979 63.0905 163.781 63.4371C163.583 63.7838 163.286 64.0804 162.939 64.2785L147.049 73.4368C146.95 73.4864 146.851 73.4863 146.752 73.4863C146.653 73.4863 146.554 73.4368 146.455 73.3378C146.356 73.2387 146.306 73.1892 146.306 73.0406C146.306 72.9416 146.306 72.8426 146.356 72.7435C148.237 69.625 149.177 66.0113 149.227 62.3481Z" fill="#070A15" stroke="white" stroke-width="1.5" stroke-linecap="round" stroke-linejoin="round"/>
<path d="M297.045 96.209C297.045 92.5457 296.054 88.932 294.173 85.7145C294.124 85.6155 294.124 85.5164 294.124 85.4174C294.124 85.3183 294.173 85.2193 294.272 85.1203C294.372 85.0212 294.471 84.9717 294.569 84.9717C294.668 84.9717 294.767 84.9717 294.866 85.0212L310.757 94.1795C311.105 94.3776 311.4 94.6747 311.601 95.0209C311.797 95.3676 311.895 95.7637 311.895 96.1594C311.895 96.5556 311.797 96.9518 311.601 97.298C311.4 97.6446 311.105 97.9418 310.757 98.1398L294.866 107.298C294.767 107.347 294.668 107.347 294.569 107.347C294.471 107.347 294.372 107.298 294.272 107.199C294.173 107.1 294.124 107.051 294.124 106.902C294.124 106.803 294.124 106.704 294.173 106.605C296.054 103.486 297.045 99.8722 297.045 96.209Z" fill="#070A15" stroke="white" stroke-width="1.5" stroke-linecap="round" stroke-linejoin="round"/>
<path d="M223.282 209.422C226.995 209.422 230.609 208.432 233.777 206.551C233.876 206.502 233.975 206.502 234.074 206.502C234.173 206.502 234.272 206.551 234.371 206.651C234.47 206.75 234.52 206.848 234.52 206.947C234.52 207.046 234.52 207.145 234.47 207.244L225.312 223.135C225.114 223.481 224.817 223.779 224.47 223.977C224.124 224.175 223.727 224.274 223.332 224.274C222.936 224.274 222.539 224.175 222.193 223.977C221.847 223.779 221.549 223.481 221.351 223.135L212.194 207.244C212.144 207.145 212.144 207.046 212.144 206.947C212.144 206.848 212.194 206.75 212.292 206.651C212.391 206.551 212.441 206.502 212.589 206.502C212.688 206.502 212.787 206.502 212.886 206.551C216.005 208.432 219.619 209.422 223.282 209.422Z" fill="#070A15" stroke="white" stroke-width="1.5" stroke-linecap="round" stroke-linejoin="round"/>
<path d="M231.353 259.174C231.353 262.59 228.581 265.412 225.116 265.412C221.7 265.412 218.878 262.64 218.878 259.174C218.878 255.709 221.65 252.937 225.116 252.937C228.581 252.987 231.353 255.759 231.353 259.174Z" fill="#232323" stroke="#232323" stroke-width="1.5"/>
<path d="M242.391 254.372C250.559 256.005 258.677 258.084 266.648 260.56C281.548 264.867 300.509 273.183 308.727 290.46C316.004 305.756 311.4 320.805 308.727 336.201C305.011 357.686 303.53 389.169 314.812 430.753L273.331 425.257C262.935 428.92 254.866 428.92 249.52 428.326C240.609 427.336 235.51 423.325 230.015 425.899C225.263 428.13 223.134 433.725 222.094 438.128C215.114 436.843 208.481 434.166 202.59 430.209C189.917 421.545 185.313 409.566 182.442 410.704C180.61 411.444 180.808 418.029 183.036 423.526C186.402 431.842 193.58 435.505 193.382 435.701C193.085 436.147 164.571 426.247 159.819 405.801C156.057 389.664 170.908 383.079 168.383 363.725C166.155 346.745 154.77 347.933 150.067 329.567C145.314 310.905 154.77 285.509 167.74 271.599C170.858 268.282 180.115 258.579 195.214 253.926C199.917 252.54 204.719 251.649 209.619 251.302C221.302 250.213 230.114 251.946 242.391 254.372Z" fill="url(#paint0_linear_13277_217164)"/>
<path d="M242.391 254.372C250.559 256.005 258.677 258.084 266.648 260.56C281.548 264.867 300.509 273.183 308.727 290.46C316.004 305.756 311.4 320.805 308.727 336.201C305.011 357.686 303.53 389.169 314.812 430.753L273.331 425.257C262.935 428.92 254.866 428.92 249.52 428.326C240.609 427.336 235.51 423.325 230.015 425.899C225.263 428.13 223.134 433.725 222.094 438.128C215.114 436.843 208.481 434.166 202.59 430.209C189.917 421.545 185.313 409.566 182.442 410.704C180.61 411.444 180.808 418.029 183.036 423.526C186.402 431.842 193.58 435.505 193.382 435.701C193.085 436.147 164.571 426.247 159.819 405.801C156.057 389.664 170.908 383.079 168.383 363.725C166.155 346.745 154.77 347.933 150.067 329.567C145.314 310.905 154.77 285.509 167.74 271.599C170.858 268.282 180.115 258.579 195.214 253.926C199.917 252.54 204.719 251.649 209.619 251.302C221.302 250.213 230.114 251.946 242.391 254.372Z" fill="url(#paint1_linear_13277_217164)"/>
<path d="M223.924 275.212C219.122 277.39 214.766 280.509 211.103 284.37C194.074 302.588 201.103 330.557 201.945 333.775L208.677 363.675C208.677 368.427 209.271 373.13 210.509 377.685C212.044 383.378 216.053 398.426 230.013 406.345C240.062 412.092 250.359 411.297 255.013 410.606" stroke="#232323" stroke-width="1.5" stroke-linecap="round" stroke-linejoin="round"/>
<path d="M225.164 369.171C228.184 370.26 231.501 370.21 234.52 369.121C237.54 367.983 240.065 365.854 241.649 363.082" stroke="#232323" stroke-width="1.5" stroke-linecap="round" stroke-linejoin="round"/>
<path d="M212.937 326.449L215.363 332.538" stroke="#232323" stroke-width="1.5" stroke-linecap="round" stroke-linejoin="round"/>
<path d="M217.836 265.461C217.836 265.461 222.737 267.292 226.4 281.946C230.063 296.599 223.331 317.341 234.964 328.924C243.281 337.241 248.132 340.508 250.855 345.756C252.043 348.132 252.835 350.706 253.231 353.33C257.241 373.973 251.4 400.059 256.895 412.488C260.805 421.349 273.775 430.655 314.861 430.802" stroke="#232323" stroke-width="1.5" stroke-linecap="round" stroke-linejoin="round"/>
<path d="M199.52 310.607C199.52 310.607 183.678 323.429 185.51 341.696C187.342 360.012 188.579 367.932 182.441 379.514" stroke="#232323" stroke-width="1.5" stroke-linecap="round" stroke-linejoin="round"/>
<path d="M193.431 356.943C193.431 356.943 199.52 369.765 200.163 385.011" stroke="#232323" stroke-width="1.5" stroke-linecap="round" stroke-linejoin="round"/>
<path d="M166.601 315.459C166.601 315.459 166.601 302.044 175.165 297.143C183.729 292.242 195.313 277.639 195.313 277.639" stroke="#232323" stroke-width="1.5" stroke-linecap="round" stroke-linejoin="round"/>
<path d="M245.907 277.043L259.323 306.943" stroke="#232323" stroke-width="1.5" stroke-linecap="round" stroke-linejoin="round"/>
<path d="M248.332 261.154L255.015 266.648" stroke="#232323" stroke-width="1.5" stroke-linecap="round" stroke-linejoin="round"/>
<path d="M203.828 320.954C203.828 320.954 212.985 314.173 217.837 320.212C222.738 326.202 220.906 360.013 220.906 360.013L231.302 359.27" stroke="#232323" stroke-width="1.5" stroke-linecap="round" stroke-linejoin="round"/>
<path d="M258.529 252.937C269.568 254.422 280.212 258.036 289.865 263.58C301.103 270.016 307.737 277.243 309.071 278.728C309.071 278.728 315.41 285.758 319.568 293.827C330.409 315.014 312.635 335.261 314.17 372.733C314.17 372.733 314.268 375.16 325.31 427.336" stroke="white" stroke-width="1.5" stroke-linecap="round" stroke-linejoin="round"/>
<path d="M327.041 388.674L336.151 423.575" stroke="white" stroke-width="1.5" stroke-linecap="round" stroke-linejoin="round"/>
<path d="M405.062 166.305C438.33 165.909 447.636 164.672 454.217 157.593C465.754 145.068 460.606 123.089 458.375 115.217C459.071 109.921 459.762 104.624 460.405 99.327L469.912 98.6832L461.003 89.773C461.841 86.654 462.484 83.486 462.979 80.268C464.513 69.7241 464.268 58.9815 462.336 48.5361L472.486 39.6255C462.734 39.3288 457.041 36.2594 453.623 33.4375C448.524 29.2301 445.95 23.4378 436.349 17.2499C434.863 16.3095 433.726 15.6662 433.079 15.27C424.964 10.7154 415.903 7.99309 406.596 7.29977L418.477 2.89419C412.588 1.06233 398.329 -2.45231 381.648 2.64658C355.754 10.5673 344.668 32.9923 342.834 36.9032C339.868 43.1406 337.539 49.6747 335.906 56.3578C333.68 65.4666 329.718 82.3965 335.313 102.347C338.774 114.475 345.065 125.663 353.626 134.92C350.459 145.217 347.291 155.513 344.124 165.761C368.674 166.503 389.42 166.503 405.062 166.305Z" fill="url(#paint2_linear_13277_217164)"/>
<path d="M405.062 166.305C438.33 165.909 447.636 164.672 454.217 157.593C465.754 145.068 460.606 123.089 458.375 115.217C459.071 109.921 459.762 104.624 460.405 99.327L469.912 98.6832L461.003 89.773C461.841 86.654 462.484 83.486 462.979 80.268C464.513 69.7241 464.268 58.9815 462.336 48.5361L472.486 39.6255C462.734 39.3288 457.041 36.2594 453.623 33.4375C448.524 29.2301 445.95 23.4378 436.349 17.2499C434.863 16.3095 433.726 15.6662 433.079 15.27C424.964 10.7154 415.903 7.99309 406.596 7.29977L418.477 2.89419C412.588 1.06233 398.329 -2.45231 381.648 2.64658C355.754 10.5673 344.668 32.9923 342.834 36.9032C339.868 43.1406 337.539 49.6747 335.906 56.3578C333.68 65.4666 329.718 82.3965 335.313 102.347C338.774 114.475 345.065 125.663 353.626 134.92C350.459 145.217 347.291 155.513 344.124 165.761C368.674 166.503 389.42 166.503 405.062 166.305Z" fill="url(#paint3_linear_13277_217164)"/>
<path d="M371.151 60.4666L392.637 25.7153C392.637 25.7153 447.337 47.0514 448.328 47.1999C448.328 47.1999 457.237 51.655 468.029 46.5561" stroke="#232323" stroke-width="1.5" stroke-linecap="round" stroke-linejoin="round"/>
<path d="M350.263 56.3574L360.957 32.3481" stroke="#232323" stroke-width="1.5" stroke-linecap="round" stroke-linejoin="round"/>
<path d="M409.121 7.24951L394.367 10.2194" stroke="#232323" stroke-width="1.5" stroke-linecap="round" stroke-linejoin="round"/>
<path d="M414.221 68.7832L415.059 76.4563" stroke="#232323" stroke-width="1.5" stroke-linecap="round" stroke-linejoin="round"/>
<path d="M448.328 70.7139C448.524 72.4962 448.774 76.308 448.97 78.0403" stroke="#232323" stroke-width="1.5" stroke-linecap="round" stroke-linejoin="round"/>
<path d="M422.287 109.921C424.91 112.396 428.278 113.98 431.892 114.376C436.197 114.772 440.551 113.436 443.92 110.713" stroke="#232323" stroke-width="1.5" stroke-linecap="round" stroke-linejoin="round"/>
<path d="M353.675 135.366L362.585 152.048V132.99L374.666 139.327C369.861 127.396 366.944 114.773 366.1 101.951C366.002 100.466 365.904 98.9811 365.806 97.5454L363.232 101.258C359.961 101.209 358.231 100.07 357.338 99.3768C354.47 96.9512 354.416 92.8427 354.367 84.6249C354.318 78.7836 355.014 76.9518 355.705 75.6151C356.152 74.7242 358.427 70.3677 361.594 70.3181C364.517 70.3181 367.782 73.9819 368.429 79.526L371.548 44.1309" stroke="#232323" stroke-width="1.5" stroke-linecap="round" stroke-linejoin="round"/>
<path d="M395.608 55.4674C396.942 54.4279 398.476 53.5865 400.06 52.9427C405.307 50.8637 411.298 51.3585 418.477 54.2298C432.735 59.8735 440.11 70.6155 461.052 89.1792L471.839 98.7337H434.962" stroke="#232323" stroke-width="1.5" stroke-linecap="round" stroke-linejoin="round"/>
<path d="M405.753 68.1396L422.929 68.7834" stroke="#232323" stroke-width="1.5" stroke-linecap="round" stroke-linejoin="round"/>
<path d="M441.346 70.0703C447.043 70.2679 449.617 70.5155 455.31 70.7136" stroke="#232323" stroke-width="1.5" stroke-linecap="round" stroke-linejoin="round"/>
<path d="M393.676 153.929C393.676 153.929 403.478 165.81 418.281 166.553" stroke="#232323" stroke-width="1.5" stroke-linecap="round" stroke-linejoin="round"/>
<path d="M331.645 113.386C334.023 117.94 336.744 122.792 340.01 127.791C342.29 131.306 344.565 134.623 346.845 137.643L335.455 165.711" stroke="white" stroke-width="1.5" stroke-linecap="round" stroke-linejoin="round"/>
<path d="M342.981 23.1904C321.005 56.5561 323.28 83.09 323.28 83.09" stroke="white" stroke-width="1.5" stroke-linecap="round" stroke-linejoin="round"/>
<defs>
<linearGradient id="paint0_linear_13277_217164" x1="148.922" y1="344.703" x2="314.141" y2="344.303" gradientUnits="userSpaceOnUse">
<stop offset="0.1382" stop-color="#FEC45D"/>
<stop offset="0.7159" stop-color="#FABCC3"/>
<stop offset="1" stop-color="#F8B8F0"/>
</linearGradient>
<linearGradient id="paint1_linear_13277_217164" x1="230.225" y1="276.965" x2="232.264" y2="480.641" gradientUnits="userSpaceOnUse">
<stop stop-color="#EFDA91"/>
<stop offset="1" stop-color="#CDF7F4"/>
</linearGradient>
<linearGradient id="paint2_linear_13277_217164" x1="332.474" y1="83.3399" x2="471.863" y2="83.0197" gradientUnits="userSpaceOnUse">
<stop offset="0.1382" stop-color="#FEC45D"/>
<stop offset="0.7159" stop-color="#FABCC3"/>
<stop offset="1" stop-color="#F8B8F0"/>
</linearGradient>
<linearGradient id="paint3_linear_13277_217164" x1="401.129" y1="23.1141" x2="403.04" y2="204.217" gradientUnits="userSpaceOnUse">
<stop stop-color="#EFDA91"/>
<stop offset="1" stop-color="#CDF7F4"/>
</linearGradient>
</defs>
</svg>
