<svg width="511" height="613" viewBox="0 0 511 613" fill="none" xmlns="http://www.w3.org/2000/svg">
<path d="M432.631 163H64.3651C56.9601 163 51 169.8 51 178.248V596.754C51 605.197 56.9601 612 64.3651 612H432.631C440.037 612 446 605.197 446 596.754V178.248C446 169.8 440.037 163 432.631 163Z" stroke="url(#paint0_linear_13229_217246)" stroke-width="1.5" stroke-miterlimit="10"/>
<path d="M52.2375 208.659H446.368" stroke="white" stroke-width="1.5" stroke-miterlimit="10"/>
<path d="M363.638 195.093C368.763 195.093 372.926 190.933 372.926 185.807C372.926 180.681 368.763 176.52 363.638 176.52C358.514 176.52 354.351 180.681 354.351 185.807C354.291 190.933 358.454 195.093 363.638 195.093Z" fill="white"/>
<path d="M390.11 195.093C395.241 195.093 399.398 190.933 399.398 185.807C399.398 180.681 395.241 176.52 390.11 176.52C384.985 176.52 380.828 180.681 380.828 185.807C380.828 190.933 384.985 195.093 390.11 195.093Z" fill="white"/>
<path d="M416.647 195.093C421.772 195.093 425.935 190.933 425.935 185.807C425.935 180.681 421.772 176.52 416.647 176.52C411.522 176.52 407.359 180.681 407.359 185.807C407.3 190.933 411.463 195.093 416.647 195.093Z" fill="white"/>
<path d="M70.8745 315.936H78.3518" stroke="white" stroke-width="1.5" stroke-miterlimit="10"/>
<path d="M70.8745 347.233H78.3518" stroke="white" stroke-width="1.5" stroke-miterlimit="10"/>
<path d="M70.8745 378.53H78.3518" stroke="white" stroke-width="1.5" stroke-miterlimit="10"/>
<path d="M70.8745 409.827H78.3518" stroke="white" stroke-width="1.5" stroke-miterlimit="10"/>
<path d="M70.8745 441.125H78.3518" stroke="white" stroke-width="1.5" stroke-miterlimit="10"/>
<path d="M70.8745 472.361H78.3518" stroke="white" stroke-width="1.5" stroke-miterlimit="10"/>
<path d="M70.8745 503.656H78.3518" stroke="white" stroke-width="1.5" stroke-miterlimit="10"/>
<path d="M179.959 65H4.96268C2.24923 65 0.078125 67.1711 0.078125 69.8846V236.68C0.078125 239.394 2.24923 241.564 4.96268 241.564H179.959C182.672 241.564 184.843 239.394 184.843 236.68V69.8846C184.843 67.1711 182.672 65 179.959 65Z" fill="url(#paint1_linear_13229_217246)"/>
<path d="M179.959 65H4.96268C2.24923 65 0.078125 67.1711 0.078125 69.8846V236.68C0.078125 239.394 2.24923 241.564 4.96268 241.564H179.959C182.672 241.564 184.843 239.394 184.843 236.68V69.8846C184.843 67.1711 182.672 65 179.959 65Z" fill="url(#paint2_linear_13229_217246)"/>
<path d="M71.4777 86.5887H56.8246V154.248H71.4777V86.5887Z" fill="white" stroke="#232323" stroke-width="1.5" stroke-miterlimit="10"/>
<path d="M43.0137 107.512H28.3606V121.502H43.0137V107.512Z" fill="white" stroke="#232323" stroke-width="1.5" stroke-miterlimit="10"/>
<path d="M100.842 96.7802H86.1894V127.956H100.842V96.7802Z" fill="white" stroke="#232323" stroke-width="1.5" stroke-miterlimit="10"/>
<path d="M130.268 121.866H115.615V176.439H130.268V121.866Z" fill="white" stroke="#232323" stroke-width="1.5" stroke-miterlimit="10"/>
<path d="M159.637 98.5272H144.924V121.442H159.637V98.5272Z" fill="white" stroke="#232323" stroke-width="1.5" stroke-miterlimit="10"/>
<path d="M43.0137 107.512H28.3606V219.251H43.0137V107.512Z" stroke="#232323" stroke-width="1.5" stroke-miterlimit="10"/>
<path d="M71.4777 86.5887H56.8246V219.253H71.4777V86.5887Z" stroke="#232323" stroke-width="1.5" stroke-miterlimit="10"/>
<path d="M100.842 96.7802H86.1894V219.253H100.842V96.7802Z" stroke="#232323" stroke-width="1.5" stroke-miterlimit="10"/>
<path d="M130.268 121.866H115.615V219.253H130.268V121.866Z" stroke="#232323" stroke-width="1.5" stroke-miterlimit="10"/>
<path d="M159.637 98.5272H144.924V219.252H159.637V98.5272Z" stroke="#232323" stroke-width="1.5" stroke-miterlimit="10"/>
<path d="M367.497 306.409C367.801 305.987 368.226 305.626 368.644 305.324C369.068 305.022 369.611 304.841 370.089 304.781C370.633 304.721 371.176 304.721 371.66 304.902C372.144 305.022 372.628 305.264 373.046 305.626C373.47 305.927 373.828 306.349 374.073 306.831C374.312 307.313 374.497 307.796 374.557 308.339C374.616 308.881 374.557 309.424 374.372 309.907C374.192 310.389 373.953 310.871 373.649 311.294L260.343 456.621C259.86 457.224 259.257 457.706 258.534 457.948C257.81 458.189 257.026 458.249 256.302 458.008C255.579 457.827 254.915 457.405 254.373 456.863C253.83 456.32 253.528 455.596 253.408 454.812L229.583 343.689C229.523 343.146 229.222 342.663 228.86 342.301C228.498 341.94 227.955 341.699 227.412 341.699C226.869 341.638 226.327 341.819 225.905 342.121C225.483 342.422 225.121 342.905 225 343.387L146 490.387" stroke="white" stroke-width="1.5" stroke-linecap="round" stroke-linejoin="round"/>
<path d="M381.909 302.55C381.909 306.953 378.296 310.57 373.894 310.57C369.492 310.57 365.872 306.953 365.872 302.55C365.872 298.148 369.492 294.53 373.894 294.53C378.355 294.53 381.909 298.148 381.909 302.55Z" fill="#232323" stroke="white" stroke-width="1.5"/>
<path d="M367.296 295.02C366.202 285.645 365.142 276.196 364.049 266.821C369.389 274.396 374.706 281.915 380.046 289.49L402.14 288.549L385.111 303.203C385.813 312.319 386.497 321.378 387.2 330.495L369.586 309.137L352.117 306.65L367.296 295.02Z" fill="white" stroke="white" stroke-width="1.5" stroke-linecap="round" stroke-linejoin="round"/>
<path d="M347.123 23.8538H251C250.277 23.8538 249.613 23.5521 249.07 23.0695C248.588 22.5875 248.287 21.8636 248.287 21.1397C248.287 20.4164 248.588 19.7528 249.07 19.2105C249.553 18.7279 250.277 18.4263 251 18.4263H347.123C347.846 18.4263 348.509 18.7279 349.053 19.2105C349.531 19.6925 349.835 20.4164 349.835 21.1397C349.835 21.8636 349.531 22.5272 349.053 23.0695C348.509 23.5521 347.846 23.8538 347.123 23.8538Z" stroke="white" stroke-width="1.5" stroke-linecap="round" stroke-linejoin="round"/>
<path d="M396.746 72.2778H349.047C348.324 72.2778 347.661 71.9762 347.117 71.4936C346.634 71.0116 346.335 70.2877 346.335 69.5644C346.335 68.8405 346.634 68.1775 347.117 67.6346C347.601 67.152 348.324 66.8503 349.047 66.8503H396.746C397.468 66.8503 398.131 67.152 398.675 67.6346C399.159 68.1172 399.457 68.8405 399.457 69.5644C399.457 70.2877 399.159 70.9513 398.675 71.4936C398.131 71.9762 397.468 72.2778 396.746 72.2778Z" stroke="white" stroke-width="1.5" stroke-linecap="round" stroke-linejoin="round"/>
<path d="M395.24 49.1821H250.697C249.973 49.1821 249.31 48.8805 248.767 48.3979C248.285 47.9159 247.983 47.192 247.983 46.4687C247.983 45.7448 248.285 45.0818 248.767 44.5389C249.249 44.0563 249.973 43.7546 250.697 43.7546H395.24C395.963 43.7546 396.626 44.0563 397.17 44.5389C397.653 45.0215 397.952 45.7448 397.952 46.4687C397.952 47.192 397.653 47.8556 397.17 48.3979C396.686 48.8805 395.963 49.1821 395.24 49.1821Z" stroke="white" stroke-width="1.5" stroke-linecap="round" stroke-linejoin="round"/>
<path d="M374.676 23.8538H356.764C356.041 23.8538 355.378 23.5521 354.834 23.0695C354.351 22.5875 354.052 21.8636 354.052 21.1397C354.052 20.4164 354.351 19.7528 354.834 19.2105C355.318 18.7279 356.041 18.4263 356.764 18.4263H374.676C375.399 18.4263 376.062 18.7279 376.605 19.2105C377.089 19.6925 377.388 20.4164 377.388 21.1397C377.388 21.8636 377.089 22.5272 376.605 23.0695C376.062 23.5521 375.399 23.8538 374.676 23.8538Z" stroke="white" stroke-width="1.5" stroke-linecap="round" stroke-linejoin="round"/>
<path d="M464.471 98.3891C489.557 98.3891 509.936 78.0672 509.936 52.921C509.936 27.7755 489.617 7.45361 464.471 7.45361C439.385 7.45361 419 27.7755 419 52.921C419 78.0672 439.385 98.3891 464.471 98.3891Z" stroke="white" stroke-width="1.5" stroke-linecap="round" stroke-linejoin="round"/>
<path d="M458.498 91.9355C483.584 91.9355 503.964 71.6136 503.964 46.468C503.964 21.3219 483.644 1 458.498 1C433.413 1 413.027 21.3219 413.027 46.468C413.027 71.6136 433.413 91.9355 458.498 91.9355Z" fill="#070A15" stroke="white" stroke-width="1.5" stroke-linecap="round" stroke-linejoin="round"/>
<path d="M451.683 65.946C451.385 65.946 451.08 65.8857 450.841 65.765C450.537 65.6444 450.298 65.4634 450.119 65.2824L432.69 47.8556C432.505 47.6746 432.326 47.3729 432.206 47.1316C432.087 46.83 432.027 46.5887 432.027 46.2877C432.027 45.9861 432.087 45.6844 432.206 45.4431C432.326 45.1415 432.505 44.9002 432.69 44.7198L451.08 26.3277C451.504 25.9055 452.108 25.7245 452.651 25.7245C453.254 25.7245 453.792 25.9658 454.216 26.3881C454.64 26.8097 454.879 27.3527 454.879 27.9559C454.879 28.5586 454.7 29.1015 454.276 29.5232L437.51 46.2877L453.374 62.1467C453.672 62.4483 453.917 62.8706 453.977 63.2923C454.037 63.7146 454.037 64.1972 453.852 64.6194C453.672 65.0411 453.374 65.4031 453.01 65.6444C452.585 65.8254 452.167 65.946 451.683 65.946Z" stroke="white" stroke-width="1.5" stroke-linecap="round" stroke-linejoin="round"/>
<path d="M466.335 65.9447C465.911 65.9447 465.433 65.8241 465.069 65.5828C464.704 65.3415 464.406 64.9801 464.226 64.5578C464.041 64.1356 463.982 63.7133 464.107 63.2313C464.167 62.809 464.406 62.3867 464.71 62.0851L480.568 46.2261L463.802 29.4622C463.378 29.0399 463.08 28.497 463.08 27.8943C463.08 27.2911 463.259 26.6884 463.683 26.2661C464.107 25.8439 464.645 25.5422 465.248 25.5422C465.851 25.5422 466.454 25.7232 466.878 26.1455C466.938 26.2058 466.938 26.2058 466.998 26.2661L485.388 44.6582C485.812 45.0805 486.057 45.6832 486.057 46.2261C486.057 46.7684 485.812 47.3717 485.388 47.794L467.965 65.2208C467.482 65.7034 466.938 65.9447 466.335 65.9447Z" stroke="white" stroke-width="1.5" stroke-linecap="round" stroke-linejoin="round"/>
<defs>
<linearGradient id="paint0_linear_13229_217246" x1="248.5" y1="163" x2="248.5" y2="592.636" gradientUnits="userSpaceOnUse">
<stop stop-color="white"/>
<stop offset="1" stop-color="white" stop-opacity="0"/>
</linearGradient>
<linearGradient id="paint1_linear_13229_217246" x1="0.0840978" y1="153.564" x2="184.041" y2="153.037" gradientUnits="userSpaceOnUse">
<stop offset="0.1382" stop-color="#FEC45D"/>
<stop offset="0.7159" stop-color="#FABCC3"/>
<stop offset="1" stop-color="#F8B8F0"/>
</linearGradient>
<linearGradient id="paint2_linear_13229_217246" x1="-0.165558" y1="153.797" x2="184.442" y2="153.27" gradientUnits="userSpaceOnUse">
<stop stop-color="#EED991"/>
<stop offset="1" stop-color="#CCF7F4"/>
</linearGradient>
</defs>
</svg>
