<svg width="358" height="287" viewBox="0 0 358 287" fill="none" xmlns="http://www.w3.org/2000/svg">
<path fill-rule="evenodd" clip-rule="evenodd" d="M19.8052 208.062C19.8052 191.94 28.2358 177.787 40.929 169.772L40.929 171.558C29.1035 179.391 21.3052 192.816 21.3052 208.062C21.3052 232.226 40.894 251.815 65.0581 251.815C68.9657 251.815 72.7536 251.303 76.3585 250.342L76.3585 251.893C72.7464 252.821 68.9599 253.315 65.0581 253.315C40.0656 253.315 19.8052 233.055 19.8052 208.062ZM28.2593 208.062C28.2593 196.97 33.1668 187.024 40.929 180.278L40.929 181.38L41.9469 181.38C34.4812 187.853 29.7593 197.406 29.7593 208.062C29.7593 227.557 45.5631 243.361 65.0581 243.361C69.0102 243.361 72.8107 242.711 76.3585 241.513L76.3585 243.093C72.7979 244.241 69.0004 244.861 65.0581 244.861C44.7347 244.861 28.2593 228.385 28.2593 208.062ZM53.9478 172.97L53.9478 174.547C57.4412 173.39 61.1764 172.763 65.0581 172.763C84.5531 172.763 100.357 188.567 100.357 208.062C100.357 219.898 94.5312 230.374 85.5908 236.778L85.5908 238.604C95.4028 231.995 101.857 220.782 101.857 208.062C101.857 187.739 85.3815 171.263 65.0581 171.263C61.1859 171.263 57.4533 171.861 53.9478 172.97ZM53.9478 164.183L53.9478 165.732C57.4956 164.804 61.2191 164.309 65.0581 164.309C89.2222 164.309 108.811 183.898 108.811 208.062C108.811 224.805 99.406 239.352 85.5908 246.708L85.5908 248.399C100.263 240.916 110.311 225.662 110.311 208.062C110.311 183.07 90.0506 162.809 65.0581 162.809C61.2246 162.809 57.5025 163.286 53.9478 164.183Z" fill="white"/>
<path d="M54.3434 164.911L54.3828 173.282" stroke="white" stroke-width="1.5"/>
<path d="M75.8878 242.504L75.9272 250.875" stroke="white" stroke-width="1.5"/>
<path d="M60.2406 220.688L59.7857 220.223L60.2406 220.688C60.7639 220.175 61.0604 219.476 61.0604 218.745L61.0604 211.557L66.1587 211.557L66.1587 218.745C66.1587 219.476 66.4552 220.175 66.9785 220.688C67.5013 221.2 68.2077 221.486 68.9415 221.486C69.6754 221.486 70.3818 221.2 70.9046 220.688C71.4279 220.175 71.7243 219.476 71.7243 218.745L71.7243 202.024C71.7243 199.908 70.8661 197.88 69.3429 196.387C67.8201 194.895 65.7575 194.059 63.6096 194.059C61.4616 194.059 59.399 194.895 57.8762 196.387C56.353 197.88 55.4948 199.908 55.4948 202.024L55.4948 218.745C55.4948 219.476 55.7912 220.175 56.3145 220.688L56.7672 220.226L56.3145 220.688C56.8373 221.2 57.5437 221.486 58.2776 221.486C59.0114 221.486 59.7178 221.2 60.2406 220.688ZM66.1587 206.077L61.0604 206.077L61.0604 202.024C61.0604 201.37 61.3257 200.739 61.8023 200.272C62.2794 199.804 62.9293 199.539 63.6096 199.539C64.2898 199.539 64.9397 199.804 65.4168 200.272C65.8934 200.739 66.1587 201.37 66.1587 202.024L66.1587 206.077Z" stroke="white" stroke-width="1.3"/>
<path d="M45.3339 167.879C46.4373 167.828 47.3732 168.681 47.4242 169.784L48.0979 184.353C48.1802 186.133 46.0695 187.124 44.7527 185.924L29.5097 172.028C28.1929 170.828 28.9848 168.635 30.7647 168.552L45.3339 167.879Z" fill="url(#paint0_radial_13318_223379)"/>
<path d="M85.1367 250.339C84.0333 250.39 83.0974 249.537 83.0464 248.434L82.3637 233.671C82.2833 231.933 84.3077 230.928 85.6435 232.044L102.43 246.061C103.831 247.23 103.063 249.51 101.241 249.594L85.1367 250.339Z" fill="white"/>
<path d="M85.1367 250.339C84.0333 250.39 83.0974 249.537 83.0464 248.434L82.3637 233.671C82.2833 231.933 84.3077 230.928 85.6435 232.044L102.43 246.061C103.831 247.23 103.063 249.51 101.241 249.594L85.1367 250.339Z" fill="url(#paint1_radial_13318_223379)"/>
<path d="M85.1367 250.339C84.0333 250.39 83.0974 249.537 83.0464 248.434L82.3637 233.671C82.2833 231.933 84.3077 230.928 85.6435 232.044L102.43 246.061C103.831 247.23 103.063 249.51 101.241 249.594L85.1367 250.339Z" fill="url(#paint2_radial_13318_223379)"/>
<path d="M190.243 249.789L321.946 199.623C324.068 198.827 325.992 197.6 327.647 196.042C329.306 194.484 330.633 192.627 331.562 190.538C332.488 188.482 332.988 186.227 333.053 183.972C333.119 181.718 332.722 179.463 331.927 177.341L273.901 24.981C272.275 20.7036 268.994 17.2552 264.814 15.3651C260.636 13.4754 255.897 13.3427 251.618 14.9674L221.246 26.5394" stroke="white" stroke-width="2" stroke-miterlimit="10"/>
<path d="M222.903 30.4184C226.517 39.8684 226.517 50.3129 222.87 59.7297L165.573 81.5807C159.671 78.5303 154.565 74.0539 150.752 68.583C146.939 63.1118 144.518 56.812 143.689 50.1805C142.86 43.5819 143.656 36.8508 145.977 30.6174C148.331 24.3836 152.144 18.8132 157.118 14.37C162.092 9.92677 168.06 6.77686 174.526 5.15215C180.992 3.52745 187.756 3.52745 194.222 5.08581C200.687 6.67735 206.689 9.79408 211.696 14.2041C216.669 18.6474 220.516 24.2177 222.903 30.4184Z" fill="#232323" stroke="white" stroke-width="2" stroke-linecap="round" stroke-linejoin="round"/>
<path d="M159.24 31.0483L162.191 38.8069L169.386 36.0551L179.201 61.8185L171.674 64.6702L174.99 73.3573L182.517 70.5059L184.44 75.5459L190.375 73.291L188.353 67.986L190.541 67.157L192.564 72.462L198.2 70.3069L196.045 64.6702L201.682 62.4816C203.937 61.6195 205.727 59.9284 206.722 57.7402C207.717 55.5519 207.783 53.0647 206.921 50.8101L205.13 46.1018C204.699 44.9744 204.069 43.9796 203.24 43.1175C202.411 42.2554 201.45 41.5591 200.355 41.0619C199.261 40.5643 198.101 40.2993 196.907 40.2661C195.714 40.2329 194.52 40.4316 193.426 40.8628C195.548 39.7354 197.206 37.8788 198.068 35.657C198.93 33.4024 198.93 30.9156 198.068 28.6606L197.405 26.9367C196.476 24.5159 194.619 22.5267 192.232 21.4655C189.845 20.4044 187.159 20.3049 184.705 21.2334L179.499 23.2229L177.245 17.2545L172.238 19.1778L174.526 25.1794L171.707 26.2402L169.419 20.2386L164.081 22.2613L166.369 28.2629L159.24 31.0483Z" fill="#232323" stroke="white" stroke-width="2" stroke-linecap="round" stroke-linejoin="round"/>
<path d="M175.254 34.0658L178.503 42.5211L188.019 38.9068C189.147 38.4759 190.042 37.6138 190.539 36.5195C191.037 35.4252 191.07 34.1654 190.639 33.0379C190.208 31.9107 189.346 31.0155 188.251 30.5179C187.157 30.0207 185.897 29.9875 184.77 30.3852C180.758 31.8444 175.221 33.9 175.254 34.0658Z" fill="#232323" stroke="white" stroke-width="2" stroke-linecap="round" stroke-linejoin="round"/>
<path d="M181.82 51.2742L185.036 59.7294L195.812 55.6179C196.94 55.187 197.868 54.3249 198.365 53.2306C198.863 52.1363 198.896 50.8765 198.465 49.749C198.034 48.6215 197.172 47.7263 196.111 47.229C195.016 46.7318 193.789 46.6986 192.662 47.0963C188.551 48.5884 181.787 51.1415 181.82 51.2742Z" fill="#232323" stroke="white" stroke-width="2" stroke-linecap="round" stroke-linejoin="round"/>
<path d="M223.898 32.1091C227.412 41.2606 227.977 51.3074 225.522 60.7906L152.907 88.4441C146.707 84.2662 141.567 78.6959 137.92 72.1639C134.273 65.6315 132.217 58.3369 131.918 50.8765C131.62 43.416 133.112 35.9884 136.229 29.1914C139.379 22.394 144.054 16.4256 149.89 11.7834C155.759 7.14144 162.622 3.92519 169.95 2.43284C177.278 0.940818 184.838 1.17302 192.066 3.16227C199.261 5.15185 205.926 8.79931 211.43 13.8061C216.968 18.8793 221.245 25.1127 223.898 32.1091Z" fill="#070A15" stroke="white" stroke-width="2" stroke-linecap="round" stroke-linejoin="round"/>
<path d="M217.641 34.2881C221.255 43.7378 221.255 54.1826 217.607 63.5995L160.311 85.4173C154.376 82.3669 149.302 77.8905 145.49 72.4193C141.676 66.9484 139.256 60.6483 138.427 54.0168C137.598 47.4184 138.394 40.6874 140.715 34.4536C143.069 28.2202 146.882 22.6495 151.856 18.2066C156.829 13.7633 162.798 10.6134 169.263 8.98873C175.729 7.36402 182.494 7.36403 188.959 8.92239C195.425 10.5139 201.426 13.6307 206.433 18.0407C211.407 22.5171 215.253 28.0543 217.641 34.2881Z" fill="#070A15" stroke="white" stroke-width="2" stroke-linecap="round" stroke-linejoin="round"/>
<path fill-rule="evenodd" clip-rule="evenodd" d="M172.163 28.155C176.275 26.4899 180.83 26.2649 185.086 27.5168L185.509 26.0777C180.928 24.7304 176.026 24.9725 171.6 26.7647C167.173 28.5569 163.484 31.7938 161.13 35.9491C158.777 40.1043 157.899 44.9334 158.638 49.6511C159.378 54.3688 161.692 58.6976 165.203 61.9335C168.715 65.1694 173.218 67.1222 177.981 67.4741C182.743 67.8261 187.484 66.5566 191.434 63.8721C195.383 61.1876 198.308 57.2459 199.733 52.6882C201.099 48.3199 201.009 43.6319 199.488 39.3266L199.497 39.3231L198.958 37.9234L187.961 42.1604L173.174 40.0586C172.218 39.9226 171.468 40.8649 171.815 41.7661L176.793 54.6854C177.14 55.5866 178.328 55.7822 178.946 55.0398L188.5 43.5601L198.088 39.8661C199.488 43.8553 199.566 48.1955 198.301 52.2406C196.977 56.4752 194.26 60.1374 190.59 62.6315C186.921 65.1257 182.516 66.3052 178.091 65.9782C173.667 65.6512 169.483 63.8369 166.22 60.8304C162.957 57.8239 160.807 53.802 160.12 49.4188C159.433 45.0356 160.249 40.5489 162.436 36.6882C164.622 32.8276 168.05 29.8202 172.163 28.155ZM173.359 41.5999L186.612 43.4838L178.049 53.773L173.359 41.5999Z" fill="white"/>
<circle cx="189.694" cy="29.4593" r="4.60032" transform="rotate(-21.0705 189.694 29.4593)" stroke="white" stroke-width="2"/>
<path d="M120.203 102.38L114.605 87.7685L254.494 34.5775L260.062 49.1894L120.203 102.38Z" fill="url(#paint3_linear_13318_223379)"/>
<path d="M133.211 60.0621L108.11 69.6114C104.197 71.1037 101.014 74.0878 99.2902 77.9342C97.5659 81.7804 97.4332 86.1241 98.9253 90.0366L100.219 93.4187C101.711 97.3315 104.695 100.515 108.541 102.239C112.387 103.963 116.731 104.095 120.644 102.603L259.608 49.286C265.477 47.031 272.173 50.3468 274.429 56.2157L320.983 178.435C321.512 179.828 321.778 181.32 321.712 182.812C321.68 184.304 321.315 185.763 320.717 187.156C320.12 188.515 319.226 189.742 318.133 190.77C317.036 191.798 315.778 192.593 314.385 193.124L189.114 240.871L171.873 247.405C168.855 248.564 165.506 248.466 162.588 247.139C159.67 245.812 157.349 243.392 156.189 240.407C152.939 231.919 149.06 221.773 149.126 221.739L100.219 93.3192" fill="#070A15"/>
<path d="M133.211 60.0621L108.11 69.6114C104.197 71.1037 101.014 74.0878 99.2902 77.9342C97.5659 81.7804 97.4332 86.1241 98.9253 90.0366L100.219 93.4187C101.711 97.3315 104.695 100.515 108.541 102.239C112.387 103.963 116.731 104.095 120.644 102.603L259.608 49.286C265.477 47.031 272.173 50.3468 274.429 56.2157L320.983 178.435C321.512 179.828 321.778 181.32 321.712 182.812C321.68 184.304 321.315 185.763 320.717 187.156C320.12 188.515 319.226 189.742 318.133 190.77C317.036 191.798 315.778 192.593 314.385 193.124L189.114 240.871L171.873 247.405C168.855 248.564 165.506 248.466 162.588 247.139C159.67 245.812 157.349 243.392 156.189 240.407C152.939 231.919 149.06 221.772 149.126 221.739L100.219 93.3192" stroke="white" stroke-width="2" stroke-miterlimit="10"/>
<path d="M299.729 140.735L300.425 142.592" stroke="white" stroke-width="2" stroke-miterlimit="10"/>
<path d="M301.817 146.239L312.428 174.091C313.39 176.611 313.288 179.396 312.195 181.85C311.101 184.304 309.078 186.227 306.559 187.189L194.817 229.763L183.079 234.239" stroke="white" stroke-width="2" stroke-miterlimit="10" stroke-dasharray="11.79 11.79"/>
<path d="M181.257 234.936L179.4 235.632" stroke="white" stroke-width="2" stroke-miterlimit="10"/>
<path d="M133.741 106.483L135.598 105.786" stroke="white" stroke-width="2" stroke-miterlimit="10"/>
<path d="M139.244 104.394L257.683 58.9343C262.924 56.945 268.892 59.8627 270.882 65.1017L280.531 90.4343" stroke="white" stroke-width="2" stroke-miterlimit="10" stroke-dasharray="11.79 11.79"/>
<path d="M281.261 92.258L281.958 94.1149" stroke="white" stroke-width="2" stroke-miterlimit="10"/>
<path d="M245.716 121.005L254.104 143.055C255.362 146.338 257.852 148.957 261.034 150.383C264.216 151.809 267.865 151.908 271.113 150.681L320.751 131.815C324.032 130.555 326.653 128.068 328.078 124.884C329.504 121.701 329.605 118.054 328.377 114.805L315.812 81.8125L253.638 103.862C250.357 105.023 247.638 107.477 246.147 110.627C244.652 113.777 244.455 117.424 245.615 120.707C245.647 120.806 245.68 120.906 245.716 121.005Z" fill="#070A15" stroke="white" stroke-width="2" stroke-linecap="round" stroke-linejoin="round"/>
<path d="M315.845 81.7797L313.555 75.7781C312.363 72.6614 310.008 70.1743 306.99 68.8149C303.975 67.4556 300.527 67.3561 297.41 68.5495L291.738 70.705" stroke="white" stroke-width="2" stroke-linecap="round" stroke-linejoin="round"/>
<path d="M274.164 130.324C277.117 130.324 279.504 127.936 279.504 124.985C279.504 122.034 277.117 119.647 274.164 119.647C271.215 119.647 268.827 122.034 268.827 124.985C268.827 127.936 271.215 130.324 274.164 130.324Z" fill="#070A15" stroke="white" stroke-width="2" stroke-linecap="round" stroke-linejoin="round"/>
<path d="M274.164 134.103C279.205 134.103 283.284 130.024 283.284 124.984C283.284 119.944 279.205 115.866 274.164 115.866C269.126 115.866 265.047 119.944 265.047 124.984C265.047 130.024 269.126 134.103 274.164 134.103Z" stroke="white" stroke-width="2" stroke-linecap="round" stroke-linejoin="round"/>
<path d="M318.969 24.4512C318.969 24.4512 339.294 33.5698 338.199 55.2923" stroke="white" stroke-width="2" stroke-miterlimit="10"/>
<path d="M332.264 17.4184C332.264 17.4184 364.206 48.3531 341.171 74.2444" stroke="white" stroke-width="2" stroke-miterlimit="10"/>
<path d="M41.3404 107.696L46.4233 102.218C45.8268 104.588 45.2106 106.957 44.6152 109.306L48.5973 113.562L42.7377 112.664L37.637 117.761L38.8908 110.58L36.3921 106.651L41.3404 107.696Z" stroke="white" stroke-width="1.5" stroke-linecap="round" stroke-linejoin="round"/>
<path d="M323.166 239.222L318.541 232.722C320.889 233.859 323.232 235.016 325.559 236.148L330.87 232.908L328.662 238.838L332.884 245.275L325.65 242.408L321.001 244.168L323.166 239.222Z" stroke="white" stroke-width="1.5" stroke-linecap="round" stroke-linejoin="round"/>
<defs>
<radialGradient id="paint0_radial_13318_223379" cx="0" cy="0" r="1" gradientUnits="userSpaceOnUse" gradientTransform="translate(35.5755 139.061) rotate(79.5209) scale(48.1229 72.4904)">
<stop stop-color="#EED991"/>
<stop offset="1" stop-color="#CCFFFB"/>
</radialGradient>
<radialGradient id="paint1_radial_13318_223379" cx="0" cy="0" r="1" gradientUnits="userSpaceOnUse" gradientTransform="translate(91.3103 264.931) rotate(-97.8734) scale(37.5415 61.6102)">
<stop stop-color="#EED991"/>
<stop offset="1" stop-color="#CCFFFB"/>
</radialGradient>
<radialGradient id="paint2_radial_13318_223379" cx="0" cy="0" r="1" gradientUnits="userSpaceOnUse" gradientTransform="translate(95.7885 278.994) rotate(-101.181) scale(48.0081 78.6142)">
<stop stop-color="#EED991"/>
<stop offset="1" stop-color="#CCFFFB"/>
</radialGradient>
<linearGradient id="paint3_linear_13318_223379" x1="96.0608" y1="112.589" x2="259.874" y2="49.5153" gradientUnits="userSpaceOnUse">
<stop stop-color="#EED991"/>
<stop offset="1" stop-color="#CCF7F4"/>
</linearGradient>
</defs>
</svg>
