<svg width="24" height="24" viewBox="0 0 24 24" fill="none" xmlns="http://www.w3.org/2000/svg">
<path d="M8.50421 10.5638L11.9998 7.06828L15.4973 10.5656L17.5313 8.53162L11.9998 3L6.47021 8.52977L8.50421 10.5638Z" fill="#929292"/>
<path d="M7.06814 11.9995L5.03418 9.96558L3.00011 11.9996L5.03408 14.0336L7.06814 11.9995Z" fill="#929292"/>
<path d="M8.50427 13.4363L11.9999 16.9318L15.4972 13.4346L17.5324 15.4674L17.5314 15.4686L11.9999 21L6.47013 15.4704L6.46729 15.4676L8.50427 13.4363Z" fill="#929292"/>
<path d="M18.9664 14.0347L21.0005 12.0006L18.9665 9.96665L16.9325 12.0007L18.9664 14.0347Z" fill="#929292"/>
<path d="M14.0632 11.9989H14.064L12.0001 9.93494L10.4747 11.4603H10.4746L10.2994 11.6356L9.9379 11.9971L9.93506 11.9999L9.9379 12.0029L12.0001 14.0651L14.064 12.0011L14.065 11.9999L14.0632 11.9989Z" fill="#929292"/>
</svg>
