<svg xmlns="http://www.w3.org/2000/svg" width="24" height="25" fill="none" viewBox="0 0 24 25"><path fill="#929292" fill-rule="evenodd" d="M14.2929 22.8741C14.6834 23.2646 15.3166 23.2646 15.7071 22.8741L18.7072 19.874C19.0978 19.4835 19.0978 18.8503 18.7072 18.4598C18.3167 18.0693 17.6835 18.0693 17.293 18.4598L16 19.7528L16 11.167C16 10.6147 15.5523 10.167 15 10.167C14.4477 10.167 14 10.6147 14 11.167L14 19.7528L12.707 18.4598C12.3165 18.0693 11.6833 18.0693 11.2928 18.4598C10.9023 18.8503 10.9023 19.4835 11.2928 19.874L14.2929 22.8741ZM8.00002 4.58121L6.70703 5.8742C6.31651 6.26472 5.68334 6.26472 5.29282 5.8742C4.90229 5.48367 4.90229 4.85051 5.29282 4.45999L8.29292 1.45989C8.68344 1.06936 9.3166 1.06936 9.70713 1.45989L12.7072 4.45998C13.0978 4.85051 13.0978 5.48367 12.7072 5.8742C12.3167 6.26472 11.6835 6.26472 11.293 5.8742L10 4.58121L10 13.167C10 13.7193 9.55231 14.167 9.00002 14.167C8.44774 14.167 8.00002 13.7193 8.00002 13.167L8.00002 4.58121Z" clip-rule="evenodd"/></svg>