<svg width="137" height="136" viewBox="0 0 137 136" fill="none" xmlns="http://www.w3.org/2000/svg">
<path fill-rule="evenodd" clip-rule="evenodd" d="M73.489 12.2698C60.5955 10.9999 47.6605 14.2399 36.8881 21.4378C26.1156 28.6357 18.1723 39.3461 14.4114 51.7442C10.6505 64.1422 11.3048 77.4607 16.2628 89.4304C21.2208 101.4 30.1757 111.28 41.6018 117.388C53.0279 123.495 66.2181 125.452 78.9251 122.924C91.632 120.397 103.069 113.541 111.289 103.526C118.338 94.9362 122.646 84.4776 123.729 73.5002L99.0606 73.5002L58.4681 96.1501C53.1357 99.1255 46.57 95.2704 46.5701 89.164V45.8364C46.57 39.73 53.1357 35.875 58.4681 38.8504L99.0606 61.5002L136.006 61.5002V73.5002H135.777C134.661 87.2589 129.377 100.401 120.565 111.139C110.584 123.3 96.696 131.624 81.2662 134.694C65.8363 137.763 49.8196 135.387 35.945 127.971C22.0705 120.555 11.1966 108.557 5.17621 94.0226C-0.844227 79.488 -1.63873 63.3155 2.92807 48.2608C7.49488 33.206 17.1404 20.2005 30.2212 11.4602C43.302 2.71986 59.0088 -1.21448 74.6652 0.327544C87.0804 1.55034 98.8549 6.15678 108.745 13.5587C111.449 11.9343 114.616 11.0002 118 11.0002C127.941 11.0002 136 19.0591 136 29.0002C136 38.9414 127.941 47.0002 118 47.0002C108.059 47.0002 100 38.9414 100 29.0002C100 26.8293 100.384 24.7481 101.089 22.821C93.0412 16.9271 83.519 13.2576 73.489 12.2698ZM118 35.0002C121.314 35.0002 124 32.3139 124 29.0002C124 25.6865 121.314 23.0002 118 23.0002C114.686 23.0002 112 25.6865 112 29.0002C112 32.3139 114.686 35.0002 118 35.0002ZM58.5701 52.6489L85.1862 67.5002L58.5701 82.3515V52.6489Z" fill="url(#paint0_linear_2089_95)"/>
<defs>
<linearGradient id="paint0_linear_2089_95" x1="68.0031" y1="0" x2="68.0031" y2="136" gradientUnits="userSpaceOnUse">
<stop stop-color="#1C4EFF"/>
<stop offset="1" stop-color="#1CADFF"/>
</linearGradient>
</defs>
</svg>
