<svg width="50" height="50" viewBox="0 0 50 50" fill="none" xmlns="http://www.w3.org/2000/svg">
<circle cx="25" cy="25" r="25" fill="#1F1F1F"/>
<path d="M29.7929 25.6213C30.1834 25.2308 30.8166 25.2308 31.2071 25.6213L33.8787 28.2929C34.2692 28.6834 34.2692 29.3166 33.8787 29.7071L31.2071 32.3787C30.8166 32.7692 30.1834 32.7692 29.7929 32.3787L27.1213 29.7071C26.7308 29.3166 26.7308 28.6834 27.1213 28.2929L29.7929 25.6213Z" stroke="#929292" stroke-width="2"/>
<path d="M18.7929 25.6213C19.1834 25.2308 19.8166 25.2308 20.2071 25.6213L22.8787 28.2929C23.2692 28.6834 23.2692 29.3166 22.8787 29.7071L20.2071 32.3787C19.8166 32.7692 19.1834 32.7692 18.7929 32.3787L16.1213 29.7071C15.7308 29.3166 15.7308 28.6834 16.1213 28.2929L18.7929 25.6213Z" stroke="#929292" stroke-width="2"/>
<path d="M24.2929 17.6213C24.6834 17.2308 25.3166 17.2308 25.7071 17.6213L28.3787 20.2929C28.7692 20.6834 28.7692 21.3166 28.3787 21.7071L25.7071 24.3787C25.3166 24.7692 24.6834 24.7692 24.2929 24.3787L21.6213 21.7071C21.2308 21.3166 21.2308 20.6834 21.6213 20.2929L24.2929 17.6213Z" stroke="#929292" stroke-width="2"/>
</svg>
