<svg width="24" height="24" viewBox="0 0 24 24" fill="none" xmlns="http://www.w3.org/2000/svg">
    <path fill-rule="evenodd" clip-rule="evenodd" d="M5.11439 6.99978H1C0.447715 6.99978 0 7.44749 0 7.99978C0 8.55206 0.447716 8.99977 1 8.99977H1.77197L4.27559 19.2423C4.60385 20.5852 5.80732 21.53 7.1898 21.53H16.8089C18.1914 21.53 19.3949 20.5852 19.7231 19.2423L22.2268 8.99977H23C23.5523 8.99977 24 8.55206 24 7.99978C24 7.44749 23.5523 6.99978 23 6.99978H18.8859L14.9832 1.4262C14.6664 0.973794 14.0429 0.863846 13.5905 1.18062C13.1381 1.4974 13.0281 2.12095 13.3449 2.57335L16.4443 6.99978H7.55594L10.6555 2.57317C10.9723 2.12077 10.8623 1.49722 10.4099 1.18045C9.9575 0.863668 9.33395 0.973616 9.01717 1.42602L5.11439 6.99978ZM20.1679 8.99977H3.83085L6.21839 18.7674C6.32781 19.215 6.72897 19.53 7.1898 19.53H16.8089C17.2697 19.53 17.6709 19.215 17.7803 18.7674L20.1679 8.99977ZM12 11.9998C12.5523 11.9998 13 12.4475 13 12.9998V15.9998C13 16.5521 12.5523 16.9998 12 16.9998C11.4477 16.9998 11 16.5521 11 15.9998V12.9998C11 12.4475 11.4477 11.9998 12 11.9998ZM16.9487 13.316C17.1233 12.7921 16.8402 12.2257 16.3162 12.0511C15.7923 11.8764 15.226 12.1596 15.0513 12.6835L14.0513 15.6835C13.8767 16.2075 14.1598 16.7738 14.6838 16.9485C15.2077 17.1231 15.774 16.8399 15.9487 16.316L16.9487 13.316ZM9.31623 16.9485C8.79228 17.1231 8.22596 16.8399 8.05132 16.316L7.05132 13.316C6.87667 12.7921 7.15983 12.2257 7.68377 12.0511C8.20772 11.8764 8.77404 12.1596 8.94868 12.6835L9.94868 15.6835C10.1233 16.2075 9.84017 16.7738 9.31623 16.9485Z" fill="#929292"/>
</svg>
