<svg width="50" height="50" viewBox="0 0 50 50" fill="none" xmlns="http://www.w3.org/2000/svg">
<circle cx="25" cy="25" r="25" fill="#1F1F1F"/>
<path d="M30 33C30 33.5523 30.4477 34 31 34C31.5523 34 32 33.5523 32 33H30ZM18 33C18 33.5523 18.4477 34 19 34C19.5523 34 20 33.5523 20 33H18ZM23 29H27V27H23V29ZM30 32V33H32V32H30ZM20 33V32H18V33H20ZM27 29C28.6569 29 30 30.3431 30 32H32C32 29.2386 29.7614 27 27 27V29ZM23 27C20.2386 27 18 29.2386 18 32H20C20 30.3431 21.3431 29 23 29V27Z" fill="#929292"/>
<path d="M22 21C22 19.3431 23.3431 18 25 18C26.6568 18 28 19.3431 28 21C28 22.6569 26.6568 24 25 24C23.3431 24 22 22.6569 22 21Z" stroke="#929292" stroke-width="2"/>
<path d="M31 20C32.1046 20 33 20.8954 33 22C33 23.1046 32.1046 24 31 24" stroke="#929292" stroke-width="2" stroke-linecap="round" stroke-linejoin="round"/>
<path d="M19 20C17.8954 20 17 20.8954 17 22C17 23.1046 17.8954 24 19 24" stroke="#929292" stroke-width="2" stroke-linecap="round" stroke-linejoin="round"/>
<path d="M35 31C35 31.5523 35.4477 32 36 32C36.5523 32 37 31.5523 37 31H35ZM32 26C31.4477 26 31 26.4477 31 27C31 27.5523 31.4477 28 32 28V26ZM35 30.5V31H37V30.5H35ZM32 28H32.5V26H32V28ZM37 30.5C37 28.0147 34.9853 26 32.5 26V28C33.8807 28 35 29.1193 35 30.5H37Z" fill="#929292"/>
<path d="M15 31C15 31.5523 14.5523 32 14 32C13.4477 32 13 31.5523 13 31H15ZM18 26C18.5523 26 19 26.4477 19 27C19 27.5523 18.5523 28 18 28V26ZM15 30.5V31H13V30.5H15ZM18 28H17.5V26H18V28ZM13 30.5C13 28.0147 15.0147 26 17.5 26V28C16.1193 28 15 29.1193 15 30.5H13Z" fill="#929292"/>
</svg>
