<svg width="19" height="17" viewBox="0 0 19 17" fill="none" xmlns="http://www.w3.org/2000/svg">
<path fill-rule="evenodd" clip-rule="evenodd" d="M2.88724 1.80239C1.80037 2.43669 0.803544 3.08721 0.672307 3.24796C0.46481 3.50204 0.433843 3.85502 0.435616 5.94334C0.436981 7.5825 0.49114 8.44854 0.606143 8.66788C0.840378 9.115 4.73875 11.3953 5.28471 11.4045C5.58402 11.4096 6.73146 10.8136 9.33642 9.3C11.5393 8.02009 13.113 7.18838 13.3321 7.18838C13.5308 7.18838 14.2683 7.52624 14.9709 7.93916C16.4878 8.83068 16.5878 9.02712 16.5116 10.9683C16.4531 12.461 16.3789 12.5646 14.6851 13.514C13.7983 14.011 13.4416 14.1436 13.1729 14.0763C12.642 13.9432 10.675 12.7661 10.4518 12.4477C10.332 12.277 10.2559 11.836 10.2559 11.3131C10.2559 10.8428 10.2098 10.4583 10.1536 10.4585C10.0974 10.4588 9.71362 10.6617 9.30095 10.9092L8.55063 11.3593L8.51066 12.2565C8.45841 13.4279 8.57601 13.5558 10.9883 14.95C12.3873 15.7587 13.0068 16.0436 13.3659 16.0436C13.7248 16.0436 14.3525 15.7552 15.7713 14.9383C16.827 14.3306 17.7982 13.7386 17.9296 13.623C18.1417 13.4363 18.1683 13.114 18.1683 10.7245C18.1683 8.35985 18.1395 8.00278 17.9296 7.76029C17.7982 7.60852 16.7575 6.95079 15.6167 6.29837C13.9735 5.35876 13.4705 5.1303 13.196 5.1991C13.0055 5.24678 12.312 5.60971 11.655 6.0056C10.998 6.40136 10.0308 6.9606 9.50558 7.24819C8.98036 7.53578 7.89717 8.16109 7.09856 8.63777C6.29995 9.11431 5.50448 9.50435 5.33096 9.50435C4.9322 9.50435 2.53091 8.08303 2.34565 7.73726C2.26939 7.59504 2.20705 6.78118 2.20705 5.92863C2.20705 4.41126 2.21496 4.37121 2.5822 4.03634C3.19242 3.47983 4.88472 2.55644 5.29439 2.55644C5.67487 2.55644 8.10031 3.90488 8.30057 4.22762C8.35787 4.31998 8.43754 4.82909 8.47765 5.35904L8.55063 6.32248L9.33506 5.86392L10.1195 5.40522V4.34246C10.1195 3.5019 10.0695 3.23556 9.88074 3.06813C9.74937 2.95179 8.79551 2.35985 7.76075 1.7528C6.31742 0.90597 5.76136 0.64917 5.37161 0.64917C4.98076 0.64917 4.40738 0.91537 2.88724 1.80239Z" fill="white"/>
</svg>
