<svg width="50" height="50" viewBox="0 0 50 50" fill="none" xmlns="http://www.w3.org/2000/svg">
<circle cx="25" cy="25" r="25" fill="#1F1F1F"/>
<path d="M25 13C31.6271 13 37 18.3729 37 25C37 31.6271 31.6269 37 25 37C18.3731 37 13 31.6286 13 25C13 18.3714 18.3722 13 25 13Z" fill="#53AE94"/>
<path d="M26.4806 23.4013V21.6162H30.5628V18.8962H19.447V21.6162H23.5296V23.3998C20.2116 23.5522 17.7168 24.2094 17.7168 24.9966C17.7168 25.7838 20.2128 26.4409 23.5296 26.5942V32.3122H26.4816V26.5938C29.7936 26.4409 32.2834 25.7842 32.2834 24.9978C32.2834 24.2113 29.7936 23.5546 26.4816 23.4018L26.4806 23.4013ZM26.4816 26.1094V26.108C26.3983 26.1133 25.9704 26.139 25.0176 26.139C24.2558 26.139 23.7199 26.1174 23.531 26.1075V26.1099C20.5997 25.9801 18.4116 25.4696 18.4116 24.8588C18.4116 24.248 20.5999 23.7382 23.531 23.6082V25.6014C23.723 25.6146 24.2722 25.647 25.0301 25.647C25.9404 25.647 26.3981 25.609 26.4821 25.6014V23.6082C29.4077 23.7385 31.5907 24.2494 31.5907 24.8581C31.5907 25.4667 29.4067 25.9779 26.4821 26.1082" fill="white"/>
</svg>
