<svg width="105" height="35" viewBox="0 0 105 35" fill="none" xmlns="http://www.w3.org/2000/svg">
<rect x="0.558655" width="104" height="35" rx="17.5" fill="white" fill-opacity="0.1"/>
<path fill-rule="evenodd" clip-rule="evenodd" d="M68.5399 14.4254C68 13.8972 67.518 13.6342 66.7026 13.4232C64.7911 12.9283 62.8618 13.8467 62.0026 15.6602C61.7231 16.2506 61.7067 16.3438 61.7067 17.3482C61.7067 18.37 61.719 18.4365 62.0217 19.0559C62.4335 19.8987 63.132 20.596 63.9464 20.9773C64.4711 21.2229 64.7091 21.2765 65.4144 21.3074C66.7638 21.3667 67.8425 20.9651 68.6485 20.1033C70.1227 18.5273 70.0729 15.9254 68.5399 14.4254ZM42.8653 21.0231C42.8125 20.8958 40.641 15.3246 40.1989 14.1819L39.9217 13.4654H39.0977H38.2736L38.1247 13.8121C37.6791 14.8497 35.3127 20.9835 35.3127 21.1008C35.3127 21.126 35.6127 21.1345 35.9793 21.1196L36.6459 21.0924L37.7127 18.3051C38.2995 16.772 38.8332 15.3784 38.8987 15.2081C39.0084 14.923 39.0277 14.9114 39.1419 15.0627C39.2102 15.1532 39.6102 16.1308 40.0309 17.2353C40.4517 18.3398 40.9602 19.6699 41.161 20.191L41.526 21.1386H42.2196C42.7385 21.1386 42.9012 21.1095 42.8653 21.0231ZM46.1195 16.1926C46.0855 14.7181 46.053 13.5013 46.0473 13.4885C46.0415 13.4758 45.7455 13.4654 45.3896 13.4654H44.7425V15.9027C44.7425 17.2431 44.7842 18.5596 44.835 18.828C45.0267 19.8387 45.6541 20.6944 46.4852 21.0786C46.8343 21.2399 47.0885 21.2773 47.8395 21.2773C49.0619 21.2773 49.5331 21.1322 50.1541 20.5647C50.8368 19.9408 51.0207 19.4227 51.1187 17.8474C51.1601 17.1807 51.1716 15.9221 51.1442 15.0504L51.0943 13.4654H50.4753H49.8562L49.7926 16.1695L49.7291 18.8736L49.4777 19.2812C48.9173 20.1895 47.6023 20.3866 46.7707 19.6867C46.2025 19.2087 46.187 19.1254 46.1195 16.1926ZM59.6052 15.6565C59.5298 14.7177 59.0705 14.0296 58.2861 13.6804C57.9751 13.542 57.5813 13.5105 55.8094 13.483L53.7026 13.4502L53.7653 13.7121C53.9548 14.5039 54.0653 14.5528 55.885 14.6501C56.748 14.6964 57.5581 14.7843 57.6852 14.8457C58.2399 15.1134 58.4745 15.8652 58.1903 16.4641C57.9046 17.0662 57.7838 17.1005 55.7395 17.159C54.7323 17.1879 53.8902 17.2319 53.8682 17.2568C53.8461 17.2817 53.8014 18.1653 53.7687 19.2203L53.7095 21.1386H54.3544H54.9994L55.0249 19.7288L55.0504 18.319L55.6105 18.2919L56.1705 18.2649L57.0186 19.355C58.3678 21.0898 58.4048 21.1253 58.887 21.1457C59.5795 21.1752 59.8117 21.1443 59.8078 21.0231C59.8057 20.9596 59.3506 20.3251 58.7963 19.6132L57.7887 18.319L58.2812 18.0685C59.245 17.5784 59.6938 16.7607 59.6052 15.6565ZM77.2408 16.7553C77.6194 15.4803 77.1576 14.2558 76.0824 13.6838C75.7996 13.5334 75.4935 13.5079 73.6552 13.4822C71.3298 13.4498 71.3068 13.4557 71.5939 14.0109C71.8492 14.5046 72.024 14.5577 73.6902 14.6468C75.4815 14.7427 75.7643 14.8434 75.9806 15.4618C76.2335 16.1845 75.8974 16.8671 75.1924 17.063C74.9955 17.1176 74.1556 17.1625 73.326 17.1628C72.4641 17.1632 71.741 17.2044 71.6388 17.259C71.471 17.3489 71.46 17.4708 71.46 19.2467V21.1386H72.1071H72.7543V19.7958V18.453L72.9914 18.3629C73.1218 18.3133 73.3818 18.2734 73.5692 18.2741C73.8973 18.2755 73.9471 18.3235 74.922 19.5783C75.4787 20.2948 76.0255 20.9409 76.1372 21.0141C76.2783 21.1065 76.543 21.1388 77.0049 21.1198L77.6695 21.0924L76.6457 19.7519C76.0827 19.0146 75.6215 18.3811 75.6211 18.3439C75.6205 18.3068 75.797 18.188 76.0131 18.0799C76.6254 17.7735 77.0859 17.2767 77.2408 16.7553ZM87.1762 21.0179C87.1762 20.9089 85.9548 17.7292 84.6214 14.3671L84.2641 13.466L83.4308 13.4657L82.5975 13.4654L82.1939 14.5055C80.4725 18.9409 79.6879 20.9948 79.6879 21.0648C79.6879 21.1099 79.9841 21.1345 80.346 21.1196L81.0042 21.0924L82.0942 18.2591C82.6936 16.7008 83.231 15.3384 83.2883 15.2315C83.415 14.9947 83.5318 14.9825 83.6005 15.1988C83.6288 15.2879 84.1504 16.6503 84.7595 18.2265L85.8671 21.0924L86.5216 21.1196C87.0325 21.1407 87.1762 21.1185 87.1762 21.0179ZM63.2783 16.0103C63.6041 15.3771 64.0523 14.9862 64.7302 14.7444C65.0861 14.6173 65.3965 14.579 65.8669 14.6038C66.8848 14.6576 67.6057 15.1029 68.0899 15.977C68.3356 16.4206 68.363 16.5533 68.363 17.302C68.363 18.2745 68.1521 18.8055 67.5497 19.3497C66.3954 20.3926 64.6341 20.3016 63.6174 19.1467C62.9303 18.366 62.7802 16.9785 63.2783 16.0103Z" fill="white"/>
<path fill-rule="evenodd" clip-rule="evenodd" d="M25.775 12.167C25.5958 11.9987 25.3131 11.8008 25.1467 11.7271C24.8084 11.5775 24.1004 11.5068 23.7768 11.5905C23.3684 11.6959 22.9421 11.9479 22.6671 12.2463C22.4603 12.4707 21.8799 13.5677 20.3857 16.5581C18.735 19.862 18.3733 20.6365 18.334 20.9512C18.2021 22.0069 18.9263 23.0709 19.9658 23.3485C20.329 23.4455 20.8679 23.4562 24.4319 23.4378L28.485 23.4167L28.9105 23.2202C29.7418 22.8362 30.1718 22.1609 30.1819 21.2232L30.1879 20.6646L28.1444 16.5688C26.3058 12.8839 26.0681 12.4423 25.775 12.167ZM21.228 16.8491C23.3085 12.6922 23.3381 12.6431 23.8655 12.4848C24.1348 12.404 24.2892 12.4053 24.6022 12.4908C24.6929 12.5155 24.7694 12.5356 24.8412 12.5665C25.2463 12.7411 25.5026 13.2612 27.3305 16.9196C28.751 19.7628 29.3365 21.0005 29.3365 21.1607C29.3365 21.7046 29.0512 22.1542 28.5508 22.399L28.2025 22.5695L24.1885 22.5503L20.1745 22.5312L19.856 22.3439C19.429 22.0929 19.1483 21.5525 19.2103 21.1004C19.2385 20.8951 19.888 19.5265 21.228 16.8491Z" fill="white"/>
</svg>
