<svg width="103" height="19" viewBox="0 0 103 19" fill="none" xmlns="http://www.w3.org/2000/svg">
<path fill-rule="evenodd" clip-rule="evenodd" d="M8.55433 0.788215C4.89463 1.37131 2.05477 3.85836 1.12146 7.29767C0.80424 8.4664 0.80424 10.5718 1.12146 11.7405C1.94197 14.7642 4.37704 17.1939 7.40743 18.0126C8.57875 18.3291 10.6888 18.3291 11.8601 18.0126C14.1845 17.3847 16.2896 15.726 17.3516 13.6858C18.1221 12.2055 18.3835 11.1499 18.3835 9.51909C18.3835 7.8883 18.1221 6.83265 17.3516 5.35237C16.2919 3.31647 14.1493 1.6263 11.8909 1.04442C10.9991 0.814737 9.23748 0.679432 8.55433 0.788215ZM9.92413 2.95781C10.0095 3.0122 10.4629 3.72319 10.9315 4.53771C12.1779 6.70421 12.2104 6.50832 9.95787 10.3942C7.73733 14.2247 7.80938 14.1639 5.49858 14.1639C3.78511 14.1639 3.35954 14.0437 3.35954 13.5595C3.35954 13.191 8.90015 3.30798 9.26662 3.0231C9.51152 2.8326 9.69826 2.81402 9.92413 2.95781ZM13.7749 9.55275C14.2183 10.0689 15.908 13.2449 15.908 13.5625C15.908 13.8023 15.8068 13.9396 15.5619 14.0326C15.1868 14.1749 11.5813 14.212 11.0828 14.0787C10.682 13.9715 10.5482 13.4258 10.8105 12.9688C12.5841 9.87856 12.9609 9.31714 13.2611 9.31714C13.4323 9.31714 13.6634 9.4231 13.7749 9.55275Z" fill="white"/>
<path fill-rule="evenodd" clip-rule="evenodd" d="M83.4125 7.20351C83.6568 7.28947 83.9011 7.46141 84.1582 7.73158L85.1226 7.05614C84.7754 6.67544 84.4025 6.40526 83.9911 6.24561C83.5925 6.08596 83.1553 6 82.6796 6C82.1395 6 81.6509 6.08597 81.1881 6.2579C80.738 6.41754 80.3523 6.65088 80.0309 6.95789C79.7094 7.26491 79.4523 7.63333 79.2722 8.07544C79.0922 8.50526 79.0022 8.99649 79.0022 9.52456C79.0022 10.0404 79.0922 10.5193 79.2722 10.9491C79.4523 11.3789 79.7094 11.7474 80.0309 12.0544C80.3652 12.3614 80.7509 12.5947 81.1881 12.7544C81.6381 12.914 82.1395 13 82.6796 13C83.1939 13 83.6696 12.9018 84.1197 12.7175C84.5697 12.5333 84.9554 12.2263 85.2769 11.8088L84.2482 11.1088C84.0168 11.3912 83.7725 11.6 83.5025 11.7351C83.2453 11.8579 82.9625 11.9193 82.6796 11.9193C82.3196 11.9193 81.9853 11.8579 81.6895 11.7351C81.4066 11.6123 81.1495 11.4404 80.9438 11.2193C80.738 10.9982 80.5709 10.7404 80.4552 10.4333C80.3394 10.1263 80.288 9.80702 80.288 9.45088C80.288 9.1193 80.3394 8.81228 80.4552 8.51754C80.5709 8.23509 80.738 7.97719 80.9438 7.76842C81.1495 7.54737 81.4066 7.37544 81.6895 7.26491C81.9853 7.1421 82.3067 7.0807 82.6796 7.0807C82.9367 7.06842 83.181 7.11754 83.4125 7.20351ZM31.2352 6.17193H30.168L27.1335 12.8281H28.5222L29.1522 11.3053H32.1738L32.8296 12.8281H34.244L31.2352 6.17193ZM30.6695 7.58421L31.7367 10.2982H29.5765L30.6695 7.58421ZM35.5683 6.17193H36.9955L38.8985 11.207L40.8529 6.17193H42.1901L39.3742 12.8281H38.307L35.5683 6.17193ZM47.6933 6.17193H46.6261L43.5916 12.8281H44.9803L45.6103 11.3053H48.6319L49.2877 12.8281H50.702L47.6933 6.17193ZM48.1947 10.286L47.1275 7.57193L46.0346 10.286H48.1947ZM54.6751 6.17193H53.4408V12.8281H57.6453V11.7597H54.688V6.17193H54.6751ZM62.7627 6.17193H63.8299L66.8258 12.8281H65.4114L64.7557 11.3053H61.7341L61.1041 12.8281H59.7154L62.7627 6.17193ZM63.2642 7.58421L64.3314 10.2982H62.1713L63.2642 7.58421ZM69.5774 6.17193H71.2232L74.592 11.1211H74.6177V6.17193H75.852V12.8281H74.2834L70.8375 7.7193H70.8118V12.8281H69.5774V6.17193ZM88.0799 6.17193H89.3142V8.82456H92.5673V6.17193H93.8016V12.8281H92.5673V9.89298H89.3142V12.8281H88.0799V6.17193ZM101.954 6.17193H97.3376V12.8281H102.134V11.7597H98.5848V9.95439H101.786V8.87369H98.5848V7.24035H101.954V6.17193Z" fill="white"/>
</svg>
