<svg width="117" height="40" viewBox="0 0 117 40" fill="none" xmlns="http://www.w3.org/2000/svg">
<rect width="116.752" height="40" rx="20" transform="matrix(1 0 0 -1 0 40)" fill="white" fill-opacity="0.1"/>
<path fill-rule="evenodd" clip-rule="evenodd" d="M24.9133 21.28L28.0164 24.3518L31.1196 21.28L32.9296 23.0719L28.0164 27.9355L23.1032 23.0719L24.9133 21.28ZM21.8102 21.792L23.6204 20.0001L21.8102 18.2082L20 20.0001L21.8102 21.792ZM31.1196 18.7202L28.0164 15.6484L24.9133 18.7202L23.1032 16.9283L28.0164 12.0647L32.9296 16.9283L31.1196 18.7202ZM34.2227 18.2082L32.4125 20.0001L34.2227 21.792L36.0327 20.0001L34.2227 18.2082ZM28.0164 21.792L29.8266 20.0001L28.0164 18.2082L26.2063 20.0001L28.0164 21.792ZM48.5706 21.9605V21.9859C48.5706 23.6072 47.3746 24.4178 45.5578 24.4178H41.7285V15.5512H45.4658C47.1102 15.5512 48.1222 16.4505 48.1222 17.8439V17.8692C48.1222 18.8699 47.6391 19.4272 47.0642 19.7818C47.9957 20.1745 48.5706 20.7697 48.5706 21.9605ZM45.0863 19.1358C45.8682 19.1358 46.3627 18.8572 46.3627 18.1986V18.1733C46.3627 17.5906 45.9488 17.2612 45.2012 17.2612H43.4534V19.1358H45.0863ZM45.5578 22.7078C46.3397 22.7078 46.8112 22.4038 46.8112 21.7452V21.7198C46.8112 21.1246 46.4087 20.7573 45.5002 20.7573H43.4534V22.7078H45.5578ZM52.2842 15.5512V24.4178H50.5133V15.5512H52.2842ZM61.8036 15.5512V24.4178H60.2973L56.3989 18.7812V24.4178H54.651V15.5512H56.2839L60.0557 21.0106V15.5512H61.8036ZM68.1633 15.4879L71.6132 24.4178H69.7617L69.0257 22.4292H65.622L64.8861 24.4178H63.0806L66.5305 15.4879H68.1633ZM66.2545 20.7064H68.3932L67.3239 17.8311L66.2545 20.7064ZM80.0543 15.5512V24.4178H78.5479L74.6495 18.7812V24.4178H72.9016V15.5512H74.5346L78.3063 21.0106V15.5512H80.0543ZM88.0699 21.7325L89.1967 22.9866C88.3688 23.962 87.4488 24.5698 85.8964 24.5698C83.5277 24.5698 81.7682 22.5558 81.7682 20.0098V19.9845C81.7682 17.4638 83.493 15.3992 85.9655 15.3992C87.4832 15.3992 88.3918 15.9565 89.1393 16.7672L88.0124 18.1986C87.3914 17.5778 86.7589 17.1979 85.954 17.1979C84.5971 17.1979 83.6195 18.4391 83.6195 19.9592V19.9845C83.6195 21.5046 84.574 22.7713 85.954 22.7713C86.874 22.7713 87.4374 22.3659 88.0699 21.7325ZM96.7523 22.6826V24.4178H90.6233V15.5512H96.6949V17.2866H92.3826V19.0851H96.1774V20.8206H92.3826V22.6826H96.7523Z" fill="white"/>
</svg>
