<svg width="97" height="40" viewBox="0 0 97 40" fill="none" xmlns="http://www.w3.org/2000/svg">
<rect width="95.6834" height="40" rx="20" transform="matrix(1 0 0 -1 0.751953 40)" fill="white" fill-opacity="0.1"/>
<path fill-rule="evenodd" clip-rule="evenodd" d="M27.7243 16.8656C27.7243 14.5284 26.5857 12.5156 25.7184 11.8623C25.7184 11.8623 25.6517 11.8255 25.6586 11.9198C25.6024 15.4799 24.1564 16.9939 22.9258 18.2824L22.9258 18.2824C22.5955 18.6282 22.2807 18.9578 22.0125 19.3063C19.0864 23.1111 21.8055 27.2817 24.5797 28.0523C25.3738 28.2745 25.2574 28.0669 24.923 27.4705C24.6065 26.9058 24.0944 25.9924 23.9747 24.7651C23.8125 23.1251 24.9121 21.6932 25.9618 20.3264C26.8614 19.155 27.7243 18.0314 27.7243 16.8656ZM75.698 15.284C76.3072 15.5364 76.5965 16.2348 76.3441 16.844C76.0918 17.4532 75.3934 17.7425 74.7842 17.4901C74.175 17.2378 73.8857 16.5394 74.1381 15.9302C74.3904 15.321 75.0888 15.0317 75.698 15.284ZM42.3129 15.2115V19.8077H37.7466V15.805C37.7466 15.4761 37.4798 15.2092 37.1508 15.2092H35.605V26.2119C35.605 26.5409 35.8718 26.8077 36.2008 26.8077H37.7466V21.6756H42.3152V26.2096C42.3106 26.5386 42.5728 26.81 42.9018 26.8146H42.911H44.4568V15.805C44.4568 15.4761 44.19 15.2092 43.861 15.2092H42.3129V15.2115ZM51.381 18.087V23.601C51.3856 24.1025 51.1233 24.5695 50.6909 24.8271C49.4809 25.5264 48.2271 24.65 48.2271 23.4998V18.6828C48.2271 18.3538 47.9603 18.087 47.6313 18.087H46.0855V23.6976C46.0901 25.5057 47.5531 26.9688 49.3612 26.978H50.24C52.0504 26.9734 53.518 25.5057 53.5226 23.6953V18.6828C53.5226 18.3538 53.2558 18.087 52.9268 18.087H51.381ZM74.7711 26.8139H76.317V19.0018C76.317 18.6728 76.0501 18.406 75.7212 18.406H74.1753V26.2135C74.173 26.5424 74.4375 26.8116 74.7665 26.8139H74.7711ZM59.0493 18.082C56.8064 18.082 54.9707 19.6854 54.9707 21.9283V23.1406C54.9707 25.3834 56.8064 26.9776 59.0493 26.9776C61.2921 26.9776 63.1278 25.3834 63.1278 23.1406V21.9283C63.1301 19.6854 61.2944 18.082 59.0493 18.082ZM60.977 23.2855C60.977 24.346 60.1097 25.0522 59.047 25.0522C57.9842 25.0522 57.1193 24.346 57.1193 23.2855V21.7718C57.1193 20.7114 57.9865 20.0051 59.047 20.0051C60.1074 20.0051 60.977 20.7114 60.977 21.7718V23.2855ZM66.7125 18.5213C67.3175 18.2291 67.98 18.0773 68.6517 18.0819C70.8991 18.0819 72.7302 19.6852 72.7279 21.9281V23.1404C72.7279 25.3833 70.8922 26.9774 68.6494 26.9774C66.4065 26.9774 64.5708 25.3833 64.5708 23.1404V15.2202H66.1167C66.4456 15.2202 66.7125 15.4871 66.7125 15.816V18.5213ZM68.6517 25.052C69.7144 25.052 70.5817 24.3458 70.5817 23.2853V21.7717C70.5817 20.7112 69.7121 20.005 68.6517 20.005C67.5912 20.005 66.724 20.7112 66.724 21.7717V23.2853C66.724 24.3458 67.5912 25.052 68.6517 25.052ZM28.9934 18.4136C29.0095 18.3837 29.0348 18.3929 29.0532 18.4044C29.6283 18.8967 31.2431 20.5921 31.0154 23.2835C30.8774 24.9536 29.948 26.4581 28.5149 27.3276C27.9352 27.6186 27.7615 27.9061 27.6747 28.0499C27.5878 28.1937 27.5878 28.1937 27.3555 27.9096C26.555 26.9273 25.1333 25.1008 27.6292 21.3144C28.3654 20.1964 28.9451 18.9818 28.9934 18.4136Z" fill="white"/>
</svg>
