<svg width="57" height="16" viewBox="0 0 57 16" fill="none" xmlns="http://www.w3.org/2000/svg">
<path fill-rule="evenodd" clip-rule="evenodd" d="M9.2087 6.06412L12.2872 1.49545C12.582 1.02057 13.0896 0.742188 13.63 0.742188C14.4979 0.742188 15.202 1.44632 15.2184 2.3142V13.9078C15.2184 14.7757 14.5143 15.4798 13.6464 15.4798H13.3189C12.8604 15.4798 12.4182 15.2833 12.1235 14.9231L2.95338 3.95172C2.88788 3.86985 2.74051 3.91897 2.74051 4.0336V12.2539C2.74051 12.3686 2.85513 12.4177 2.93701 12.3522L5.96641 9.73216C6.26117 9.47016 6.67055 9.84679 6.45767 10.1579L3.37914 14.7266C3.08438 15.2015 2.57675 15.4798 2.03637 15.4798C1.16849 15.4798 0.464355 14.7757 0.464355 13.9078V2.3142C0.464355 1.44632 1.16849 0.742188 2.02 0.742188H2.3475C2.82238 0.742188 3.24814 0.93869 3.54289 1.29894L12.713 12.2703C12.7785 12.3522 12.9259 12.3031 12.9259 12.1884V3.95172C12.9259 3.8371 12.8112 3.78797 12.7294 3.85347L9.69996 6.48987C9.4052 6.75188 8.99582 6.37525 9.2087 6.06412ZM28.5007 3.82046V12.4174C28.5007 12.4829 28.4516 12.5484 28.3697 12.5484H27.4691C27.0597 12.5484 26.6667 12.3355 26.4375 11.9917L22.3764 5.71998L22.5074 8.84763V12.4338C22.5074 12.4993 22.4583 12.5648 22.3764 12.5648H21.1974C21.1319 12.5648 21.0664 12.5157 21.0664 12.4338V3.82046C21.0664 3.75495 21.1155 3.68945 21.1974 3.68945H22.0817C22.491 3.68945 22.8841 3.90233 23.1133 4.24621L27.1743 10.5015L27.0433 7.37387V3.82046C27.0433 3.75495 27.0925 3.68945 27.1743 3.68945H28.3534C28.4516 3.68945 28.5007 3.73858 28.5007 3.82046ZM40.581 12.5321H39.3365C39.2547 12.5321 39.1892 12.4502 39.2219 12.3683L42.5297 3.80411C42.5624 3.73861 42.6279 3.68949 42.6934 3.68949H44.2655C44.3473 3.68949 44.4128 3.73861 44.4292 3.80411L47.7534 12.3683C47.7861 12.4502 47.7206 12.5321 47.6387 12.5321H46.3942C46.3451 12.5321 46.296 12.4993 46.2796 12.4502L43.6105 5.40888C43.5777 5.31063 43.414 5.31063 43.3812 5.40888L40.712 12.4502C40.6793 12.4993 40.6302 12.5321 40.581 12.5321ZM53.9479 9.1588L56.4369 12.3356C56.5024 12.4175 56.4533 12.5321 56.3878 12.5321H55.4872C55.0942 12.5321 54.7339 12.3683 54.5047 12.0572L52.3432 9.24067H50.984V12.4011C50.984 12.483 50.9185 12.5321 50.853 12.5321H49.674C49.5921 12.5321 49.543 12.4666 49.543 12.4011V8.14354C49.543 8.04528 49.6249 7.96341 49.7231 7.96341H53.0309C54.2099 7.96341 54.7503 7.3739 54.7503 6.50602C54.7503 5.63813 54.1935 5.04863 53.0309 5.04863H50.6893C50.0343 5.04863 49.5102 4.52462 49.5102 3.86961C49.5102 3.77136 49.5921 3.68949 49.6904 3.68949H53.1619C55.0942 3.68949 56.1749 4.81938 56.1749 6.48964C56.1749 7.94703 55.3562 8.89679 53.9479 9.1588ZM36.8516 3.68945H31.3659C31.2676 3.68945 31.2021 3.75495 31.2021 3.8532C31.2021 4.50821 31.7425 5.04859 32.3975 5.04859H36.8516C36.9171 5.04859 36.9826 4.99947 36.9826 4.91759V3.80408C36.9662 3.73858 36.9171 3.68945 36.8516 3.68945ZM36.8516 11.1729H32.7578C32.6923 11.1729 32.6268 11.1238 32.6268 11.0419V8.83126C32.6268 8.76576 32.6759 8.70026 32.7578 8.70026H36.5405C36.606 8.70026 36.6715 8.65113 36.6715 8.56926V7.45574C36.6715 7.39024 36.6223 7.32474 36.5405 7.32474H31.3823C31.284 7.32474 31.2021 7.40662 31.2021 7.50487V12.3355C31.2021 12.4338 31.284 12.5157 31.3823 12.5157H36.8516C36.9171 12.5157 36.9826 12.4665 36.9826 12.3847V11.2712C36.9662 11.222 36.9171 11.1729 36.8516 11.1729Z" fill="white"/>
</svg>
