<svg width="67" height="15" viewBox="0 0 67 15" fill="none" xmlns="http://www.w3.org/2000/svg">
<path fill-rule="evenodd" clip-rule="evenodd" d="M14.9004 6.88526C15.4408 6.61509 16.0374 6.48001 16.634 6.49127C17.6021 6.49127 18.3225 6.78394 18.7953 7.32427C19.2568 7.98843 19.482 8.77641 19.4482 9.57564C19.4595 10.9377 18.9867 12.266 18.1086 13.3129C17.7597 13.7632 17.3207 14.1347 16.8029 14.3823C16.285 14.63 15.7222 14.765 15.1481 14.765C14.7654 14.7876 14.3826 14.7088 14.0224 14.5624C13.6622 14.4161 13.347 14.191 13.0881 13.8983C12.5478 13.2566 12.2663 12.4349 12.3114 11.6019C12.2889 10.2961 12.7279 9.03531 13.5496 8.0222C13.8986 7.54941 14.3601 7.15542 14.9004 6.88526ZM16.0036 13.0878C16.2513 12.9752 16.4877 12.8176 16.679 12.6262C17.4557 11.8045 17.8723 10.7126 17.861 9.5869C17.861 8.5175 17.422 7.98843 16.5552 7.98843C16.1725 7.98843 15.801 8.07848 15.4633 8.25859C15.1256 8.4387 14.8442 8.69761 14.6415 9.02406C14.1125 9.78952 13.8536 10.6901 13.8873 11.6131C13.8536 12.0409 13.9774 12.4687 14.2363 12.8176C14.3489 12.964 14.4952 13.0765 14.6641 13.1553C14.8329 13.2341 15.0243 13.2679 15.2044 13.2566C15.4745 13.2566 15.7447 13.2003 16.0036 13.0878ZM63.1135 10.3299C63.2824 10.2511 63.4737 10.2511 63.6538 10.3073C63.7184 10.3316 63.783 10.3616 63.8601 10.3974C63.8905 10.4115 63.9228 10.4265 63.9578 10.4424C64.0253 10.51 64.0816 10.5888 64.1266 10.6788C64.1604 10.7689 64.1829 10.8589 64.1829 10.9602C64.1829 11.0615 64.1716 11.1516 64.1266 11.2417C63.2036 13.5381 61.909 14.6975 60.1755 14.6975C58.6445 14.6975 57.8678 13.7294 57.8678 11.8495C57.9466 10.8139 58.1042 9.78952 58.3519 8.77641L58.5432 7.90963H56.5283C56.7309 8.42744 56.8322 8.97903 56.8209 9.53061C56.8322 10.8927 56.3594 12.2097 55.4814 13.2566C55.1324 13.7069 54.6934 14.0784 54.1756 14.326C53.6578 14.5737 53.0949 14.7088 52.5208 14.7088C52.1493 14.72 51.7891 14.6525 51.4514 14.5174C51.1137 14.3823 50.7985 14.1684 50.5509 13.9095C49.988 14.4273 49.2338 14.72 48.4683 14.7088C47.2639 14.7088 46.5322 14.2247 46.217 13.2116C45.4853 14.2247 44.6073 14.7088 43.5716 14.7088C42.93 14.7313 42.3109 14.4949 41.8381 14.0559C41.309 14.4949 40.6561 14.7313 39.9694 14.7425C38.7537 14.7425 38.0333 14.2585 37.7181 13.2454C36.9864 14.2585 36.1083 14.7425 35.0727 14.7425C34.7125 14.765 34.341 14.6862 34.0033 14.5399C33.6656 14.3936 33.3729 14.1572 33.1365 13.8758C32.9452 13.6394 32.7876 13.3805 32.675 13.099L32.3823 13.448C32.0671 13.8532 31.6731 14.1797 31.2116 14.4048C30.7501 14.63 30.2435 14.7538 29.737 14.7538C29.3655 14.7876 28.994 14.72 28.6563 14.5737C28.3186 14.4273 28.0147 14.2022 27.7895 13.9095C27.3167 13.2229 27.0804 12.4011 27.1141 11.5681C27.1141 11.3767 27.1366 11.039 27.1817 10.5775C27.767 10.4762 28.3186 10.2173 28.7576 9.82329C28.9602 9.67695 29.1404 9.48559 29.2642 9.26045C29.3993 9.03531 29.4668 8.79892 29.4893 8.54001C29.5006 8.46122 29.4893 8.38242 29.4668 8.30362C29.4443 8.22482 29.3993 8.15728 29.343 8.101C29.2867 8.04471 29.2192 7.99969 29.1404 7.97717C29.0616 7.95466 28.9828 7.9434 28.904 7.95466C28.3411 7.9434 27.8008 8.13477 27.373 8.50624C26.9565 8.82143 26.6076 9.21542 26.3487 9.6657C26.146 10.0597 25.9884 10.4762 25.8646 10.904L25.1667 14.1234C25.1329 14.2923 25.0541 14.4499 24.919 14.5624C24.784 14.675 24.6151 14.7425 24.4462 14.7425C24.3337 14.7425 24.2211 14.7088 24.1198 14.6637C24.0072 14.6187 23.9172 14.5512 23.8496 14.4611C23.7821 14.3711 23.7258 14.2697 23.7033 14.1572C23.6808 14.0446 23.6808 13.932 23.7033 13.8195L25.9547 3.32809C25.9884 3.15924 26.0898 3.00164 26.2248 2.88908C26.3599 2.77651 26.5288 2.72022 26.7089 2.72022C26.8214 2.72022 26.934 2.754 27.0353 2.79902C27.1479 2.84405 27.2379 2.91159 27.3055 3.00164C27.373 3.0917 27.4293 3.19301 27.4518 3.30558C27.4856 3.41815 27.4856 3.53072 27.4631 3.64329L26.6413 7.4481C26.9678 7.12165 27.3505 6.86274 27.7783 6.69389C28.206 6.52504 28.6563 6.43498 29.1178 6.43498C30.4574 6.43498 31.1103 7.04285 31.1103 8.24733C31.099 8.96777 30.8514 9.6657 30.4124 10.2285C29.9508 10.8252 29.3317 11.2867 28.6338 11.5568C28.6113 11.6582 28.6 11.7707 28.6113 11.872C28.6 12.2097 28.6901 12.5475 28.8814 12.8176C28.9828 12.9527 29.1066 13.054 29.2642 13.1215C29.4105 13.1891 29.5794 13.2116 29.7482 13.2003C30.9077 13.2003 31.8758 12.0409 32.63 9.65444C32.8213 8.99029 33.159 8.38242 33.6206 7.8646C34.0033 7.41433 34.4761 7.04285 35.0164 6.7952C35.5568 6.5363 36.1421 6.41247 36.7387 6.41247C37.1215 6.42373 37.5042 6.48001 37.8757 6.58132C38.0895 6.62635 38.2922 6.69389 38.4835 6.77269C38.6074 6.81772 38.7199 6.90777 38.7987 7.02034C38.8775 7.13291 38.9226 7.26799 38.9338 7.40307C38.9451 7.53815 38.9225 7.67324 38.855 7.79706C38.7875 7.92089 38.6974 8.0222 38.5736 8.08974C38.4723 8.15728 38.3597 8.19105 38.2359 8.20231C38.1233 8.21357 37.9995 8.19105 37.8869 8.13477C37.5154 7.98843 37.1215 7.89837 36.7162 7.89837C36.3222 7.88712 35.9395 7.97717 35.5905 8.15728C35.2416 8.32613 34.9489 8.5963 34.7237 8.91149C34.1834 9.64318 33.9245 10.5437 33.9695 11.4443C33.947 11.8946 34.0596 12.3448 34.2847 12.7276C34.3748 12.8739 34.4874 12.9865 34.6337 13.0765C34.78 13.1666 34.9376 13.2116 35.1065 13.2116C35.4329 13.1891 35.7369 13.0878 36.0183 12.9302C36.2884 12.7726 36.5248 12.5474 36.7049 12.2773C37.2115 11.5906 37.5717 10.8139 37.7743 9.98089C37.8194 9.80078 37.9319 9.64318 38.0895 9.53061C38.2471 9.4293 38.4385 9.38428 38.6299 9.40679C38.7424 9.41805 38.855 9.45182 38.9451 9.5081C39.0464 9.56439 39.1252 9.63193 39.1927 9.72198C39.2603 9.80078 39.3053 9.90209 39.3278 10.0147C39.3503 10.1272 39.3503 10.2285 39.3278 10.3411C39.1927 10.9152 39.1027 11.4893 39.0801 12.0747C39.0464 12.3786 39.1252 12.6825 39.294 12.9414C39.3841 13.0315 39.4854 13.1103 39.6092 13.1553C39.733 13.2003 39.8681 13.2229 39.9919 13.2116C40.3859 13.2003 40.7687 13.054 41.0613 12.7951C40.9375 12.3899 40.8812 11.9733 40.8925 11.5456C40.8587 10.2173 41.2977 8.91149 42.1533 7.87586C42.536 7.41433 43.02 7.04285 43.5604 6.7952C44.112 6.5363 44.7086 6.41247 45.3052 6.42373C45.9018 6.42373 46.4871 6.58132 47.005 6.88526L47.7367 3.31684C47.7592 3.22678 47.8042 3.12547 47.8605 3.04667C47.9168 2.96787 47.9843 2.90033 48.0744 2.84405C48.1644 2.79902 48.2545 2.754 48.3558 2.74274C48.4571 2.73148 48.5584 2.73148 48.6597 2.754C48.7498 2.77651 48.8511 2.82153 48.9299 2.87782C49.0087 2.9341 49.0875 3.00165 49.1325 3.0917C49.1775 3.18176 49.2226 3.27181 49.2338 3.37312C49.2451 3.47443 49.2451 3.57574 49.2226 3.67706L47.9618 9.51936C47.7592 10.3749 47.6466 11.2417 47.6128 12.1084C47.5903 12.4124 47.6579 12.7163 47.8042 12.9752C47.883 13.0653 47.9843 13.1441 48.0969 13.1891C48.2094 13.2341 48.3333 13.2566 48.4571 13.2454C48.7047 13.2341 48.9411 13.1778 49.155 13.0765C49.3689 12.964 49.5603 12.8176 49.7179 12.6375C49.6391 12.2998 49.594 11.9508 49.594 11.6019C49.5715 10.2961 50.0105 9.03531 50.8323 8.0222C51.1812 7.5269 51.6428 7.13291 52.1831 6.86274C52.7234 6.59258 53.3088 6.4575 53.9167 6.4575H58.7796L59.2299 4.45378C59.2637 4.28492 59.365 4.12733 59.5 4.01476C59.6351 3.90219 59.804 3.84591 59.9841 3.84591C60.1079 3.84591 60.2205 3.86842 60.3218 3.92471C60.4344 3.96973 60.5244 4.04853 60.592 4.13859C60.6595 4.22864 60.7158 4.32995 60.7383 4.44252C60.7608 4.55509 60.7608 4.66766 60.7383 4.78023L60.3893 6.46876H62.1229C62.2355 6.46876 62.3368 6.50252 62.4381 6.54755C62.5394 6.59258 62.6295 6.66012 62.697 6.75018C62.7645 6.84023 62.8208 6.94154 62.8433 7.04285C62.8771 7.15542 62.8771 7.25673 62.8546 7.3693C62.8321 7.53816 62.742 7.69575 62.6069 7.80832C62.4719 7.92089 62.303 7.97717 62.1342 7.97717H60.0516L59.8378 8.99029C59.6239 9.95838 59.4775 10.9377 59.41 11.9171C59.41 12.7838 59.6802 13.2454 60.2092 13.2454C61.2223 13.2454 62.0554 12.4011 62.7308 10.7126C62.8096 10.5437 62.9446 10.4086 63.1135 10.3299ZM45.2489 12.3111C45.7442 11.6807 46.172 10.7126 46.4421 9.38428L46.611 8.56253C46.3746 8.33739 46.0932 8.17979 45.778 8.07848C45.474 7.97717 45.1476 7.9434 44.8211 7.98843C44.4947 8.03346 44.1908 8.14602 43.9093 8.31488C43.6392 8.48373 43.4028 8.72012 43.2227 8.99029C42.6936 9.72198 42.4234 10.6113 42.4685 11.5231C42.4572 11.9621 42.5698 12.3899 42.7836 12.7726C42.8624 12.9189 42.9863 13.0315 43.1326 13.1215C43.2789 13.2116 43.4365 13.2566 43.6054 13.2566C44.1795 13.2566 44.7536 12.9414 45.2489 12.3111ZM54.018 12.6037C54.3669 12.176 54.6596 11.7032 54.896 11.2079H54.8735C55.0761 10.6901 55.1887 10.1385 55.1999 9.5869C55.1999 8.5175 54.7609 7.98843 53.8829 7.98843C53.5002 7.98843 53.1287 8.07848 52.791 8.25859C52.4645 8.4387 52.1719 8.70887 51.9692 9.02406C51.4402 9.78952 51.1813 10.6901 51.215 11.6131C51.1813 12.0409 51.3051 12.4687 51.564 12.8176C51.6765 12.964 51.8229 13.0765 51.9917 13.1553C52.1606 13.2341 52.352 13.2679 52.5321 13.2566C52.8135 13.2454 53.0837 13.1891 53.3426 13.0765C53.6015 12.964 53.8266 12.8064 54.018 12.6037ZM22.724 2.91159C22.859 2.79902 23.0279 2.74274 23.208 2.74274C23.3206 2.74274 23.4331 2.76525 23.5457 2.82153C23.647 2.86656 23.7371 2.93411 23.8046 3.02416C23.8722 3.11421 23.9284 3.21552 23.9509 3.32809C23.9847 3.44066 23.9847 3.55323 23.9622 3.6658L21.6996 14.1572C21.6658 14.326 21.5645 14.4836 21.4294 14.5962C21.2943 14.7088 21.1255 14.765 20.9454 14.765C20.8328 14.765 20.7202 14.7313 20.6189 14.6863C20.5064 14.6412 20.4163 14.5737 20.3488 14.4836C20.2812 14.3936 20.2249 14.2923 20.2024 14.1797C20.1799 14.0671 20.1799 13.9546 20.2024 13.842L22.4538 3.35061C22.4876 3.18176 22.5889 3.02416 22.724 2.91159ZM3.15956 2.04481C4.19519 1.00918 5.60229 0.423828 7.06568 0.423828C8.48405 0.446342 9.83487 1.00918 10.8818 2.0223C11.8949 3.0129 12.4802 4.34121 12.5365 5.74831C12.5815 7.15542 12.0975 8.52876 11.1632 9.5869C10.2289 10.645 8.92306 11.2979 7.51596 11.433C7.51596 11.433 6.81803 11.478 6.64918 11.5006C6.25519 11.5681 5.88371 11.7482 5.59104 12.0184C5.29836 12.2885 5.09574 12.6488 5.01694 13.0428C5.01694 13.0428 4.7918 14.1009 4.76929 14.2022C4.74677 14.2923 4.713 14.3936 4.65672 14.4724C4.60044 14.5512 4.52164 14.6187 4.44284 14.675C4.35278 14.7313 4.26273 14.7763 4.16142 14.7876C4.07136 14.7988 3.97005 14.7988 3.86874 14.7763C3.77869 14.7538 3.67737 14.72 3.59858 14.6637C3.51978 14.6075 3.45224 14.5287 3.39595 14.4499C3.33967 14.3598 3.29464 14.2697 3.28338 14.1684C3.27213 14.0784 3.27213 13.9771 3.29464 13.8758C3.29464 13.8082 5.02819 5.78209 5.02819 5.78209C5.07322 5.59072 5.18579 5.42187 5.35464 5.3093C5.5235 5.20799 5.73738 5.16296 5.92874 5.20799C6.12011 5.25301 6.28896 5.36558 6.40153 5.53443C6.50284 5.69203 6.54787 5.90591 6.50284 6.09728L5.77115 9.38428L5.64732 10.0372C5.63606 10.0484 5.63607 10.0597 5.63607 10.0709C5.63607 10.0822 5.63606 10.0935 5.64732 10.1047C5.65295 10.1047 5.65858 10.1075 5.66421 10.1103C5.66983 10.1132 5.67546 10.116 5.68109 10.116C5.69235 10.116 5.70361 10.116 5.71486 10.1047C5.8612 10.0709 5.99628 10.0484 6.14262 10.0259C6.52536 9.96963 7.30208 9.9246 7.30208 9.9246C8.0788 9.87958 8.82175 9.60941 9.44088 9.14788C10.06 8.68635 10.5328 8.05597 10.803 7.33553C11.0731 6.61509 11.1181 5.82711 10.9493 5.0729C10.7804 4.32995 10.3865 3.64328 9.83487 3.10296C9.28328 2.56263 8.5741 2.20241 7.81989 2.05607C7.06568 1.89847 6.27771 1.97727 5.55727 2.26995C4.83683 2.56263 4.2177 3.05793 3.77869 3.68831C3.33967 4.3187 3.09202 5.07291 3.0695 5.83837C3.04699 6.32242 3.11453 6.7952 3.28338 7.24548C3.33967 7.43684 3.32841 7.63947 3.23836 7.81958C3.1483 7.99969 3.00196 8.14602 2.8106 8.21357C2.61923 8.28111 2.40535 8.25859 2.22524 8.16854C2.04513 8.07848 1.89879 7.92089 1.83125 7.72952C1.63989 7.15542 1.53857 6.54755 1.53857 5.93968C1.53857 4.47629 2.12393 3.08044 3.15956 2.04481ZM64.9004 13.1097C65.013 13.0871 65.1368 13.0871 65.2607 13.1097C65.4971 13.1659 65.6997 13.3123 65.846 13.5262C65.9811 13.7288 66.0374 13.9764 65.9923 14.2128C65.9698 14.3367 65.9248 14.4492 65.8573 14.5505C65.7897 14.6518 65.6997 14.7419 65.5984 14.8094C65.4971 14.877 65.3845 14.922 65.2607 14.9445C65.1481 14.967 65.0243 14.9558 64.9004 14.9333C64.7766 14.9108 64.664 14.8657 64.5627 14.7982C64.4614 14.7306 64.3714 14.6406 64.3038 14.5393C64.2363 14.438 64.1913 14.3141 64.1687 14.2016C64.1462 14.089 64.1462 13.9652 64.1687 13.8414C64.1913 13.7175 64.2363 13.605 64.3038 13.5036C64.3714 13.4023 64.4614 13.3123 64.5627 13.2447C64.664 13.1772 64.7766 13.1322 64.9004 13.1097Z" fill="white"/>
</svg>
