<svg width="123" height="40" viewBox="0 0 123 40" fill="none" xmlns="http://www.w3.org/2000/svg">
<rect x="0.435547" width="122.068" height="40" rx="20" fill="white" fill-opacity="0.1"/>
<path fill-rule="evenodd" clip-rule="evenodd" d="M22.8872 14.8024C21.8004 15.4367 20.8035 16.0872 20.6723 16.248C20.4648 16.502 20.4338 16.855 20.4356 18.9433C20.437 20.5825 20.4911 21.4485 20.6061 21.6679C20.8404 22.115 24.7388 24.3953 25.2847 24.4045C25.584 24.4096 26.7315 23.8136 29.3364 22.3C31.5393 21.0201 33.113 20.1884 33.3321 20.1884C33.5308 20.1884 34.2683 20.5262 34.9709 20.9392C36.4878 21.8307 36.5878 22.0271 36.5116 23.9683C36.4531 25.461 36.3789 25.5646 34.6851 26.514C33.7983 27.011 33.4416 27.1436 33.1729 27.0763C32.642 26.9432 30.675 25.7661 30.4518 25.4477C30.332 25.277 30.2559 24.836 30.2559 24.3131C30.2559 23.8428 30.2098 23.4583 30.1536 23.4585C30.0974 23.4588 29.7136 23.6617 29.301 23.9092L28.5506 24.3593L28.5107 25.2565C28.4584 26.4279 28.576 26.5558 30.9883 27.95C32.3873 28.7587 33.0068 29.0436 33.3659 29.0436C33.7248 29.0436 34.3525 28.7552 35.7713 27.9383C36.827 27.3306 37.7982 26.7386 37.9296 26.623C38.1417 26.4363 38.1683 26.114 38.1683 23.7245C38.1683 21.3599 38.1395 21.0028 37.9296 20.7603C37.7982 20.6085 36.7575 19.9508 35.6167 19.2984C33.9735 18.3588 33.4705 18.1303 33.196 18.1991C33.0055 18.2468 32.312 18.6097 31.655 19.0056C30.998 19.4014 30.0308 19.9606 29.5056 20.2482C28.9804 20.5358 27.8972 21.1611 27.0986 21.6378C26.3 22.1143 25.5045 22.5043 25.331 22.5043C24.9322 22.5043 22.5309 21.083 22.3456 20.7373C22.2694 20.595 22.207 19.7812 22.207 18.9286C22.207 17.4113 22.215 17.3712 22.5822 17.0363C23.1924 16.4798 24.8847 15.5564 25.2944 15.5564C25.6749 15.5564 28.1003 16.9049 28.3006 17.2276C28.3579 17.32 28.4375 17.8291 28.4776 18.359L28.5506 19.3225L29.3351 18.8639L30.1195 18.4052V17.3425C30.1195 16.5019 30.0695 16.2356 29.8807 16.0681C29.7494 15.9518 28.7955 15.3599 27.7608 14.7528C26.3174 13.906 25.7614 13.6492 25.3716 13.6492C24.9808 13.6492 24.4074 13.9154 22.8872 14.8024Z" fill="white"/>
<path fill-rule="evenodd" clip-rule="evenodd" d="M62.7263 11.0424C62.699 11.0898 62.6916 11.2578 62.71 11.4157C62.7284 11.5737 62.7477 14.5068 62.753 17.934L62.7625 24.1652H63.8537H64.9448V17.5607V10.9563H63.8604C63.264 10.9563 62.7536 10.9951 62.7263 11.0424ZM47.2894 16.6292C47.0233 16.7162 46.5141 16.9519 46.1579 17.1529C45.8017 17.3539 45.4968 17.502 45.4802 17.4822C45.4637 17.4622 45.4001 17.2908 45.339 17.1013C45.228 16.7573 45.2263 16.7567 44.232 16.7235L43.2363 16.6903L43.2379 21.9496C43.2387 24.8423 43.2707 27.3252 43.3087 27.4674C43.3743 27.7122 43.4352 27.7258 44.4558 27.7258H45.5335V25.6488C45.5335 24.5064 45.5722 23.5914 45.6197 23.6156C47.4535 24.5478 48.5425 24.6113 50.0185 23.8722C51.2411 23.2598 51.7467 22.3597 51.8215 20.6619C51.8649 19.6753 51.836 19.4174 51.6163 18.8335C51.3043 18.0049 50.6223 17.2387 49.8454 16.8444C49.1448 16.4887 48.0112 16.3933 47.2894 16.6292ZM88.1341 16.6286C86.7606 17.0266 85.6722 18.0207 85.3297 19.1901C85.0734 20.0648 85.151 21.3648 85.509 22.1969C86.6042 24.7428 91.1648 25.0729 92.7238 22.7192C93.6943 21.2539 93.6409 19.4235 92.5857 17.9861C91.9783 17.1586 90.7799 16.5791 89.5513 16.5188C89.0194 16.4928 88.4511 16.5368 88.1341 16.6286ZM99.5719 16.5898C98.7866 16.669 97.9215 17.1113 97.5386 17.6293C97.2696 17.9932 97.1056 17.9683 97.1056 17.5634C97.1056 16.9668 97.0363 16.929 95.9447 16.929H94.9232V20.5471V24.1652H96.0646H97.2059L97.2419 22.1226C97.2759 20.193 97.294 20.0486 97.5718 19.5096C98.0409 18.5992 98.9511 18.1724 99.6388 18.5405C100.139 18.8083 100.207 19.1884 100.207 21.7474V24.1652H101.355H102.504L102.503 21.3798C102.503 18.4128 102.44 17.9482 101.969 17.3879C101.409 16.7228 100.676 16.4785 99.5719 16.5898ZM55.3991 16.8496C53.602 17.6033 52.7886 18.9045 52.9142 20.8245C52.9862 21.9233 53.286 22.5938 54.0075 23.2687C54.821 24.0295 55.6596 24.3231 57.0195 24.3231C57.8785 24.3231 58.25 24.2683 58.7656 24.0657C59.5746 23.7477 60.3321 23.0446 60.7621 22.2126C61.0521 21.6512 61.089 21.4593 61.0928 20.4897C61.0966 19.5216 61.0606 19.3244 60.7747 18.7422C60.4131 18.0059 59.6493 17.2689 58.8592 16.8939C58.4593 16.704 58.0772 16.6398 57.1918 16.6136C56.1974 16.5841 55.9567 16.6158 55.3991 16.8496ZM77.1665 16.8136C76.4302 17.159 75.5603 18.0136 75.2018 18.7434C74.9179 19.3218 74.8803 19.5262 74.8809 20.4897C74.8816 21.4904 74.9117 21.6385 75.2449 22.2769C75.6624 23.0771 76.3425 23.7397 77.1059 24.0903C78.2288 24.6059 80.1742 24.317 80.9191 23.5241C81.0626 23.3714 81.2167 23.2463 81.2612 23.2463C81.3894 23.2463 81.2735 24.7197 81.1232 25.002C80.5377 26.101 78.2517 26.2081 77.1651 25.1873L76.9201 24.9572L76.2491 25.7216L75.5781 26.4859L75.9757 26.8184C77.0057 27.6797 78.2068 27.9832 79.9482 27.8227C81.4354 27.6855 82.7103 26.8308 83.2976 25.5775L83.6095 24.9118L83.6438 20.9204L83.678 16.929H82.5891C81.601 16.929 81.4934 16.9503 81.4272 17.1587C81.3512 17.3984 81.0726 17.4734 81.0055 17.2722C80.9843 17.2083 80.6569 17.0287 80.2781 16.873C79.3788 16.5033 77.8883 16.4749 77.1665 16.8136ZM66.1775 17.13C66.2197 17.2406 66.4573 17.7445 66.7055 18.2499C66.9538 18.7553 67.6681 20.2236 68.2931 21.5128L69.4293 23.857L69.0087 24.8438C68.7772 25.3866 68.4372 26.1321 68.2531 26.5006C68.0689 26.8691 67.8701 27.2974 67.8112 27.4523L67.704 27.7341L68.7974 27.7012L69.8909 27.6684L70.5208 26.2326C71.3883 24.255 71.6281 23.7125 72.2316 22.3605C72.5196 21.7154 72.7553 21.161 72.7553 21.1285C72.7553 21.0636 74.1756 17.8364 74.5657 17.0152C74.5882 16.9678 74.1484 16.929 73.5885 16.929H72.5705L71.6393 19.0219C71.127 20.1729 70.6647 21.1286 70.6118 21.1456C70.5588 21.1627 70.3361 20.7507 70.1167 20.2302C69.8975 19.7095 69.472 18.7538 69.1714 18.1063L68.6248 16.929H67.3627C66.2081 16.929 66.1072 16.9461 66.1775 17.13ZM80.536 18.6935C81.1314 19.0021 81.2487 19.2858 81.2702 20.4694C81.2879 21.4435 81.2671 21.5533 81.0137 21.8247C80.0936 22.8106 78.317 22.7892 77.601 21.7833C77.284 21.3381 77.0871 20.5307 77.1762 20.0407C77.4349 18.6182 79.1014 17.95 80.536 18.6935ZM48.5176 18.6806C49.1144 18.9856 49.4485 19.551 49.5294 20.3932C49.7102 22.2739 47.3651 23.3779 46.0286 22.0414C45.6494 21.6623 45.6484 21.6582 45.6484 20.523C45.6484 19.4032 45.6542 19.3787 46.0069 19.018C46.6235 18.3873 47.6685 18.2468 48.5176 18.6806ZM58.1699 18.8529C59.5693 20.1851 58.6831 22.6816 56.8674 22.5228C55.8564 22.4344 55.1851 21.6225 55.1861 20.4897C55.1875 19.1515 55.8449 18.4234 57.0527 18.4226C57.6642 18.4222 57.7538 18.4568 58.1699 18.8529ZM90.2195 18.681C90.807 19.077 91.0613 19.6036 91.0599 20.4222C91.0584 21.3447 90.7847 21.9079 90.1602 22.2739C89.2075 22.8322 88.2285 22.5322 87.7085 21.5225C87.3406 20.8081 87.3867 19.6655 87.8044 19.1401C88.3961 18.3959 89.4884 18.1883 90.2195 18.681Z" fill="white"/>
</svg>
