<svg width="93" height="16" viewBox="0 0 93 16" fill="none" xmlns="http://www.w3.org/2000/svg">
<path fill-rule="evenodd" clip-rule="evenodd" d="M6.23346 0.90357C6.34784 0.789191 6.50153 0.724854 6.66238 0.724854H21.5495C21.8211 0.724854 21.9569 1.05369 21.7639 1.24313L18.8222 4.18123C18.7079 4.29561 18.5542 4.35995 18.3933 4.35995H3.50625C3.2346 4.35995 3.09877 4.03111 3.29179 3.84167L6.23346 0.90357ZM51.1421 3.98424C50.9974 3.98424 50.8809 4.10078 50.8809 4.24946V11.8201C50.8809 11.9647 50.9974 12.0853 51.1421 12.0853H57.2098C57.2821 12.0853 57.3504 12.0531 57.4027 12.0009L58.1621 11.1852C58.3189 11.0164 58.2023 10.7391 57.9693 10.7391H52.673C52.5284 10.7391 52.4119 10.6226 52.4119 10.4739V4.24544C52.4119 4.10078 52.2953 3.98022 52.1507 3.98022H51.1421V3.98424ZM31.8359 8.81812H35.1511C35.6172 8.81812 35.9949 9.19986 35.9949 9.66599C35.9949 10.1361 35.6172 10.5139 35.1511 10.5139H31.1528C31.0885 10.5139 31.0282 10.538 30.984 10.5782L29.7785 11.6189C29.5937 11.7797 29.7062 12.081 29.9473 12.081H34.9502C34.9502 12.081 34.9542 12.081 34.9542 12.077C34.9542 12.073 34.9582 12.073 34.9582 12.073L34.9689 12.0737C35.0292 12.0774 35.0864 12.081 35.1471 12.081C36.4731 12.081 37.55 11.0001 37.55 9.66599C37.55 8.4002 36.5816 7.35945 35.344 7.25899C35.344 7.25899 35.3399 7.25899 35.3399 7.25497C35.3399 7.25095 35.3399 7.25095 35.3359 7.25095H31.7676C31.3015 7.25095 30.9238 6.86921 30.9238 6.40308C30.9238 5.93293 31.3015 5.5552 31.7676 5.5552H35.7579C35.8221 5.5552 35.8864 5.53109 35.9347 5.48689L37.0558 4.44613C37.2326 4.28138 37.1161 3.98804 36.879 3.98804H31.8359H31.7716C30.4456 3.98804 29.3687 5.06898 29.3687 6.40308C29.3687 7.73717 30.4456 8.81812 31.7716 8.81812H31.8359ZM39.9863 5.41796C40.0225 4.64241 40.6453 4.01956 41.4209 3.9834V3.98742H46.9301C47.7056 4.01956 48.3285 4.64643 48.3606 5.42197V10.5092V10.5735C48.3606 11.3772 47.7217 12.0362 46.926 12.0724H41.4209C40.6212 12.0402 39.9863 11.3812 39.9863 10.5735V10.5092V5.41796ZM41.5535 6.32611C41.5736 5.83587 41.9634 5.44207 42.4496 5.42197H45.9014C46.3876 5.44608 46.7774 5.83587 46.7975 6.32611V9.52875V9.56893C46.7975 10.0752 46.3996 10.4932 45.9014 10.5132H42.4496C41.9513 10.4932 41.5535 10.0752 41.5535 9.56893V9.52875V6.32611ZM66.9774 11.8185C66.9774 11.9632 67.094 12.0837 67.2386 12.0837H68.2673C68.412 12.0837 68.5285 11.9672 68.5285 11.8185V5.55387V5.48957C68.5285 4.68188 67.8976 4.02287 67.11 3.99072H61.8259H61.7616C60.9418 3.99072 60.2788 4.66179 60.2788 5.49359V5.55789V11.8225C60.2788 11.9672 60.3953 12.0877 60.54 12.0877H61.5687C61.7134 12.0877 61.8299 11.9712 61.8299 11.8225V9.2146C61.8299 9.06994 61.9464 8.94939 62.0911 8.94939H66.7283C66.873 8.94939 66.9895 9.06592 66.9895 9.2146V11.8185H66.9774ZM61.8219 7.50679V6.20484C61.8219 5.69853 62.2277 5.28866 62.726 5.28866H66.0773C66.5756 5.28866 66.9814 5.69853 66.9814 6.20484V7.50679C66.9814 7.65145 66.8649 7.77201 66.7202 7.77201H62.0831C61.9384 7.77201 61.8219 7.65547 61.8219 7.50679ZM88.4335 11.8198C88.4335 11.9685 88.5501 12.085 88.6947 12.085V12.081H89.7395C89.8842 12.081 90.0007 11.9605 90.0007 11.8158V5.55118V5.48689C90.0007 4.68321 89.3618 4.0242 88.5662 3.98804H83.2257H83.1615C82.3337 3.98804 81.6626 4.66312 81.6626 5.49091V5.5552V11.8198C81.6626 11.9685 81.7791 12.085 81.9238 12.085H82.9605C83.1052 12.085 83.2217 11.9645 83.2217 11.8198V9.21191C83.2217 9.06323 83.3383 8.9467 83.4829 8.9467H88.1724C88.317 8.9467 88.4335 9.06725 88.4335 9.21191V11.8198ZM83.2217 7.50813V6.20618C83.2217 5.69986 83.6276 5.28999 84.1339 5.28999H87.5214C88.0237 5.28999 88.4335 5.69986 88.4335 6.20618V7.50813C88.4335 7.65681 88.317 7.77334 88.1724 7.77334H83.4829C83.3383 7.77334 83.2217 7.65279 83.2217 7.50813ZM72.4021 3.9834C72.4784 3.9834 72.5508 4.01555 72.599 4.07582L77.2121 9.57697C77.3688 9.76181 77.6702 9.6493 77.6702 9.40418V4.24861C77.6702 4.10395 77.7867 3.9834 77.9313 3.9834H78.96C79.1047 3.9834 79.2212 4.09993 79.2212 4.24861V11.8192C79.2212 11.9639 79.1047 12.0844 78.96 12.0844H77.6822C77.6782 12.0844 77.6742 12.0804 77.6742 12.0764C77.6742 12.0724 77.6742 12.0724 77.6702 12.0684L72.9767 6.60739C72.82 6.42255 72.5186 6.53908 72.5186 6.78018V11.8232C72.5186 11.9679 72.4021 12.0884 72.2574 12.0884H71.2207C71.076 12.0884 70.9595 11.9719 70.9595 11.8232V4.24861C70.9595 4.10395 71.076 3.9834 71.2207 3.9834H72.4021ZM6.66238 11.7051C6.50153 11.7051 6.34784 11.7694 6.23346 11.8838L3.29179 14.8255C3.09877 15.0149 3.2346 15.3437 3.50625 15.3437H18.3933C18.5542 15.3437 18.7079 15.2794 18.8222 15.165L21.7639 12.2234C21.9569 12.0339 21.8211 11.7051 21.5495 11.7051H6.66238ZM18.3934 6.17898C18.5542 6.17898 18.7079 6.24332 18.8223 6.3577L21.764 9.2958C21.957 9.48524 21.8212 9.81408 21.5495 9.81408H6.66245C6.50161 9.81408 6.34791 9.74974 6.23354 9.63536L3.29186 6.69726C3.09885 6.50782 3.23467 6.17898 3.50632 6.17898H18.3934Z" fill="white"/>
</svg>
