<svg width="21" height="20" viewBox="0 0 21 20" fill="none" xmlns="http://www.w3.org/2000/svg">
<path fill-rule="evenodd" clip-rule="evenodd" d="M9.35596 0.0436742C5.17345 0.710063 1.9279 3.55241 0.861258 7.48305C0.498721 8.81875 0.498721 11.2249 0.861258 12.5606C1.79898 16.0162 4.58192 18.793 8.04522 19.7287C9.38387 20.0904 11.7953 20.0904 13.134 19.7287C15.7905 19.0111 18.1962 17.1155 19.41 14.7838C20.2905 13.092 20.5894 11.8856 20.5894 10.0218C20.5894 8.15805 20.2905 6.9516 19.41 5.25985C18.1989 2.9331 15.7502 1.00148 13.1692 0.336479C12.15 0.0739856 10.1367 -0.0806487 9.35596 0.0436742ZM10.9215 2.52321C11.0191 2.58537 11.5372 3.39793 12.0728 4.32881C13.4971 6.80481 13.5343 6.58094 10.96 11.0219C8.42225 15.3997 8.5046 15.3302 5.86368 15.3302C3.90542 15.3302 3.41906 15.1928 3.41906 14.6395C3.41906 14.2183 9.75119 2.92341 10.17 2.59783C10.4499 2.38011 10.6633 2.35888 10.9215 2.52321ZM15.3223 10.0603C15.829 10.6502 17.7602 14.2799 17.7602 14.6428C17.7602 14.9169 17.6445 15.0738 17.3646 15.1801C16.9359 15.3428 12.8154 15.3851 12.2456 15.2328C11.7876 15.1103 11.6347 14.4867 11.9344 13.9643C13.9615 10.4326 14.392 9.79102 14.7351 9.79102C14.9308 9.79102 15.1949 9.91211 15.3223 10.0603Z" fill="white"/>
</svg>
