<svg width="60" height="60" viewBox="0 0 60 60" fill="none"
  xmlns="http://www.w3.org/2000/svg">
  <rect width="60" height="60" rx="30" fill="white" fill-opacity="0.05"/>
  <g clip-path="url(#clip0_110_1753)">
    <path d="M36.7774 23.4247C35.4389 22.8206 34.0036 22.3756 32.5029 22.1207C32.4756 22.1158 32.4483 22.1281 32.4342 22.1527C32.2496 22.4756 32.0451 22.8968 31.902 23.228C30.2879 22.9903 28.682 22.9903 27.101 23.228C26.9578 22.8895 26.7459 22.4756 26.5605 22.1527C26.5464 22.1289 26.5191 22.1166 26.4918 22.1207C24.9919 22.3748 23.5566 22.8198 22.2173 23.4247C22.2057 23.4296 22.1958 23.4378 22.1892 23.4484C19.4667 27.4488 18.7209 31.3509 19.0868 35.2046C19.0884 35.2235 19.0992 35.2415 19.1141 35.253C20.9103 36.5504 22.6502 37.338 24.3579 37.8601C24.3852 37.8683 24.4142 37.8584 24.4315 37.8363C24.8355 37.2938 25.1956 36.7217 25.5043 36.1201C25.5225 36.0849 25.5051 36.043 25.4679 36.0291C24.8967 35.816 24.3529 35.5562 23.8298 35.2612C23.7884 35.2374 23.7851 35.1792 23.8231 35.1513C23.9332 35.0702 24.0433 34.9858 24.1485 34.9005C24.1675 34.885 24.194 34.8817 24.2163 34.8915C27.6531 36.4348 31.3739 36.4348 34.7701 34.8915C34.7924 34.8809 34.8189 34.8842 34.8388 34.8997C34.9439 34.985 35.054 35.0702 35.1649 35.1513C35.203 35.1792 35.2005 35.2374 35.1591 35.2612C34.636 35.5619 34.0922 35.816 33.5202 36.0283C33.483 36.0422 33.4664 36.0849 33.4846 36.1201C33.8 36.7208 34.16 37.2929 34.5565 37.8355C34.5731 37.8584 34.6029 37.8683 34.6302 37.8601C36.3461 37.338 38.086 36.5504 39.8823 35.253C39.898 35.2415 39.9079 35.2243 39.9096 35.2054C40.3474 30.7501 39.1762 26.8801 36.8047 23.4492C36.7989 23.4378 36.789 23.4296 36.7774 23.4247ZM26.0175 32.8581C24.9828 32.8581 24.1302 31.9238 24.1302 30.7764C24.1302 29.6289 24.9663 28.6946 26.0175 28.6946C27.077 28.6946 27.9213 29.6371 27.9048 30.7764C27.9048 31.9238 27.0687 32.8581 26.0175 32.8581ZM32.9954 32.8581C31.9607 32.8581 31.1082 31.9238 31.1082 30.7764C31.1082 29.6289 31.9442 28.6946 32.9954 28.6946C34.0549 28.6946 34.8992 29.6371 34.8827 30.7764C34.8827 31.9238 34.0549 32.8581 32.9954 32.8581Z" fill="white"/>
  </g>
  <defs>
    <clipPath id="clip0_110_1753">
      <rect width="21" height="16" fill="white" transform="translate(19 22)"/>
    </clipPath>
  </defs>
</svg>
