<svg width="50" height="50" viewBox="0 0 50 50" fill="none"
  xmlns="http://www.w3.org/2000/svg">
  <rect width="50" height="50" rx="25" fill="white" fill-opacity="0.05"/>
  <g clip-path="url(#clip0_12750_142718)">
    <path fill-rule="evenodd" clip-rule="evenodd" d="M34.1032 18.804C34.8785 18.2305 34.4729 17 33.5085 17H16.5345C15.57 17 15.1644 18.2305 15.9398 18.804L24.4268 25.081C24.7802 25.3424 25.2628 25.3424 25.6161 25.081L34.1032 18.804ZM34.1032 20.804C34.2416 20.7016 34.3424 20.5783 34.4091 20.4447C34.4682 20.6336 34.5 20.8344 34.5 21.0427V31.0427C34.5 32.1473 33.6046 33.0427 32.5 33.0427H17.5C16.3954 33.0427 15.5 32.1473 15.5 31.0427V21.0427C15.5 20.8143 15.5383 20.5948 15.6088 20.3903C15.6741 20.5447 15.7827 20.6879 15.9398 20.804L24.4268 27.0811C24.7802 27.3424 25.2628 27.3424 25.6161 27.0811L34.1032 20.804Z" fill="white"/>
  </g>
  <defs>
    <clipPath id="clip0_12750_142718">
      <rect width="19" height="18" fill="white" transform="translate(15.5 16)"/>
    </clipPath>
  </defs>
</svg>
