<svg width="60" height="60" viewBox="0 0 60 60" fill="none"
  xmlns="http://www.w3.org/2000/svg">
  <rect width="60" height="60" rx="30" fill="white" fill-opacity="0.05"/>
  <path d="M29.999 22.1665C25.582 22.1665 22 25.7625 22 30.1985C22 33.7465 24.292 36.7565 27.472 37.8195C27.872 37.8935 28.018 37.6455 28.018 37.4325C28.018 37.2415 28.011 36.7365 28.007 36.0665C25.782 36.5515 25.312 34.9895 25.312 34.9895C24.949 34.0615 24.424 33.8145 24.424 33.8145C23.697 33.3165 24.478 33.3265 24.478 33.3265C25.281 33.3835 25.703 34.1545 25.703 34.1545C26.417 35.3815 27.576 35.0275 28.032 34.8215C28.104 34.3025 28.311 33.9485 28.54 33.7475C26.764 33.5445 24.896 32.8555 24.896 29.7785C24.896 28.9015 25.208 28.1845 25.72 27.6225C25.637 27.4195 25.363 26.6025 25.798 25.4975C25.798 25.4975 26.47 25.2815 27.998 26.3205C28.636 26.1425 29.32 26.0535 30.001 26.0505C30.68 26.0545 31.365 26.1425 32.004 26.3215C33.531 25.2825 34.202 25.4985 34.202 25.4985C34.638 26.6045 34.364 27.4205 34.282 27.6235C34.795 28.1855 35.104 28.9025 35.104 29.7795C35.104 32.8645 33.234 33.5435 31.452 33.7425C31.739 33.9905 31.995 34.4805 31.995 35.2295C31.995 36.3035 31.985 37.1695 31.985 37.4325C31.985 37.6475 32.129 37.8975 32.535 37.8185C35.71 36.7545 38 33.7455 38 30.1985C38 25.7625 34.418 22.1665 29.999 22.1665Z" fill="white"/>
</svg>
