<svg width="60" height="60" viewBox="0 0 60 60" fill="none"
  xmlns="http://www.w3.org/2000/svg">
  <rect width="60" height="60" rx="30" fill="white" fill-opacity="0.05"/>
  <g clip-path="url(#clip0_110_1751)">
    <path d="M36.7233 25.1554L38 23.9341V23.6667H33.5773L30.4253 31.5121L26.8393 23.6667H22.202V23.9341L23.6933 25.7294C23.8387 25.8621 23.9147 26.0561 23.8953 26.2514V33.3067C23.9413 33.5607 23.8587 33.8221 23.68 34.0067L22 36.0427V36.3067H26.7633V36.0394L25.0833 34.0067C24.9013 33.8214 24.8153 33.5647 24.852 33.3067V27.2041L29.0333 36.3101H29.5193L33.1147 27.2041V34.4581C33.1147 34.6494 33.1147 34.6887 32.9893 34.8141L31.696 36.0654V36.3334H37.9707V36.0661L36.724 34.8454C36.6147 34.7627 36.558 34.6241 36.5813 34.4894V25.5114C36.558 25.3761 36.614 25.2374 36.7233 25.1554Z" fill="white"/>
  </g>
  <defs>
    <clipPath id="clip0_110_1751">
      <rect width="16" height="16" fill="white" transform="translate(22 22)"/>
    </clipPath>
  </defs>
</svg>
