<svg width="60" height="60" viewBox="0 0 60 60" fill="none"
  xmlns="http://www.w3.org/2000/svg">
  <rect width="60" height="60" rx="30" fill="white" fill-opacity="0.05"/>
  <path d="M22.2826 29.7144L25.9693 31.0904L27.3963 35.6795C27.4876 35.9735 27.847 36.0821 28.0856 35.8871L30.1406 34.2118C30.356 34.0362 30.6629 34.0275 30.888 34.1909L34.5946 36.8819C34.8498 37.0674 35.2113 36.9276 35.2753 36.6192L37.9906 23.5584C38.0604 23.2215 37.7294 22.9405 37.4087 23.0646L22.2783 28.9014C21.9049 29.0454 21.9082 29.5741 22.2826 29.7144ZM27.1663 30.3579L34.3716 25.9202C34.5011 25.8407 34.6343 26.0158 34.5231 26.1189L28.5767 31.6464C28.3677 31.8409 28.2328 32.1013 28.1947 32.3839L27.9921 33.885C27.9653 34.0855 27.6837 34.1054 27.6284 33.9114L26.8494 31.1741C26.7602 30.8618 26.8902 30.5283 27.1663 30.3579Z" fill="white"/>
</svg>
