<svg width="60" height="60" viewBox="0 0 60 60" fill="none"
  xmlns="http://www.w3.org/2000/svg">
  <rect width="60" height="60" rx="30" fill="white" fill-opacity="0.05"/>
  <path d="M37.5283 25.1399C37.4494 25.163 37.3706 25.1844 37.2917 25.2044C36.8095 25.3261 36.7652 25.1655 37.1143 24.811C37.2706 24.6522 37.4088 24.4795 37.5287 24.2929C37.7976 23.8745 37.5644 23.692 37.1069 23.8875C36.9437 23.9572 36.7778 24.0204 36.6096 24.0768C36.1383 24.2351 35.4694 23.9963 35.0494 23.7299C34.5191 23.3936 33.9165 23.2256 33.2413 23.2256C32.2956 23.2256 31.4894 23.5591 30.8225 24.2257C30.1557 24.8926 29.8222 25.699 29.8222 26.6445C29.8222 26.7738 29.8296 26.9051 29.8442 27.0382C29.8681 27.2549 29.5032 27.4119 29.0108 27.3424C27.9457 27.192 26.9337 26.8692 25.9746 26.3745C25.0235 25.8839 24.184 25.2665 23.4564 24.5223C23.1086 24.1666 22.6381 24.1972 22.5083 24.6774C22.4305 24.9652 22.3918 25.2645 22.3918 25.5754C22.3918 26.1613 22.5293 26.7046 22.8046 27.2055C22.9414 27.4548 23.1017 27.6805 23.2858 27.8824C23.5954 28.2222 23.5481 28.4194 23.1171 28.2986C22.6863 28.1778 22.3705 27.9984 22.3705 28.0101C22.3705 28.0218 22.3705 28.0313 22.3705 28.0313C22.3705 28.8568 22.6297 29.582 23.1484 30.2065C23.4679 30.5912 23.8391 30.8883 24.2618 31.0976C24.7076 31.3184 24.9152 31.4416 24.666 31.4738C24.5156 31.4933 24.3643 31.503 24.2121 31.503C24.1091 31.503 24.0011 31.4983 23.8883 31.4888C23.71 31.4737 23.678 31.8452 23.9483 32.2627C24.1632 32.5945 24.4382 32.8864 24.7732 33.1386C25.1139 33.3952 25.4812 33.5795 25.8743 33.6917C26.3527 33.828 26.4487 34.0764 26.0222 34.3321C24.9668 34.9654 23.7988 35.282 22.5184 35.282C22.3742 35.282 22.2366 35.2788 22.1051 35.2725C21.8769 35.2615 22.03 35.4625 22.4705 35.6932C23.8471 36.4142 25.3378 36.7744 26.9429 36.7744C28.1565 36.7744 29.2962 36.5822 30.3618 36.1977C31.4271 35.8131 32.3376 35.2978 33.0926 34.6522C33.8476 34.0065 34.4987 33.2639 35.0456 32.4241C35.5925 31.5843 35.9998 30.7075 36.2682 29.7938C36.5362 28.88 36.6704 27.9643 36.6704 27.0469C36.6704 26.9642 36.6697 26.89 36.6684 26.8246C36.6659 26.7018 36.9908 26.3693 37.3535 26.0291C37.5172 25.8755 37.6734 25.7143 37.8225 25.5452C38.1515 25.1718 38.0058 25.0007 37.5283 25.1399Z" fill="white"/>
</svg>
