<svg width="184" height="38" viewBox="0 0 184 38" fill="none" xmlns="http://www.w3.org/2000/svg">
<path d="M62.8032 10.5131V16.7842H70.181V19.6431H62.8032V26.1909H71.1032V29.0498H59.2987V7.6542H71.1032V10.5131H62.8032ZM81.3526 25.9142L86.1482 12.1116H89.8678L83.4122 29.0498H79.2315L72.8067 12.1116H76.557L81.3526 25.9142ZM107.426 20.1657C107.426 20.801 107.385 21.3748 107.303 21.8872H94.3613C94.4637 23.2398 94.9658 24.326 95.8676 25.1457C96.7693 25.9655 97.876 26.3754 99.1876 26.3754C101.073 26.3754 102.405 25.5863 103.184 24.0083H106.965C106.453 25.5658 105.52 26.8467 104.168 27.8509C102.835 28.8346 101.175 29.3265 99.1876 29.3265C97.5685 29.3265 96.1135 28.9678 94.8224 28.2505C93.5517 27.5128 92.5475 26.4881 91.8098 25.1765C91.0925 23.8444 90.7338 22.3073 90.7338 20.5653C90.7338 18.8234 91.0822 17.2966 91.779 15.985C92.4963 14.6529 93.4903 13.6282 94.7609 12.9109C96.052 12.1936 97.5276 11.835 99.1876 11.835C100.786 11.835 102.21 12.1833 103.461 12.8801C104.711 13.5769 105.684 14.5606 106.381 15.8313C107.078 17.0814 107.426 18.5262 107.426 20.1657ZM103.768 19.059C103.747 17.7679 103.286 16.733 102.385 15.9542C101.483 15.1755 100.366 14.7861 99.0339 14.7861C97.8247 14.7861 96.7898 15.1755 95.929 15.9542C95.0683 16.7125 94.5559 17.7474 94.392 19.059H103.768ZM113.764 14.5709C114.277 13.7101 114.953 13.0441 115.793 12.5727C116.654 12.0809 117.669 11.835 118.837 11.835V15.4624H117.945C116.572 15.4624 115.527 15.8108 114.81 16.5076C114.113 17.2043 113.764 18.4135 113.764 20.135V29.0498H110.26V12.1116H113.764V14.5709ZM127.991 25.9142L132.787 12.1116H136.506L130.051 29.0498H125.87L119.445 12.1116H123.195L127.991 25.9142ZM145.887 29.3265C144.289 29.3265 142.844 28.9678 141.553 28.2505C140.262 27.5128 139.247 26.4881 138.51 25.1765C137.772 23.8444 137.403 22.3073 137.403 20.5653C137.403 18.8439 137.782 17.3171 138.54 15.985C139.299 14.6529 140.334 13.6282 141.645 12.9109C142.957 12.1936 144.422 11.835 146.041 11.835C147.66 11.835 149.125 12.1936 150.437 12.9109C151.749 13.6282 152.784 14.6529 153.542 15.985C154.3 17.3171 154.679 18.8439 154.679 20.5653C154.679 22.2868 154.29 23.8136 153.511 25.1457C152.732 26.4778 151.667 27.5128 150.314 28.2505C148.982 28.9678 147.506 29.3265 145.887 29.3265ZM145.887 26.2831C146.789 26.2831 147.629 26.0679 148.408 25.6376C149.207 25.2072 149.853 24.5616 150.345 23.7009C150.837 22.8402 151.083 21.795 151.083 20.5653C151.083 19.3357 150.847 18.3008 150.376 17.4605C149.904 16.5998 149.279 15.9542 148.5 15.5238C147.722 15.0935 146.881 14.8783 145.98 14.8783C145.078 14.8783 144.238 15.0935 143.459 15.5238C142.701 15.9542 142.096 16.5998 141.645 17.4605C141.194 18.3008 140.969 19.3357 140.969 20.5653C140.969 22.3893 141.43 23.8034 142.352 24.8076C143.295 25.7913 144.473 26.2831 145.887 26.2831ZM159.312 9.86754C158.676 9.86754 158.144 9.65236 157.713 9.22198C157.283 8.79161 157.068 8.25877 157.068 7.62346C157.068 6.98815 157.283 6.45531 157.713 6.02494C158.144 5.59457 158.676 5.37938 159.312 5.37938C159.927 5.37938 160.449 5.59457 160.88 6.02494C161.31 6.45531 161.525 6.98815 161.525 7.62346C161.525 8.25877 161.31 8.79161 160.88 9.22198C160.449 9.65236 159.927 9.86754 159.312 9.86754ZM161.033 12.1116V29.0498H157.529V12.1116H161.033ZM163.851 20.5039C163.851 18.8029 164.2 17.2966 164.897 15.985C165.614 14.6734 166.577 13.6589 167.786 12.9416C169.016 12.2038 170.379 11.835 171.875 11.835C172.981 11.835 174.068 12.0809 175.133 12.5727C176.219 13.0441 177.08 13.6794 177.715 14.4787V6.30161H181.251V29.0498H177.715V26.4983C177.142 27.3181 176.342 27.9944 175.318 28.5272C174.313 29.0601 173.156 29.3265 171.844 29.3265C170.368 29.3265 169.016 28.9576 167.786 28.2198C166.577 27.4615 165.614 26.4163 164.897 25.0842C164.2 23.7316 163.851 22.2049 163.851 20.5039ZM177.715 20.5653C177.715 19.3972 177.47 18.3827 176.978 17.522C176.506 16.6613 175.881 16.0055 175.102 15.5546C174.324 15.1037 173.483 14.8783 172.582 14.8783C171.68 14.8783 170.84 15.1037 170.061 15.5546C169.282 15.985 168.647 16.6305 168.155 17.4913C167.684 18.3315 167.448 19.3357 167.448 20.5039C167.448 21.672 167.684 22.6967 168.155 23.5779C168.647 24.4592 169.282 25.1355 170.061 25.6068C170.86 26.0577 171.7 26.2831 172.582 26.2831C173.483 26.2831 174.324 26.0577 175.102 25.6068C175.881 25.156 176.506 24.5002 176.978 23.6394C177.47 22.7582 177.715 21.7335 177.715 20.5653Z" fill="white"/>
<path fill-rule="evenodd" clip-rule="evenodd" d="M29.9677 4.81174C27.2032 4.26184 24.3377 4.54407 21.7336 5.62273C19.1295 6.70139 16.9037 8.52804 15.3377 10.8717C13.7718 13.2153 12.9359 15.9707 12.9359 18.7894C12.9359 21.6081 13.7718 24.3635 15.3377 26.7071C16.9037 29.0507 19.1295 30.8774 21.7336 31.9561C24.3377 33.0347 27.2032 33.3169 29.9677 32.7671C32.7323 32.2172 35.2716 30.8598 37.2647 28.8667L40.0036 31.6056C37.4688 34.1404 34.2393 35.8666 30.7234 36.566C27.2075 37.2653 23.5632 36.9064 20.2513 35.5346C16.9395 34.1627 14.1088 31.8396 12.1172 28.859C10.4862 26.4181 9.47799 23.626 9.16634 20.7262H0V16.8528L9.16632 16.8528C9.47795 13.9529 10.4862 11.1607 12.1172 8.71978C14.1087 5.73916 16.9395 3.41606 20.2513 2.04423C23.5632 0.672404 27.2075 0.313472 30.7234 1.01282C34.2393 1.71217 37.4688 3.4384 40.0036 5.9732L37.2647 8.71207C35.2716 6.71896 32.7323 5.36164 29.9677 4.81174ZM45.3118 20.7266L22.6558 20.7266V16.8533L45.3118 16.8533L45.3118 20.7266Z" fill="white"/>
</svg>
