<svg width="105" height="30" viewBox="0 0 105 30" fill="none" xmlns="http://www.w3.org/2000/svg">
<g filter="url(#filter0_b_12890_132115)">
<path fill-rule="evenodd" clip-rule="evenodd" d="M7.09189 14.1088C7.27738 12.4506 6.08354 10.9561 4.42538 10.7706C2.76721 10.5851 1.27264 11.7789 1.08715 13.4371C0.875793 15.3265 1.04985 17.2391 1.59878 19.0592C2.14772 20.8794 3.06012 22.5694 4.28083 24.0268C5.50153 25.4843 7.00517 26.6791 8.70081 27.5388C10.3964 28.3986 12.2488 28.9055 14.146 29.0289C16.0431 29.1523 17.9456 28.8897 19.7383 28.2568C21.5311 27.624 23.1768 26.6341 24.576 25.347C25.9753 24.06 27.0989 22.5025 27.8791 20.7688C28.6592 19.0351 29.0795 17.1611 29.1147 15.2603C29.1456 13.5921 27.8183 12.2147 26.1501 12.1838C26.1019 12.1829 26.054 12.1831 26.0063 12.1845V12.1287H15.0586V17.9316H22.5197C22.4724 18.0519 22.4222 18.1713 22.369 18.2894C21.9241 19.278 21.2834 20.1661 20.4856 20.9C19.6877 21.6339 18.7493 22.1984 17.727 22.5592C16.7048 22.9201 15.62 23.0698 14.5382 22.9995C13.4564 22.9291 12.4002 22.6401 11.4333 22.1498C10.4664 21.6596 9.60903 20.9783 8.91297 20.1472C8.21691 19.3161 7.69664 18.3525 7.38363 17.3146C7.07062 16.2767 6.97137 15.1862 7.09189 14.1088Z" fill="white" fill-opacity="0.25"/>
</g>
<path d="M4.01817 15C4.01817 13.5506 4.30366 12.1153 4.85835 10.7762C5.41303 9.43702 6.22605 8.22026 7.25097 7.19534C8.27589 6.17041 9.49266 5.3574 10.8318 4.80271C12.1709 4.24803 13.6062 3.96253 15.0556 3.96253" stroke="white" stroke-width="6.0422" stroke-linecap="round" stroke-linejoin="round"/>
<circle cx="15.0265" cy="15.0297" r="2.90145" fill="white"/>
<circle cx="15.0294" cy="26.0373" r="2.90145" fill="white"/>
<circle cx="3.96102" cy="15.0297" r="2.90145" fill="white"/>
<circle cx="25.9776" cy="15.0297" r="2.90145" fill="white"/>
<path d="M51.1905 12.4106C51.0836 12.0388 50.9333 11.7102 50.7397 11.425C50.5462 11.1347 50.3093 10.8902 50.0292 10.6915C49.7541 10.4878 49.4384 10.3324 49.0818 10.2255C48.7304 10.1185 48.3407 10.065 47.9128 10.065C47.1132 10.065 46.4103 10.2637 45.8041 10.661C45.2031 11.0583 44.7345 11.6364 44.3983 12.3953C44.0622 13.1492 43.8941 14.0711 43.8941 15.1611C43.8941 16.2511 44.0596 17.1781 44.3907 17.9421C44.7218 18.7062 45.1904 19.2894 45.7965 19.6918C46.4026 20.0891 47.1183 20.2877 47.9434 20.2877C48.6922 20.2877 49.3314 20.1553 49.8611 19.8904C50.3959 19.6205 50.8034 19.241 51.0836 18.752C51.3688 18.263 51.5114 17.6849 51.5114 17.0177L52.1838 17.117H48.1497V14.6263H54.6974V16.5975C54.6974 17.9727 54.4071 19.1544 53.8264 20.1425C53.2457 21.1256 52.4461 21.8845 51.4274 22.4193C50.4087 22.9491 49.2423 23.2139 47.9281 23.2139C46.4612 23.2139 45.1725 22.8905 44.0622 22.2436C42.9518 21.5916 42.0859 20.6672 41.4645 19.4702C40.8482 18.2681 40.54 16.842 40.54 15.1917C40.54 13.9234 40.7234 12.7926 41.0901 11.7994C41.4619 10.8011 41.9815 9.95553 42.6487 9.26281C43.316 8.57009 44.0927 8.04292 44.979 7.68128C45.8653 7.31964 46.8254 7.13882 47.8594 7.13882C48.7456 7.13882 49.5708 7.2687 50.3348 7.52847C51.0988 7.78315 51.7763 8.14479 52.3671 8.61339C52.9631 9.08199 53.4495 9.63973 53.8264 10.2866C54.2033 10.9284 54.4453 11.6364 54.5522 12.4106H51.1905ZM56.691 23V11.2646H59.7929V13.3351H59.9304C60.1749 12.6474 60.5824 12.105 61.1529 11.7077C61.7234 11.3104 62.4059 11.1118 63.2005 11.1118C64.0052 11.1118 64.6903 11.3129 65.2557 11.7153C65.8211 12.1126 66.198 12.6525 66.3865 13.3351H66.5087C66.7481 12.6627 67.181 12.1254 67.8075 11.723C68.4391 11.3155 69.1853 11.1118 70.0461 11.1118C71.1413 11.1118 72.0301 11.4607 72.7126 12.1585C73.4002 12.8512 73.744 13.8342 73.744 15.1076V23H70.4969V15.7494C70.4969 15.0974 70.3237 14.6084 69.9774 14.2825C69.631 13.9565 69.1981 13.7935 68.6785 13.7935C68.0877 13.7935 67.6267 13.9819 67.2957 14.3589C66.9646 14.7307 66.799 15.2222 66.799 15.8334V23H63.6436V15.6806C63.6436 15.1051 63.4781 14.6466 63.147 14.3054C62.821 13.9641 62.3906 13.7935 61.8558 13.7935C61.4941 13.7935 61.1682 13.8852 60.8778 14.0685C60.5926 14.2468 60.3659 14.4989 60.1978 14.8249C60.0298 15.1458 59.9457 15.5227 59.9457 15.9557V23H56.691ZM79.2311 23.2216C78.4824 23.2216 77.8151 23.0917 77.2294 22.8319C76.6436 22.5671 76.1801 22.1774 75.8388 21.663C75.5027 21.1434 75.3346 20.4965 75.3346 19.7223C75.3346 19.0704 75.4543 18.5228 75.6937 18.0797C75.9331 17.6365 76.2591 17.28 76.6716 17.01C77.0842 16.7401 77.5528 16.5363 78.0774 16.3988C78.6072 16.2613 79.1624 16.1645 79.743 16.1085C80.4255 16.0372 80.9756 15.971 81.3933 15.9098C81.811 15.8436 82.114 15.7468 82.3025 15.6195C82.491 15.4922 82.5852 15.3037 82.5852 15.0541V15.0083C82.5852 14.5244 82.4324 14.15 82.1268 13.8852C81.8263 13.6203 81.3984 13.4879 80.8432 13.4879C80.2575 13.4879 79.7914 13.6178 79.445 13.8775C79.0987 14.1322 78.8695 14.4531 78.7574 14.8402L75.7472 14.5957C75.9 13.8826 76.2005 13.2663 76.6487 12.7468C77.0969 12.2221 77.675 11.8198 78.383 11.5396C79.0961 11.2544 79.9213 11.1118 80.8585 11.1118C81.5105 11.1118 82.1344 11.1882 82.7304 11.341C83.3314 11.4938 83.8637 11.7306 84.3272 12.0515C84.7958 12.3724 85.165 12.785 85.435 13.2892C85.705 13.7884 85.8399 14.3869 85.8399 15.0847V23H82.7533V21.3726H82.6616C82.4731 21.7394 82.221 22.0628 81.9052 22.3429C81.5894 22.618 81.2099 22.8345 80.7668 22.9924C80.3237 23.1452 79.8118 23.2216 79.2311 23.2216ZM80.1632 20.9753C80.642 20.9753 81.0648 20.8811 81.4315 20.6926C81.7982 20.4991 82.086 20.2393 82.2949 19.9133C82.5037 19.5874 82.6081 19.2181 82.6081 18.8055V17.5601C82.5062 17.6264 82.3662 17.6875 82.1879 17.7435C82.0147 17.7944 81.8186 17.8428 81.5996 17.8887C81.3806 17.9294 81.1616 17.9676 80.9425 18.0033C80.7235 18.0338 80.5249 18.0618 80.3466 18.0873C79.9646 18.1433 79.631 18.2325 79.3457 18.3547C79.0605 18.477 78.8389 18.6425 78.681 18.8513C78.5231 19.0551 78.4442 19.3098 78.4442 19.6154C78.4442 20.0585 78.6046 20.3972 78.9255 20.6315C79.2515 20.8607 79.6641 20.9753 80.1632 20.9753ZM87.9347 23V11.2646H91.0902V13.3122H91.2124C91.4263 12.5838 91.7854 12.0337 92.2897 11.6619C92.7939 11.2849 93.3746 11.0965 94.0317 11.0965C94.1947 11.0965 94.3704 11.1067 94.5588 11.127C94.7473 11.1474 94.9128 11.1754 95.0555 11.2111V14.0991C94.9027 14.0533 94.6913 14.0125 94.4213 13.9769C94.1514 13.9412 93.9043 13.9234 93.6802 13.9234C93.2014 13.9234 92.7736 14.0278 92.3967 14.2366C92.0248 14.4404 91.7294 14.7256 91.5104 15.0923C91.2965 15.4591 91.1895 15.8818 91.1895 16.3606V23H87.9347ZM103.138 11.2646V13.7094H96.0711V11.2646H103.138ZM97.6755 8.45294H100.93V19.3938C100.93 19.6943 100.976 19.9286 101.068 20.0967C101.159 20.2597 101.287 20.3743 101.45 20.4405C101.618 20.5067 101.811 20.5398 102.03 20.5398C102.183 20.5398 102.336 20.5271 102.489 20.5016C102.642 20.4711 102.759 20.4482 102.84 20.4329L103.352 22.8548C103.189 22.9058 102.96 22.9643 102.665 23.0306C102.369 23.1019 102.01 23.1452 101.587 23.1604C100.803 23.191 100.115 23.0866 99.5245 22.8472C98.9387 22.6078 98.4829 22.236 98.1569 21.7317C97.8309 21.2275 97.6704 20.5908 97.6755 19.8217V8.45294Z" fill="white"/>
<defs>
<filter id="filter0_b_12890_132115" x="-5.0251" y="4.72648" width="40.1654" height="30.3572" filterUnits="userSpaceOnUse" color-interpolation-filters="sRGB">
<feFlood flood-opacity="0" result="BackgroundImageFix"/>
<feGaussianBlur in="BackgroundImage" stdDeviation="3.01255"/>
<feComposite in2="SourceAlpha" operator="in" result="effect1_backgroundBlur_12890_132115"/>
<feBlend mode="normal" in="SourceGraphic" in2="effect1_backgroundBlur_12890_132115" result="shape"/>
</filter>
</defs>
</svg>
