<svg width="153" height="38" viewBox="0 0 153 38" fill="none" xmlns="http://www.w3.org/2000/svg">
<path d="M65.7682 13.8331C65.2149 12.7674 64.4463 11.9682 63.4626 11.4353C62.4789 10.882 61.3415 10.6053 60.0504 10.6053C58.6363 10.6053 57.3759 10.923 56.2693 11.5583C55.1626 12.1936 54.2916 13.0953 53.6563 14.2635C53.0415 15.4316 52.7341 16.7842 52.7341 18.3213C52.7341 19.8583 53.0415 21.2211 53.6563 22.4098C54.2916 23.5779 55.1626 24.4797 56.2693 25.115C57.3759 25.7503 58.6363 26.0679 60.0504 26.0679C61.9563 26.0679 63.5036 25.5351 64.6923 24.4694C65.8809 23.4037 66.6084 21.9589 66.8749 20.135H58.8515V17.3376H70.6252V20.0735C70.3998 21.7335 69.8055 23.2603 68.8423 24.6539C67.8995 26.0475 66.6597 27.1644 65.1226 28.0046C63.6061 28.8244 61.9153 29.2342 60.0504 29.2342C58.042 29.2342 56.2078 28.7731 54.5478 27.8509C52.8878 26.9082 51.5659 25.6068 50.5822 23.9468C49.619 22.2868 49.1374 20.4116 49.1374 18.3213C49.1374 16.2309 49.619 14.3557 50.5822 12.6957C51.5659 11.0357 52.8878 9.74458 54.5478 8.82235C56.2283 7.87963 58.0625 7.40828 60.0504 7.40828C62.3252 7.40828 64.3439 7.97186 66.1063 9.09902C67.8893 10.2057 69.1804 11.7837 69.9797 13.8331H65.7682ZM79.615 29.3265C78.2829 29.3265 77.084 29.0908 76.0183 28.6194C74.9731 28.1276 74.1431 27.4718 73.5283 26.652C72.9135 25.8118 72.5856 24.8793 72.5446 23.8546H76.172C76.2335 24.5719 76.5717 25.1765 77.1865 25.6683C77.8218 26.1397 78.6108 26.3754 79.5535 26.3754C80.5372 26.3754 81.2955 26.1909 81.8283 25.822C82.3817 25.4326 82.6583 24.9408 82.6583 24.3465C82.6583 23.7112 82.3509 23.2398 81.7361 22.9324C81.1418 22.625 80.1888 22.2868 78.8772 21.9179C77.6066 21.5695 76.5717 21.2314 75.7724 20.9035C74.9731 20.5756 74.2763 20.0735 73.682 19.3972C73.1082 18.7209 72.8213 17.8294 72.8213 16.7227C72.8213 15.821 73.0877 15.0013 73.6205 14.2635C74.1534 13.5052 74.9117 12.9109 75.8954 12.4805C76.8996 12.0501 78.0472 11.835 79.3383 11.835C81.2648 11.835 82.812 12.3268 83.9802 13.3105C85.1688 14.2737 85.8041 15.5956 85.8861 17.2761H82.3817C82.3202 16.5178 82.0128 15.9132 81.4594 15.4624C80.9061 15.0115 80.1581 14.7861 79.2154 14.7861C78.2931 14.7861 77.5861 14.9603 77.0943 15.3087C76.6024 15.6571 76.3565 16.1182 76.3565 16.692C76.3565 17.1429 76.5204 17.522 76.8483 17.8294C77.1762 18.1368 77.5759 18.3827 78.0472 18.5672C78.5186 18.7311 79.2154 18.9463 80.1376 19.2127C81.3672 19.5406 82.3714 19.8788 83.1502 20.2272C83.9495 20.5551 84.636 21.0469 85.2098 21.7028C85.7837 22.3586 86.0808 23.2295 86.1013 24.3157C86.1013 25.2789 85.8349 26.1397 85.302 26.8979C84.7692 27.6562 84.0109 28.2505 83.0272 28.6809C82.064 29.1113 80.9266 29.3265 79.615 29.3265ZM112.021 12.1116L106.765 29.0498H103.076L99.6635 16.5383L96.2513 29.0498H92.5624L87.275 12.1116H90.8409L94.3761 25.7298L97.9728 12.1116H101.631L105.074 25.6683L108.578 12.1116H112.021ZM112.857 20.5039C112.857 18.8029 113.206 17.2966 113.903 15.985C114.62 14.6734 115.583 13.6589 116.792 12.9416C118.022 12.2038 119.374 11.835 120.85 11.835C122.182 11.835 123.34 12.1014 124.324 12.6342C125.328 13.1466 126.127 13.7921 126.721 14.5709V12.1116H130.257V29.0498H126.721V26.5291C126.127 27.3283 125.318 27.9944 124.293 28.5272C123.268 29.0601 122.1 29.3265 120.788 29.3265C119.333 29.3265 118.001 28.9576 116.792 28.2198C115.583 27.4615 114.62 26.4163 113.903 25.0842C113.206 23.7316 112.857 22.2049 112.857 20.5039ZM126.721 20.5653C126.721 19.3972 126.476 18.3827 125.984 17.522C125.512 16.6613 124.887 16.0055 124.108 15.5546C123.33 15.1037 122.489 14.8783 121.588 14.8783C120.686 14.8783 119.846 15.1037 119.067 15.5546C118.288 15.985 117.653 16.6305 117.161 17.4913C116.69 18.3315 116.454 19.3357 116.454 20.5039C116.454 21.672 116.69 22.6967 117.161 23.5779C117.653 24.4592 118.288 25.1355 119.067 25.6068C119.866 26.0577 120.706 26.2831 121.588 26.2831C122.489 26.2831 123.33 26.0577 124.108 25.6068C124.887 25.156 125.512 24.5002 125.984 23.6394C126.476 22.7582 126.721 21.7335 126.721 20.5653ZM137.749 14.6016C138.344 13.8229 139.153 13.1671 140.178 12.6342C141.202 12.1014 142.36 11.835 143.651 11.835C145.127 11.835 146.469 12.2038 147.679 12.9416C148.908 13.6589 149.871 14.6734 150.568 15.985C151.265 17.2966 151.613 18.8029 151.613 20.5039C151.613 22.2049 151.265 23.7316 150.568 25.0842C149.871 26.4163 148.908 27.4615 147.679 28.2198C146.469 28.9576 145.127 29.3265 143.651 29.3265C142.36 29.3265 141.213 29.0703 140.208 28.558C139.204 28.0251 138.385 27.3693 137.749 26.5905V37.1039H134.245V12.1116H137.749V14.6016ZM148.047 20.5039C148.047 19.3357 147.801 18.3315 147.31 17.4913C146.838 16.6305 146.203 15.985 145.404 15.5546C144.625 15.1037 143.785 14.8783 142.883 14.8783C142.002 14.8783 141.161 15.1037 140.362 15.5546C139.583 16.0055 138.948 16.6613 138.456 17.522C137.985 18.3827 137.749 19.3972 137.749 20.5653C137.749 21.7335 137.985 22.7582 138.456 23.6394C138.948 24.5002 139.583 25.156 140.362 25.6068C141.161 26.0577 142.002 26.2831 142.883 26.2831C143.785 26.2831 144.625 26.0577 145.404 25.6068C146.203 25.1355 146.838 24.4592 147.31 23.5779C147.801 22.6967 148.047 21.672 148.047 20.5039Z" fill="white"/>
<path fill-rule="evenodd" clip-rule="evenodd" d="M27.5115 12.9872C27.573 13.0939 27.6327 13.2013 27.6905 13.3094L23 17.9999L34 17.9999V6.99994L30.518 10.4819C25.9447 3.25988 16.441 0.876157 8.96854 5.19038C5.13541 7.40344 2.55986 10.9631 1.4989 14.9226L5.23703 15.9243C6.04296 12.9165 7.9942 10.2216 10.9035 8.5419C16.7199 5.18385 24.1559 7.17523 27.5115 12.9872ZM3.7303 28.9305L0 32.9999V20.9999L11 20.9999L6.50535 25.9032C6.65077 26.2182 6.81046 26.5277 6.9856 26.8311C10.3412 32.6431 17.7772 34.6345 23.5935 31.2764C26.5029 29.5967 28.4541 26.9018 29.26 23.894L32.9982 24.8957C31.9372 28.8552 29.3616 32.4149 25.5285 34.6279C17.9178 39.022 8.19996 36.4679 3.7303 28.9305Z" fill="white"/>
</svg>
