<svg width="21" height="20" viewBox="0 0 21 20" fill="none" xmlns="http://www.w3.org/2000/svg">
<path d="M3.03456 7.26518C2.87058 7.86369 2.78631 8.48122 2.78393 9.10178C2.78393 9.14539 2.78393 9.18799 2.78393 9.2306C2.78913 9.98061 2.705 10.7286 2.53331 11.4587C2.18744 11.3359 1.83155 11.0872 1.4917 10.6567C0.597465 9.52383 0.894708 7.70729 1.99747 7.27972C2.41451 7.11832 2.76338 7.1524 3.03606 7.25817C3.03534 7.26045 3.03483 7.2628 3.03456 7.26518Z" fill="#A16552"/>
<path d="M3.03456 7.26518C2.87058 7.86369 2.78631 8.48122 2.78393 9.10178C2.78393 9.14539 2.78393 9.18799 2.78393 9.2306C2.78913 9.98061 2.705 10.7286 2.53331 11.4587C2.18744 11.3359 1.83155 11.0872 1.4917 10.6567C0.597465 9.52383 0.894708 7.70729 1.99747 7.27972C2.41451 7.11832 2.76338 7.1524 3.03606 7.25817C3.03534 7.26045 3.03483 7.2628 3.03456 7.26518Z" fill="#F5DCB4"/>
<path d="M19.5107 10.6571C19.1713 11.0867 18.815 11.3353 18.4691 11.4591C18.2976 10.7291 18.2135 9.98136 18.2185 9.23153C18.2185 9.18893 18.2185 9.14632 18.2185 9.10271C18.2162 8.47967 18.1311 7.8597 17.9653 7.2591C18.238 7.15333 18.5869 7.11925 19.0039 7.28065C20.1067 7.70722 20.4044 9.52376 19.5107 10.6571Z" fill="#A16552"/>
<path d="M19.5107 10.6571C19.1713 11.0867 18.815 11.3353 18.4691 11.4591C18.2976 10.7291 18.2135 9.98136 18.2185 9.23153C18.2185 9.18893 18.2185 9.14632 18.2185 9.10271C18.2162 8.47967 18.1311 7.8597 17.9653 7.2591C18.238 7.15333 18.5869 7.11925 19.0039 7.28065C20.1067 7.70722 20.4044 9.52376 19.5107 10.6571Z" fill="#F5DCB4"/>
<path d="M16.0746 11.4818C15.9121 11.7327 15.808 12.0169 15.77 12.3134C15.732 12.61 15.761 12.9112 15.855 13.195C16.0019 13.6271 16.1332 14.1163 16.1332 14.4803C16.1322 17.1429 13.6114 19.2983 10.5006 19.2983C7.38983 19.2983 4.86752 17.1429 4.86752 14.4793C4.86752 14.1153 4.99885 13.6271 5.14572 13.194C5.2398 12.9104 5.26896 12.6092 5.23105 12.3127C5.19314 12.0163 5.08912 11.7321 4.92667 11.4813C4.6097 10.9851 4.4407 10.4089 4.43945 9.8201C4.43945 8.05318 5.94322 6.6201 7.79785 6.6201C8.39738 6.61861 8.98709 6.7723 9.50964 7.06621C9.81089 7.2376 10.1515 7.32771 10.4981 7.32771C10.8447 7.32771 11.1853 7.2376 11.4866 7.06621C12.009 6.77239 12.5985 6.61887 13.1979 6.6206C15.0525 6.6206 16.5593 8.05368 16.5593 9.8206C16.5607 10.2622 16.4663 10.6988 16.2826 11.1003C16.2223 11.2322 16.1528 11.3596 16.0746 11.4818Z" fill="#A16552"/>
<path d="M16.0746 11.4818C15.9121 11.7327 15.808 12.0169 15.77 12.3134C15.732 12.61 15.761 12.9112 15.855 13.195C16.0019 13.6271 16.1332 14.1163 16.1332 14.4803C16.1322 17.1429 13.6114 19.2983 10.5006 19.2983C7.38983 19.2983 4.86752 17.1429 4.86752 14.4793C4.86752 14.1153 4.99885 13.6271 5.14572 13.194C5.2398 12.9104 5.26896 12.6092 5.23105 12.3127C5.19314 12.0163 5.08912 11.7321 4.92667 11.4813C4.6097 10.9851 4.4407 10.4089 4.43945 9.8201C4.43945 8.05318 5.94322 6.6201 7.79785 6.6201C8.39738 6.61861 8.98709 6.7723 9.50964 7.06621C9.81089 7.2376 10.1515 7.32771 10.4981 7.32771C10.8447 7.32771 11.1853 7.2376 11.4866 7.06621C12.009 6.77239 12.5985 6.61887 13.1979 6.6206C15.0525 6.6206 16.5593 8.05368 16.5593 9.8206C16.5607 10.2622 16.4663 10.6988 16.2826 11.1003C16.2223 11.2322 16.1528 11.3596 16.0746 11.4818Z" fill="#F5DCB4"/>
<path d="M7.63167 15.0756C7.5856 15.0755 7.54003 15.0853 7.49803 15.1042C7.45602 15.1232 7.41855 15.1509 7.38813 15.1855C7.3577 15.2201 7.33502 15.2608 7.32161 15.3048C7.3082 15.3489 7.30437 15.3954 7.31037 15.4411C7.51087 16.8671 8.86426 17.9699 10.5009 17.9699C12.1374 17.9699 13.4918 16.8671 13.6913 15.4411C13.6973 15.3954 13.6935 15.349 13.6801 15.305C13.6667 15.2609 13.6441 15.2202 13.6137 15.1856C13.5834 15.1511 13.546 15.1233 13.504 15.1044C13.4621 15.0854 13.4166 15.0756 13.3705 15.0756H7.63167Z" fill="#4E3F3F"/>
<path d="M8.64795 17.4392C9.20381 17.7861 9.84587 17.97 10.5011 17.97C11.1563 17.97 11.7984 17.7861 12.3542 17.4392C12.1216 16.6342 11.3783 16.8197 10.4996 16.8197C9.62088 16.8197 8.88053 16.6342 8.64795 17.4392Z" fill="#E6646E"/>
<path d="M19.3854 6.68471C18.7187 6.42606 18.1899 6.5624 17.818 6.77643C17.7272 6.50905 17.6226 6.24654 17.5047 5.98997C17.4185 5.80216 17.3254 5.61687 17.2255 5.43408C16.2054 3.56791 14.4901 2.01904 12.5217 1.3644L12.4831 0.304747L11.2089 1.06966L11.0556 1.05262C10.9613 1.0441 10.8681 1.03758 10.7729 1.03357L10.5869 0.231564L10.5322 -1.52588e-05C10.4686 -1.52588e-05 10.4064 -1.52894e-05 10.3458 0.00700226C9.16032 0.103243 8.57034 1.18044 8.47811 1.3649C6.51019 2.01954 4.7959 3.57042 3.77585 5.43408C3.6756 5.61653 3.58253 5.80183 3.49665 5.98997C3.37885 6.24666 3.27413 6.50915 3.18287 6.77643L3.13525 6.74987C2.76632 6.55187 2.25404 6.43759 1.61595 6.68471C0.212434 7.22806 -0.163005 9.53684 0.972335 10.9754C1.43549 11.5609 1.92472 11.8817 2.39189 12.0246C2.38587 12.0506 2.37986 12.0772 2.37434 12.1038C2.28973 12.4912 2.24721 12.8866 2.24753 13.2832C2.24753 16.0316 4.2746 18.396 7.17886 19.4351C7.86073 19.6789 8.56798 19.8449 9.28713 19.9298C9.66048 19.9741 10.036 19.9975 10.4119 20H10.5012C15.0591 20 18.7538 16.9925 18.7538 13.2832C18.7541 12.887 18.7115 12.4919 18.627 12.1048C18.621 12.0782 18.6155 12.0516 18.6089 12.0256C19.0786 11.8827 19.5658 11.5619 20.0285 10.9759C21.1643 9.53684 20.7859 7.22756 19.3854 6.68471ZM3.03399 7.26516C2.87001 7.86366 2.78574 8.48119 2.78337 9.10175C2.78337 9.14536 2.78337 9.18797 2.78337 9.23057C2.78857 9.98058 2.70443 10.7285 2.53274 11.4586C2.18687 11.3358 1.83098 11.0872 1.49113 10.6566C0.596897 9.52381 0.89414 7.70726 1.9969 7.27969C2.41394 7.11829 2.76281 7.15238 3.0355 7.25814C3.03477 7.26043 3.03427 7.26277 3.03399 7.26516ZM16.2826 11.1003C16.2223 11.2321 16.1528 11.3596 16.0746 11.4817C15.9121 11.7326 15.808 12.0169 15.77 12.3134C15.732 12.6099 15.7611 12.9112 15.8551 13.195C16.0019 13.6271 16.1333 14.1163 16.1333 14.4802C16.1323 17.1429 13.6115 19.2983 10.5007 19.2983C7.38989 19.2983 4.86758 17.1429 4.86758 14.4792C4.86758 14.1153 4.99891 13.6271 5.14578 13.194C5.23986 12.9103 5.26902 12.6091 5.23111 12.3127C5.19319 12.0162 5.08917 11.7321 4.92673 11.4812C4.60976 10.985 4.44075 10.4088 4.43951 9.82005C4.43951 8.05313 5.94327 6.62004 7.79791 6.62004C8.39744 6.61856 8.98715 6.77225 9.50969 7.06616C9.81094 7.23754 10.1516 7.32765 10.4982 7.32765C10.8448 7.32765 11.1854 7.23754 11.4866 7.06616C12.009 6.77233 12.5986 6.61881 13.1979 6.62054C15.0526 6.62054 16.5593 8.05363 16.5593 9.82055C16.5607 10.2621 16.4663 10.6987 16.2826 11.1003ZM19.5107 10.6571C19.1714 11.0867 18.815 11.3353 18.4691 11.4591C18.2976 10.7292 18.2135 9.98141 18.2185 9.23158C18.2185 9.18897 18.2185 9.14636 18.2185 9.10275C18.2162 8.47971 18.1311 7.85974 17.9653 7.25914C18.238 7.15338 18.5869 7.11929 19.0039 7.2807C20.1067 7.70726 20.4044 9.52381 19.5107 10.6571Z" fill="#A16552"/>
<path d="M9.10163 12.6673L9.09497 12.6819C9.0347 12.8138 9.09281 12.9697 9.22475 13.0299L9.86489 13.3223C9.99684 13.3826 10.1527 13.3245 10.2129 13.1926L10.2196 13.178C10.2799 13.046 10.2218 12.8902 10.0898 12.8299L9.44968 12.5375C9.31773 12.4773 9.16191 12.5354 9.10163 12.6673Z" fill="#4E3F3F"/>
<path d="M10.7822 13.1791L10.7888 13.1937C10.8491 13.3257 11.0049 13.3838 11.1369 13.3235L11.777 13.0311C11.9089 12.9708 11.9671 12.815 11.9068 12.683L11.9001 12.6684C11.8398 12.5365 11.684 12.4784 11.5521 12.5387L10.9119 12.8311C10.78 12.8913 10.7219 13.0472 10.7822 13.1791Z" fill="#4E3F3F"/>
<path d="M7.60652 11.0992C7.07368 11.0992 6.6416 10.6902 6.6416 10.1849V9.88015C6.6416 9.37539 7.07368 8.96587 7.60652 8.96587C8.13935 8.96587 8.57093 9.37539 8.57093 9.88015V10.1849C8.57093 10.6902 8.13935 11.0992 7.60652 11.0992Z" fill="#4E3F3F"/>
<path d="M7.60645 8.96587V10.0325C7.6121 10.1566 7.66538 10.2737 7.75519 10.3596C7.845 10.4454 7.96444 10.4932 8.08865 10.4932C8.21287 10.4932 8.3323 10.4454 8.42211 10.3596C8.51192 10.2737 8.5652 10.1566 8.57086 10.0325V9.88216C8.57086 9.37339 8.13928 8.96587 7.60645 8.96587Z" fill="#5D5360"/>
<path d="M7.60647 9.88011C7.7842 9.88011 7.92828 9.74366 7.92828 9.57535C7.92828 9.40703 7.7842 9.27058 7.60647 9.27058C7.42875 9.27058 7.28467 9.40703 7.28467 9.57535C7.28467 9.74366 7.42875 9.88011 7.60647 9.88011Z" fill="white"/>
<path d="M13.3951 11.0992C12.8622 11.0992 12.4307 10.6902 12.4307 10.1849V9.88015C12.4307 9.37539 12.8622 8.96587 13.3951 8.96587C13.9279 8.96587 14.36 9.37539 14.36 9.88015V10.1849C14.36 10.6902 13.9269 11.0992 13.3951 11.0992Z" fill="#4E3F3F"/>
<path d="M13.3945 8.96587V10.0325C13.4014 10.1558 13.4552 10.2718 13.545 10.3567C13.6347 10.4415 13.7535 10.4888 13.877 10.4888C14.0005 10.4888 14.1193 10.4415 14.209 10.3567C14.2987 10.2718 14.3526 10.1558 14.3594 10.0325V9.88216C14.3594 9.37339 13.9264 8.96587 13.3945 8.96587Z" fill="#5D5360"/>
<path d="M13.3946 9.88011C13.5723 9.88011 13.7164 9.74366 13.7164 9.57535C13.7164 9.40703 13.5723 9.27058 13.3946 9.27058C13.2168 9.27058 13.0728 9.40703 13.0728 9.57535C13.0728 9.74366 13.2168 9.88011 13.3946 9.88011Z" fill="white"/>
<path opacity="0.35" d="M10.5866 0.233698C10.3706 0.212645 9.89791 0.551994 9.3335 1.14097C9.19265 1.28783 9.04528 1.45074 8.8949 1.62718C7.78613 2.93044 6.50041 4.97907 6.05981 7.08383C5.32096 10.6177 5.02071 14.7179 6.32498 16.9921C7.43024 18.9189 9.28789 19.929 9.28789 19.929C8.56873 19.844 7.86148 19.6781 7.17961 19.4342C4.27384 18.3961 2.24727 16.0307 2.24727 13.2833C2.2472 12.8871 2.28989 12.492 2.37459 12.1049C2.38011 12.0783 2.38612 12.0518 2.39214 12.0257C1.92296 11.8828 1.43575 11.562 0.972587 10.9766C-0.162753 9.53797 0.215192 7.2292 1.6162 6.68584C2.25429 6.43872 2.76657 6.553 3.1355 6.751L3.18312 6.77757C3.27438 6.51028 3.3791 6.24779 3.4969 5.9911C3.58312 5.8033 3.67618 5.618 3.7761 5.43521C4.79615 3.57004 6.51044 2.02067 8.47836 1.36603C8.57059 1.18157 9.16057 0.104374 10.346 0.0081337C10.4067 0.00312117 10.4688 0.000614546 10.5325 0.0011158L10.5866 0.233698Z" fill="#4E3F3F"/>
</svg>
