<svg width="20" height="20" viewBox="0 0 20 20" fill="none" xmlns="http://www.w3.org/2000/svg">
<path d="M17.2781 11.9522C16.9607 12.1706 16.5478 12.198 16.203 12.0239C15.8071 11.7986 15.5921 11.273 15.5921 10.5597V8.36519C15.5921 7.31058 15.1757 6.56314 14.4761 6.35836C13.2986 6.01365 12.4181 7.45734 12.0802 8L9.99485 11.3754V7.25597C9.97096 6.30717 9.66379 5.7372 9.07676 5.56655C8.6911 5.45393 8.11089 5.49829 7.54775 6.35836L2.88563 13.843C2.26447 12.6587 1.94024 11.3379 1.94707 10C1.94707 5.48805 5.55116 1.81911 9.99485 1.81911C14.4385 1.81911 18.0529 5.48805 18.0529 10V10.0239C18.0529 10.0239 18.0529 10.041 18.0529 10.0478C18.0972 10.9181 17.814 11.6143 17.2781 11.9522ZM19.8549 10V9.95563C19.8174 4.46075 15.4078 0 9.99485 0C4.58188 0 0.14502 4.48464 0.14502 10C0.14502 15.5154 4.5614 20 9.99485 20C12.4863 20 14.8822 19.0444 16.6911 17.3311C17.0563 16.9863 17.0768 16.413 16.7389 16.0444C16.4112 15.6826 15.8549 15.6553 15.4897 15.9829L15.4863 15.9863C12.2952 19.0137 7.25423 18.8805 4.22693 15.6894C4.15185 15.6109 4.08017 15.5324 4.0085 15.4505L8.20304 8.70307V11.8157C8.20304 13.3106 8.78325 13.7952 9.26789 13.9386C9.75253 14.0819 10.5 13.9829 11.2781 12.7167L13.5989 8.96246C13.6706 8.843 13.7389 8.7372 13.8037 8.64846V10.5563C13.8037 11.9556 14.3635 13.0717 15.3498 13.6246C16.2611 14.116 17.3669 14.0717 18.2372 13.5085C19.3191 12.8055 19.9095 11.5324 19.8481 10H19.8549Z" fill="white"/>
</svg>
