<svg width="18" height="16" viewBox="0 0 18 16" fill="none" xmlns="http://www.w3.org/2000/svg">
<path fill-rule="evenodd" clip-rule="evenodd" d="M8.52276 0.0476585C7.04854 0.286046 6.05156 1.4235 5.95812 2.97362C5.90404 3.87133 6.16112 4.78048 6.68899 5.55808C7.85538 7.27629 9.62711 7.55973 10.9942 6.24681C12.5757 4.72816 12.7554 2.15426 11.3722 0.836362C10.6814 0.178333 9.58741 -0.124498 8.52276 0.0476585ZM9.78055 1.48697C10.39 1.66054 10.8043 2.25423 10.8829 3.06655C10.9261 3.51343 10.8167 3.97401 10.5393 4.5136C10.0546 5.45605 9.31048 5.89725 8.70913 5.59859C7.94425 5.21875 7.27021 3.85233 7.40312 2.95098C7.52138 2.14928 7.91876 1.64792 8.59251 1.45036C8.84035 1.37769 9.46448 1.39691 9.78055 1.48697ZM3.02242 8.97435C1.67508 9.30361 0.601239 10.2894 0.212596 11.5537C0.0911305 11.9488 0.0761306 12.7794 0.182822 13.2054C0.325828 13.7764 0.679904 14.3742 1.14428 14.8287C1.82717 15.4969 2.61996 15.8465 3.73086 15.9692C4.65166 16.071 5.44372 15.9233 6.3087 15.4888C7.06095 15.111 7.79256 14.5227 9.38198 13.0179C11.271 11.2294 11.928 10.7289 12.8038 10.4112C13.779 10.0575 15.0937 10.3051 15.79 10.9739C16.3581 11.5195 16.5803 12.3927 16.3198 13.0558C15.9505 13.9954 15.0444 14.6134 14.036 14.6134C13.3115 14.6134 12.4765 14.3716 11.9969 14.0229L11.7078 13.8127L11.2108 14.2922L10.7139 14.7716L10.8233 14.8887C11.1634 15.2524 12.0434 15.6876 12.81 15.8714C13.5381 16.046 14.5502 16.0358 15.1432 15.8478C15.8216 15.6328 16.2938 15.3516 16.8035 14.8589C17.9149 13.7845 18.1935 12.3231 17.5437 10.9751C16.8914 9.62198 15.3489 8.81313 13.5582 8.88527C11.9996 8.94803 10.985 9.55191 8.60689 11.8322C7.09597 13.2811 6.5117 13.7705 5.82938 14.1589C5.25177 14.4876 4.80375 14.6134 4.21035 14.6134C3.06754 14.6134 2.12587 14.1134 1.73396 13.2986C1.58943 12.9982 1.57195 12.903 1.57251 12.4201C1.57302 11.9301 1.58841 11.8505 1.73413 11.5837C1.93989 11.2068 2.42519 10.7176 2.77447 10.5351C3.35141 10.2335 3.93911 10.1642 4.67698 10.3106C5.20062 10.4144 5.53017 10.5482 5.96545 10.8335L6.30385 11.0553L6.77149 10.5846C7.02869 10.3256 7.23914 10.0934 7.23914 10.0685C7.23914 9.97745 6.59336 9.55857 6.13501 9.35229C5.44835 9.04324 4.90457 8.92063 4.10946 8.89545C3.57984 8.87871 3.34357 8.89583 3.02242 8.97435Z" fill="white"/>
</svg>
