<svg width="17" height="16" viewBox="0 0 17 16" fill="none" xmlns="http://www.w3.org/2000/svg">
<path fill-rule="evenodd" clip-rule="evenodd" d="M13.4467 4.74254C13.4757 4.79275 13.5038 4.84332 13.531 4.89424L11.3236 7.10159L16.5002 7.10159V1.92506L14.8616 3.56363C12.7094 0.164933 8.23701 -0.956858 4.7205 1.0734C2.91666 2.11485 1.70461 3.79001 1.20534 5.65334L2.96448 6.1247C3.34374 4.70927 4.26198 3.44106 5.6311 2.6506C8.36822 1.07033 11.8676 2.00746 13.4467 4.74254ZM2.25534 12.2456L0.5 14.1605V8.51336H5.67653L3.56124 10.821C3.62965 10.9691 3.70475 11.1147 3.78713 11.2573C5.36623 13.9924 8.86559 14.9296 11.6027 13.3493C12.9718 12.5588 13.8901 11.2906 14.2693 9.87519L16.0285 10.3466C15.5292 12.2099 14.3172 13.885 12.5133 14.9265C8.93183 16.9943 4.3588 15.7924 2.25534 12.2456Z" fill="white"/>
</svg>
