<svg width="18" height="18" viewBox="0 0 18 18" fill="none" xmlns="http://www.w3.org/2000/svg">
<g clip-path="url(#clip0_13708_199965)">
<path fill-rule="evenodd" clip-rule="evenodd" d="M3.29072 2.8125C3.00947 1.35 4.13447 0 5.59697 0C6.89072 0 7.95947 1.06875 7.95947 2.3625V5.2875C8.29697 5.2875 8.63447 5.23125 8.97197 5.23125C9.30947 5.23125 9.59072 5.23125 9.92822 5.2875V2.3625C9.92822 1.06875 10.997 0 12.2907 0C13.7532 0 14.8782 1.35 14.6532 2.8125L14.0345 6.24375C16.2282 7.2 17.9157 8.8875 17.9157 10.9688V12.2625C17.9157 14.0062 16.7907 15.4688 15.1595 16.425C13.5282 17.4375 11.3907 18 8.97197 18C6.55322 18 4.41572 17.4375 2.78447 16.425C1.20947 15.4688 0.0844727 14.0062 0.0844727 12.2625V10.9688C0.0844727 8.8875 1.71572 7.2 3.90947 6.24375L3.29072 2.8125ZM13.1907 6.69375L13.922 2.64375C14.0907 1.63125 13.3595 0.675 12.2907 0.675C11.3907 0.675 10.6595 1.40625 10.6595 2.30625V6.01875C10.4345 5.9625 10.1532 5.9625 9.92822 5.9625C9.59072 5.9625 9.30947 5.90625 8.97197 5.90625C8.63447 5.90625 8.29697 5.90625 7.95947 5.9625C7.73447 5.9625 7.45322 6.01875 7.22822 6.01875V2.3625C7.22822 1.4625 6.49697 0.73125 5.59697 0.73125C4.58447 0.73125 3.79697 1.6875 4.02197 2.7L4.75322 6.75C2.39072 7.65 0.815723 9.225 0.815723 11.025V12.3187C0.815723 15.075 4.47197 17.325 8.97197 17.325C13.472 17.325 17.1282 15.075 17.1282 12.3187V11.025C17.1845 9.16875 15.6095 7.59375 13.1907 6.69375Z" fill="#633001"/>
<path d="M17.1843 12.2625C17.1843 15.0187 13.5281 17.2688 9.02808 17.2688C4.52808 17.2688 0.871826 15.0187 0.871826 12.2625V10.9688H17.2406V12.2625H17.1843Z" fill="#FEDC90"/>
<path fill-rule="evenodd" clip-rule="evenodd" d="M4.02183 2.70007C3.79683 1.68757 4.58433 0.731323 5.59683 0.731323C6.49683 0.731323 7.22808 1.46257 7.22808 2.36257V6.07507C7.79058 6.01882 8.35308 5.96257 8.97183 5.96257C9.53433 5.96257 10.0968 6.01882 10.6593 6.07507V2.36257C10.6593 1.46257 11.3906 0.731323 12.2906 0.731323C13.3031 0.731323 14.0906 1.68757 13.9218 2.70007L13.1906 6.75007C15.5531 7.65007 17.1843 9.22507 17.1843 11.0251C17.1843 13.7813 13.5281 16.0313 9.02808 16.0313C4.52808 16.0313 0.871826 13.7813 0.871826 11.0251C0.871826 9.22507 2.44683 7.65007 4.80933 6.75007L4.02183 2.70007Z" fill="#D1884F"/>
<path d="M6.72212 10.6312C6.72212 11.3625 6.32837 11.9812 5.82212 11.9812C5.31587 11.9812 4.92212 11.3625 4.92212 10.6312C4.92212 9.9 5.31587 9.28125 5.82212 9.28125C6.32837 9.28125 6.72212 9.9 6.72212 10.6312Z" fill="#633001"/>
<path d="M12.9658 10.6312C12.9658 11.3625 12.572 11.9812 12.0658 11.9812C11.5595 11.9812 11.1658 11.3625 11.1658 10.6312C11.1658 9.9 11.5595 9.28125 12.0658 9.28125C12.572 9.28125 12.9658 9.9 12.9658 10.6312Z" fill="#633001"/>
</g>
<defs>
<clipPath id="clip0_13708_199965">
<rect width="17.8313" height="18" fill="white" transform="translate(0.0844727)"/>
</clipPath>
</defs>
</svg>
